<svg xmlns="http://www.w3.org/2000/svg" width="321.191" height="284.793" viewBox="0 0 321.191 284.793">
  <g id="Group_4313" data-name="Group 4313" transform="translate(447.969 -58)">
    <g id="Group_2330" data-name="Group 2330" transform="translate(-447.969 58)" opacity="0.07" style="isolation: isolate">
      <path id="Path_1361" data-name="Path 1361" d="M-150.109,114.983a92.5,92.5,0,0,0-7.447-9.438c-22.034-24.47-50.844-34.822-83.758-41.76-33.993-7.165-73.794-9.42-106.428,3.535-7.682,3.05-14.965,7.133-20.761,12.667-21.832,20.841-29.317,55.765-53.644,83.366s-36.178,61.959-14.347,94.629c9.24,13.826,21.02,25.232,34.96,35.24,17.162,12.322,31.966,28.94,51.8,38.558,20.846,10.111,48.609,13.632,71.677,9,26.32-5.282,41.758-26.284,61.85-40.608,15.84-11.293,34.786-18.682,50.307-30.329,23.779-17.843,41.807-46.524,38.793-74.952C-130.032,167.319-133.818,138.632-150.109,114.983Z" transform="translate(447.969 -58)" fill="#006cbb"/>
      <path id="Path_1362" data-name="Path 1362" d="M-150.109,114.983a92.5,92.5,0,0,0-7.447-9.438c-22.034-24.47-50.844-34.822-83.758-41.76-33.993-7.165-73.794-9.42-106.428,3.535-7.682,3.05-14.965,7.133-20.761,12.667-21.832,20.841-29.317,55.765-53.644,83.366s-36.178,61.959-14.347,94.629c9.24,13.826,21.02,25.232,34.96,35.24,17.162,12.322,31.966,28.94,51.8,38.558,20.846,10.111,48.609,13.632,71.677,9,26.32-5.282,41.758-26.284,61.85-40.608,15.84-11.293,34.786-18.682,50.307-30.329,23.779-17.843,41.807-46.524,38.793-74.952C-130.032,167.319-133.818,138.632-150.109,114.983Z" transform="translate(447.969 -58)" fill="#006cbb" opacity="0.7"/>
    </g>
    <g id="Group_2371" data-name="Group 2371" transform="translate(-395.646 61.03)">
      <g id="Group_2331" data-name="Group 2331" transform="translate(0 66.598)">
        <path id="Path_1363" data-name="Path 1363" d="M-406.186,140.028c2.45-.179,7.267-2.856,7.27-2.858.05-.029-2.727-2.639-2.921-2.783-2.249-1.674-7.574-3.586-10.131-1.765a3.713,3.713,0,0,0-.468,5.506C-410.975,139.793-408.274,140.179-406.186,140.028Z" transform="translate(413.436 -89.566)" fill="#ff9e88"/>
        <path id="Path_1364" data-name="Path 1364" d="M-398.5,167.646c2.224-.788,5.911-4.34,6.2-4.623a66,66,0,0,0,6.482,5.909c1.329,1.07,2.7,2.106,4.086,3.129-.7-.373-1.335-.7-1.427-.736-2.611-1.021-8.252-1.459-10.237.973a3.714,3.714,0,0,0,1,5.435c1.849,1.22,4.556.879,6.529.18,2-.708,5.2-3.673,6.043-4.468.536.386,1.067.777,1.6,1.162,2.58,1.844,5.164,3.674,7.641,5.546.874.659,1.711,1.341,2.55,2.02-.626-.33-1.155-.6-1.239-.636-2.609-1.02-8.252-1.458-10.235.973a3.713,3.713,0,0,0,1,5.435c1.849,1.221,4.556.88,6.53.182,1.911-.676,4.891-3.386,5.89-4.327.838.721,1.68,1.441,2.459,2.177.521.515,1.059.976,1.553,1.521q.752.8,1.489,1.576c.909,1.036,1.853,2.1,2.715,3.133.6.715,1.168,1.406,1.736,2.1-.861-.667-2.576-1.935-2.732-2.026-2.424-1.4-7.935-2.691-10.265-.589a3.714,3.714,0,0,0,.168,5.524c1.642,1.486,4.37,1.559,6.426,1.168,2.264-.43,6.294-3.249,6.8-3.6.938,1.153,1.839,2.283,2.673,3.365,2.247,2.9,4.114,5.485,5.565,7.564l1.847-.973c-1.538-2.108-3.533-4.758-5.955-7.746-.947-1.176-1.983-2.412-3.059-3.673a40.545,40.545,0,0,0,2.856-3.785c2.232.791,6.821.674,7.414.655.145,1.48.274,2.921.373,4.282.267,3.553.4,6.667.464,9.164l2.008-1.056c-.124-2.342-.315-5.13-.618-8.265-.142-1.5-.324-3.106-.527-4.752.58-.167,5.311-1.549,7.065-3.047,1.591-1.359,3.241-3.533,3.109-5.744a3.713,3.713,0,0,0-4.2-3.586c-3.1.5-5.541,5.606-5.962,8.377-.024.164-.1,1.967-.123,3.1-.086-.671-.162-1.324-.259-2.015-.183-1.365-.406-2.724-.641-4.186q-.207-1.052-.418-2.126c-.124-.714-.347-1.452-.518-2.185-.433-1.691-.955-3.383-1.518-5.077,1.2-.164,5.433-.8,7.221-1.911s3.738-3,3.943-5.208a3.715,3.715,0,0,0-3.612-4.183c-3.138.027-6.327,4.7-7.164,7.379-.052.167-.436,2.153-.626,3.249-.347-1.017-.688-2.032-1.071-3.049-1.109-2.932-2.321-5.867-3.518-8.8-.368-.9-.723-1.8-1.082-2.7.426-.053,5.482-.7,7.482-1.945,1.78-1.1,3.74-3,3.944-5.208a3.714,3.714,0,0,0-3.614-4.182c-3.138.027-6.326,4.7-7.162,7.377-.062.2-.612,3.061-.715,3.794-.789-1.98-1.558-3.959-2.236-5.943a65.638,65.638,0,0,1-2.262-8.176c.2-.024,5.477-.682,7.527-1.952,1.779-1.1,3.74-3,3.944-5.208a3.714,3.714,0,0,0-3.614-4.182c-3.138.026-6.326,4.7-7.162,7.376-.065.211-.655,3.286-.721,3.853-.032-.162-.083-.324-.114-.485a47.8,47.8,0,0,1-.75-8.468c-.02-1.568.05-3.068.15-4.527,1-.021,5.546-.17,7.517-1.109,1.889-.9,4.046-2.573,4.491-4.743a3.714,3.714,0,0,0-3.132-4.555c-3.121-.318-6.8,3.98-7.929,6.547-.061.139-.526,1.627-.85,2.715.056-.658.1-1.336.167-1.965.239-2.361.606-4.508.944-6.406.2-1.079.406-2.05.606-2.956.965-.532,4.832-2.72,6.124-4.43,1.262-1.67,2.4-4.149,1.8-6.279a3.713,3.713,0,0,0-4.877-2.6c-2.917,1.156-4.2,6.667-4.021,9.464.017.241.7,3.993.75,3.965l.059-.032c-.211.868-.426,1.8-.639,2.826-.382,1.9-.8,4.041-1.088,6.406a65.734,65.734,0,0,0-.582,7.674,48.525,48.525,0,0,0,.573,8.591c.006.033.017.067.021.1-.414-.82-1.647-3.077-1.762-3.239-1.614-2.291-6.077-5.768-9.074-4.836a3.715,3.715,0,0,0-2.162,5.086c.87,2.038,3.315,3.247,5.346,3.755,2.291.57,7.324-.359,7.724-.435a65.76,65.76,0,0,0,2.146,8.5c.517,1.626,1.089,3.246,1.682,4.864-.38-.7-.726-1.32-.783-1.4-1.614-2.291-6.079-5.768-9.074-4.836a3.714,3.714,0,0,0-2.162,5.086c.868,2.038,3.315,3.247,5.346,3.753,2.061.514,6.368-.192,7.5-.394.235.618.461,1.238.7,1.855,1.133,2.962,2.279,5.914,3.314,8.841.365,1.032.686,2.062,1.012,3.091-.339-.62-.63-1.139-.682-1.214-1.614-2.291-6.079-5.768-9.074-4.835a3.712,3.712,0,0,0-2.162,5.086c.868,2.036,3.315,3.247,5.346,3.753,1.967.489,5.947-.127,7.3-.361.3,1.064.606,2.129.85,3.173.15.718.345,1.4.456,2.126q.189,1.08.373,2.135c.186,1.367.388,2.776.536,4.112.111.93.2,1.817.289,2.711-.352-1.03-1.082-3.035-1.162-3.2a14.415,14.415,0,0,0-4.979-5.306,4.445,4.445,0,0,0-.429-.7,3.712,3.712,0,0,0-5.485-.671c-2.308,2.127-1.529,7.733-.352,10.276.07.15,1,1.694,1.611,2.658-.442-.512-.867-1.015-1.329-1.536-.906-1.039-1.841-2.049-2.842-3.138l-1.523-1.544c-.5-.526-1.089-1.018-1.636-1.535-1.3-1.171-2.664-2.3-4.068-3.4.908-.8,4.09-3.668,4.968-5.577s1.462-4.567.417-6.52a3.715,3.715,0,0,0-5.321-1.494c-2.6,1.753-2.682,7.412-1.9,10.1.047.168.823,2.036,1.268,3.055-.848-.656-1.694-1.315-2.574-1.95-2.543-1.835-5.173-3.614-7.79-5.4-.8-.547-1.593-1.1-2.388-1.653.326-.279,4.182-3.612,5.167-5.75.876-1.9,1.462-4.567.417-6.52a3.715,3.715,0,0,0-5.321-1.494c-2.6,1.753-2.682,7.412-1.9,10.1.059.2,1.179,2.889,1.5,3.559-1.751-1.215-3.485-2.444-5.144-3.723a65.652,65.652,0,0,1-6.4-5.571c.152-.13,4.191-3.591,5.2-5.782.876-1.9,1.462-4.565.417-6.518a3.715,3.715,0,0,0-5.321-1.5c-2.6,1.755-2.682,7.414-1.9,10.1.061.212,1.267,3.1,1.523,3.611-.117-.117-.249-.224-.364-.341a47.972,47.972,0,0,1-5.3-6.65c-.882-1.3-1.652-2.586-2.371-3.858.818-.568,4.53-3.2,5.656-5.073,1.079-1.794,1.955-4.377,1.13-6.433a3.714,3.714,0,0,0-5.124-2.07c-2.78,1.456-3.48,7.073-3,9.834.026.15.459,1.647.789,2.733-.317-.579-.653-1.17-.945-1.73-1.1-2.1-1.982-4.094-2.747-5.865-.426-1.011-.792-1.932-1.126-2.8.514-.976,2.53-4.933,2.665-7.074.132-2.088-.282-4.786-1.962-6.23a3.714,3.714,0,0,0-5.5.524c-1.8,2.574.171,7.88,1.867,10.112.147.192,2.786,2.944,2.814,2.893l.03-.059c.3.841.639,1.738,1.026,2.711.727,1.791,1.567,3.809,2.627,5.943a66.162,66.162,0,0,0,3.747,6.721,48.376,48.376,0,0,0,5.218,6.85c.023.024.05.047.074.073-.8-.458-3.073-1.658-3.258-1.73-2.611-1.02-8.253-1.459-10.237.973a3.713,3.713,0,0,0,1,5.435C-403.182,168.684-400.476,168.343-398.5,167.646Z" transform="translate(414.869 -103.954)" fill="#ff9e88"/>
        <path id="Path_1365" data-name="Path 1365" d="M-371.719,124.57c.058,0-.818-3.706-.9-3.933-.952-2.636-4.338-7.17-7.474-7.061a3.715,3.715,0,0,0-3.429,4.335c.3,2.2,2.339,4.008,4.165,5.032C-377.216,124.146-371.722,124.57-371.719,124.57Z" transform="translate(428.828 -98.998)" fill="#ff9e88"/>
      </g>
      <g id="Group_2332" data-name="Group 2332" transform="translate(189.521 173.16)">
        <path id="Path_1366" data-name="Path 1366" d="M-249.667,201.1c-1.821-.133-5.4-2.123-5.4-2.124-.038-.021,2.027-1.962,2.171-2.07,1.671-1.244,5.63-2.665,7.53-1.312a2.76,2.76,0,0,1,.349,4.094C-246.108,200.926-248.116,201.212-249.667,201.1Z" transform="translate(305.503 -163.587)" fill="#ff9e88"/>
        <path id="Path_1367" data-name="Path 1367" d="M-239.3,221.631c-1.655-.585-4.394-3.226-4.611-3.436a48.827,48.827,0,0,1-4.82,4.392c-.986.8-2,1.567-3.036,2.326.523-.276.991-.52,1.061-.547,1.941-.759,6.135-1.083,7.609.723a2.761,2.761,0,0,1-.744,4.041c-1.374.908-3.388.653-4.855.135-1.488-.527-3.87-2.73-4.491-3.323-.4.288-.794.579-1.194.864-1.918,1.371-3.838,2.732-5.68,4.123-.65.491-1.271,1-1.9,1.5.465-.245.858-.447.921-.473,1.939-.759,6.135-1.085,7.609.723a2.761,2.761,0,0,1-.745,4.041c-1.374.908-3.386.653-4.853.135a17.6,17.6,0,0,1-4.379-3.217c-.623.535-1.249,1.071-1.829,1.618-.386.383-.786.726-1.155,1.13l-1.106,1.173c-.676.77-1.379,1.561-2.02,2.329-.448.53-.868,1.045-1.291,1.562.641-.5,1.917-1.439,2.032-1.506,1.8-1.044,5.9-2,7.631-.438a2.76,2.76,0,0,1-.124,4.106c-1.221,1.106-3.249,1.161-4.777.87-1.683-.321-4.679-2.415-5.052-2.68-.7.858-1.367,1.7-1.986,2.5-1.671,2.158-3.058,4.079-4.138,5.624l-1.373-.723c1.142-1.567,2.627-3.538,4.427-5.759.7-.873,1.474-1.792,2.274-2.729a30.385,30.385,0,0,1-2.124-2.814,20.283,20.283,0,0,1-5.511.486c-.109,1.1-.2,2.17-.277,3.182-.2,2.642-.3,4.956-.345,6.814l-1.492-.786c.092-1.741.235-3.814.461-6.144.106-1.118.241-2.309.391-3.532-.43-.124-3.947-1.152-5.252-2.265-1.183-1.011-2.409-2.627-2.312-4.271a2.76,2.76,0,0,1,3.126-2.665c2.3.373,4.12,4.168,4.433,6.227.018.121.071,1.462.091,2.308.064-.5.121-.983.192-1.5.136-1.015.3-2.026.476-3.112q.155-.782.312-1.582c.092-.529.258-1.077.385-1.623.323-1.258.711-2.515,1.129-3.774-.889-.123-4.039-.6-5.368-1.421s-2.779-2.232-2.932-3.871a2.762,2.762,0,0,1,2.686-3.109c2.332.02,4.7,3.5,5.324,5.485.039.123.324,1.6.467,2.415.258-.756.511-1.511.8-2.267.824-2.179,1.726-4.361,2.615-6.541.274-.668.538-1.336.8-2-.317-.039-4.074-.524-5.562-1.447-1.323-.818-2.78-2.23-2.932-3.871a2.76,2.76,0,0,1,2.686-3.108c2.332.02,4.7,3.5,5.324,5.483.047.15.455,2.276.532,2.821.586-1.473,1.158-2.944,1.662-4.418a48.611,48.611,0,0,0,1.682-6.077c-.149-.018-4.071-.508-5.6-1.452-1.323-.82-2.78-2.232-2.932-3.871a2.761,2.761,0,0,1,2.686-3.109c2.332.02,4.7,3.5,5.324,5.485.048.156.486,2.442.536,2.864.024-.12.062-.242.085-.361a35.563,35.563,0,0,0,.556-6.3c.015-1.167-.036-2.282-.112-3.365-.739-.015-4.121-.126-5.586-.824-1.4-.67-3.008-1.914-3.339-3.526a2.762,2.762,0,0,1,2.329-3.386c2.321-.236,5.058,2.959,5.894,4.867.045.1.391,1.209.632,2.018-.041-.488-.074-.992-.123-1.461-.179-1.755-.452-3.35-.7-4.762-.15-.8-.3-1.524-.45-2.2-.718-.4-3.591-2.021-4.553-3.294-.938-1.241-1.788-3.083-1.338-4.667a2.76,2.76,0,0,1,3.626-1.932c2.168.859,3.126,4.956,2.989,7.035-.012.18-.52,2.968-.558,2.947l-.044-.023c.156.645.317,1.339.476,2.1.283,1.409.591,3,.808,4.762a48.811,48.811,0,0,1,.433,5.7,36.051,36.051,0,0,1-.426,6.387c0,.026-.012.052-.017.076.308-.611,1.226-2.288,1.311-2.409,1.2-1.7,4.518-4.288,6.746-3.594a2.761,2.761,0,0,1,1.608,3.78c-.645,1.515-2.464,2.414-3.974,2.791-1.7.424-5.444-.267-5.741-.323a49.164,49.164,0,0,1-1.6,6.323c-.385,1.208-.809,2.412-1.252,3.615.283-.52.541-.982.583-1.042,1.2-1.7,4.518-4.288,6.746-3.6a2.761,2.761,0,0,1,1.608,3.782c-.645,1.515-2.464,2.414-3.974,2.789-1.532.382-4.733-.142-5.579-.292-.174.459-.342.92-.518,1.379-.844,2.2-1.7,4.4-2.464,6.573-.271.767-.511,1.532-.752,2.3.251-.461.467-.847.506-.9,1.2-1.7,4.518-4.29,6.746-3.6a2.76,2.76,0,0,1,1.608,3.78c-.645,1.515-2.465,2.415-3.974,2.791-1.462.365-4.421-.094-5.427-.268-.223.791-.45,1.583-.63,2.359-.112.533-.258,1.039-.339,1.58s-.186,1.064-.277,1.588c-.139,1.015-.288,2.062-.4,3.056-.082.691-.149,1.352-.215,2.015.261-.767.8-2.256.864-2.376a10.691,10.691,0,0,1,3.7-3.944,3.234,3.234,0,0,1,.318-.523,2.759,2.759,0,0,1,4.077-.5c1.715,1.58,1.136,5.749.262,7.638-.051.112-.747,1.259-1.2,1.976.329-.38.642-.755.986-1.142.674-.771,1.368-1.523,2.114-2.333l1.132-1.147c.37-.391.809-.758,1.217-1.141.962-.871,1.98-1.708,3.024-2.526-.674-.592-3.039-2.727-3.694-4.147s-1.086-3.394-.309-4.846a2.76,2.76,0,0,1,3.955-1.112c1.935,1.3,1.994,5.511,1.417,7.512-.036.124-.612,1.514-.944,2.271.632-.488,1.259-.977,1.914-1.45,1.889-1.364,3.846-2.686,5.791-4.014.6-.406,1.183-.818,1.776-1.227-.242-.209-3.109-2.686-3.841-4.276-.652-1.414-1.088-3.394-.311-4.846a2.762,2.762,0,0,1,3.956-1.112c1.935,1.3,1.994,5.511,1.415,7.512-.044.15-.876,2.149-1.112,2.646,1.3-.9,2.589-1.817,3.824-2.767a48.684,48.684,0,0,0,4.755-4.142c-.114-.1-3.117-2.668-3.867-4.3-.652-1.414-1.086-3.394-.309-4.846a2.76,2.76,0,0,1,3.955-1.112c1.935,1.3,1.994,5.511,1.415,7.512-.044.156-.941,2.306-1.132,2.683.086-.086.185-.167.27-.253a35.662,35.662,0,0,0,3.938-4.944c.655-.965,1.227-1.923,1.762-2.868-.608-.421-3.368-2.38-4.2-3.77-.8-1.333-1.453-3.255-.839-4.783a2.761,2.761,0,0,1,3.809-1.539c2.065,1.083,2.586,5.258,2.232,7.311-.02.112-.341,1.224-.586,2.032.235-.43.485-.87.7-1.286.818-1.562,1.473-3.043,2.041-4.359.317-.752.589-1.438.836-2.08-.38-.726-1.88-3.668-1.98-5.259-.1-1.553.211-3.558,1.459-4.632a2.76,2.76,0,0,1,4.089.389c1.335,1.914-.127,5.859-1.388,7.517-.109.144-2.071,2.188-2.091,2.152l-.023-.044c-.226.624-.476,1.291-.764,2.014-.541,1.332-1.164,2.832-1.952,4.418a49.233,49.233,0,0,1-2.786,5,36,36,0,0,1-3.879,5.091c-.018.02-.038.036-.055.055.592-.339,2.283-1.232,2.421-1.286,1.939-.758,6.135-1.083,7.609.723a2.761,2.761,0,0,1-.745,4.041C-235.819,222.4-237.831,222.149-239.3,221.631Z" transform="translate(288.356 -174.283)" fill="#ff9e88"/>
        <path id="Path_1368" data-name="Path 1368" d="M-275.967,189.608c-.042,0,.609-2.755.671-2.924.706-1.959,3.224-5.329,5.556-5.249a2.761,2.761,0,0,1,2.549,3.223c-.223,1.632-1.739,2.979-3.1,3.741C-271.879,189.293-275.964,189.608-275.967,189.608Z" transform="translate(294.737 -170.599)" fill="#ff9e88"/>
      </g>
      <g id="Group_2333" data-name="Group 2333" transform="translate(9.682 0.482)">
        <circle id="Ellipse_64" data-name="Ellipse 64" cx="20.34" cy="20.34" r="20.34" transform="translate(0 15.663) rotate(-22.646)" fill="none" stroke="#066696" stroke-linecap="round" stroke-linejoin="round" stroke-width="0.293"/>
        <path id="Path_1369" data-name="Path 1369" d="M-372.978,74.557l-5.944,3.43V75.174a2.423,2.423,0,0,0-2.423-2.423h-13.419a2.423,2.423,0,0,0-2.423,2.423V85.983a2.423,2.423,0,0,0,2.423,2.423h13.419a2.423,2.423,0,0,0,2.423-2.423V83.169l5.944,3.432Z" transform="translate(412.126 -53.913)" fill="none" stroke="#066696" stroke-miterlimit="10" stroke-width="0.404"/>
      </g>
      <g id="Group_2334" data-name="Group 2334" transform="translate(221.323 107.188)">
        <circle id="Ellipse_65" data-name="Ellipse 65" cx="13.049" cy="13.049" r="13.049" transform="translate(0 5.996) rotate(-13.283)" fill="none" stroke="#066696" stroke-linecap="round" stroke-linejoin="round" stroke-width="0.293"/>
        <path id="Path_1370" data-name="Path 1370" d="M-247.307,139.282h-13.211a2.493,2.493,0,0,0-2.452,2.947l.383,2.067a.617.617,0,0,0,.606.5H-258a.616.616,0,0,0,.617-.617v-2.244h6.944v2.244a.616.616,0,0,0,.617.617h3.979a.617.617,0,0,0,.606-.5l.383-2.067A2.493,2.493,0,0,0-247.307,139.282Z" transform="translate(269.61 -126.343)" fill="none" stroke="#066696" stroke-miterlimit="10" stroke-width="0.404"/>
      </g>
      <g id="Group_2364" data-name="Group 2364" transform="translate(67.243)">
        <g id="Group_2363" data-name="Group 2363">
          <g id="Group_2337" data-name="Group 2337" transform="translate(3.909 5.811)">
            <path id="Path_1371" data-name="Path 1371" d="M-246.683,63.835h-43.878l-1.826,3.385a11.283,11.283,0,0,1-9.953,5.859A11.285,11.285,0,0,1-312.3,67.22l-1.824-3.385H-358a8.369,8.369,0,0,0-8.477,8.256V298.057A8.369,8.369,0,0,0-358,306.313h111.316a8.369,8.369,0,0,0,8.479-8.256V72.091A8.37,8.37,0,0,0-246.683,63.835Z" transform="translate(366.477 -63.835)" fill="#d6d6d6"/>
            <g id="Group_2335" data-name="Group 2335" transform="translate(110.6 3.248)">
              <rect id="Rectangle_1510" data-name="Rectangle 1510" width="8.848" height="4.852" fill="none" stroke="#1a2e35" stroke-linecap="round" stroke-linejoin="round" stroke-width="0.332"/>
              <rect id="Rectangle_1511" data-name="Rectangle 1511" width="6.9" height="4.852" fill="#1a2e35" stroke="#1a2e35" stroke-linecap="round" stroke-linejoin="round" stroke-width="0.293"/>
              <rect id="Rectangle_1512" data-name="Rectangle 1512" width="1.246" height="2.137" transform="translate(8.829 1.358)" fill="#1a2e35" stroke="#1a2e35" stroke-linecap="round" stroke-linejoin="round" stroke-width="0.293"/>
            </g>
            <g id="Group_2336" data-name="Group 2336" transform="translate(7.306 2.623)">
              <rect id="Rectangle_1513" data-name="Rectangle 1513" width="1.622" height="2.781" transform="translate(0 2.13)" fill="#1a2e35" stroke="#1a2e35" stroke-linecap="round" stroke-linejoin="round" stroke-width="0.357"/>
              <rect id="Rectangle_1514" data-name="Rectangle 1514" width="1.622" height="3.757" transform="translate(2.549 1.154)" fill="#1a2e35" stroke="#1a2e35" stroke-linecap="round" stroke-linejoin="round" stroke-width="0.357"/>
              <rect id="Rectangle_1515" data-name="Rectangle 1515" width="1.622" height="4.911" transform="translate(5.098)" fill="#1a2e35" stroke="#1a2e35" stroke-linecap="round" stroke-linejoin="round" stroke-width="0.357"/>
            </g>
            <line id="Line_139" data-name="Line 139" x2="120.4" transform="translate(3.925 9.759)" fill="none" stroke="#1a2e35" stroke-linecap="round" stroke-linejoin="round" stroke-width="0.404"/>
          </g>
          <g id="Group_2353" data-name="Group 2353" transform="translate(2.264 57.527)">
            <path id="Path_1372" data-name="Path 1372" d="M-279.414,196.6c-.37-2.758-.829-5.826-1.189-8.159a30.736,30.736,0,0,0,5.868-14,91.563,91.563,0,0,0,.038-13.337,6.118,6.118,0,0,0,1.967-2.658c1.27-3.038,5.556-12.582.594-15.422a4.06,4.06,0,0,0-2.868-.652,25.3,25.3,0,0,1,1.714-6.046c2.6-5.776,7.508-11.261,5.486-19.346s-10.684-12.415-13.282-8.952-2.6,6.353-7.508,2.6-11.838-8.952-22.52-6.064-11.84,5.485-6.641,10.971c0,0-17.037-.867-21.367,8.662-3.039,6.687,2.024,9.674,5.217,11.362a2.005,2.005,0,0,0-.947.9l-8.555,16.623,2.152-22.234a2.557,2.557,0,0,0-2.262-2.786,2.555,2.555,0,0,0-2.777,1.992l-5.133,22.534-1.718-.223,1.077-22.569a2.5,2.5,0,0,0-2.636-2.632,2.5,2.5,0,0,0-2.33,2.091L-360.5,151.93l-3.126-.182V133.734a2.485,2.485,0,0,0-2.85-2.458V209l.427-.779,1.624,1.256,8.512-11.706-3.312-1.7c2.983-5,7.226-12.509,7.226-12.509s8.324-1.486,10.718-5.743,3.991-9.577,6.917-13.568,5.586-5.587,6.652-8.779c.009-.03.014-.056.023-.086a37.13,37.13,0,0,0,5.024,7.785c1.543,1.982,3.583,2.782,4.467,1.771q.123.939.247,1.9c1.009,5.044,2.173,9.715,3.371,12.212a23.352,23.352,0,0,0,4.29,5.841,2.286,2.286,0,0,0-3.108.761,8.575,8.575,0,0,0-1.418,2.4c-2.241,5.324-7.267,11.623-6.85,15.411.014.112.023.273.035.471-5.808.5-20.64,1.936-22.887,3.732-1.609,1.288-12.761,11.959-21.958,20.808v43.954l19.519-11.861,3.34,25.195h87.728V199.9c-9.79-1.771-22.779-3.433-22.779-3.433Zm-47.871-48.151a4.812,4.812,0,0,0-1.161,4.488c-1.012-.271-2.718.3-4.588,1.741-3.458,2.661-6.917,5.587-6.917,5.587l6.44-16.276c.053.044.1.088.162.13,2.52,1.832,5.577,2.756,6.88,3.636A6.433,6.433,0,0,0-327.285,148.445Z" transform="translate(368.122 -95.004)" opacity="0.2"/>
            <g id="Group_2352" data-name="Group 2352">
              <g id="Group_2339" data-name="Group 2339" transform="translate(1.06 98.181)">
                <path id="Path_1373" data-name="Path 1373" d="M-329.35,257.491h92.845V166.4c-10.362-1.876-24.114-3.635-24.114-3.635l-43.012,7.712s-23.729,1.78-26.7,4.153-36.536,34.843-36.536,34.843v41.789l33.952-20.629Z" transform="translate(366.863 -162.765)" fill="#0c7ca8"/>
                <g id="Group_2338" data-name="Group 2338" transform="translate(0 13.296)">
                  <path id="Path_1374" data-name="Path 1374" d="M-303.142,220.134a.342.342,0,0,0,.014.482l5.183,4.877a.335.335,0,0,0,.233.092.339.339,0,0,0,.247-.108.339.339,0,0,0-.015-.48l-5.182-4.877A.34.34,0,0,0-303.142,220.134Z" transform="translate(399.644 -146.56)" fill="#02445e"/>
                  <path id="Path_1375" data-name="Path 1375" d="M-296.15,195.573a.343.343,0,0,0-.482.017l-3.379,3.621a.329.329,0,0,0-.083-.264.339.339,0,0,0-.48-.024l-3.353,3.049a.34.34,0,0,0-.024.48.337.337,0,0,0,.251.112.339.339,0,0,0,.229-.088l2.724-2.476-.152.162a.339.339,0,0,0,.017.48.334.334,0,0,0,.232.092.338.338,0,0,0,.249-.109l4.267-4.571A.342.342,0,0,0-296.15,195.573Z" transform="translate(399.229 -159.205)" fill="#02445e"/>
                  <path id="Path_1376" data-name="Path 1376" d="M-299.464,180.117a.344.344,0,0,0-.479-.053l-4.571,3.658a.34.34,0,0,0-.053.479.339.339,0,0,0,.265.127.335.335,0,0,0,.212-.074l4.573-3.658A.341.341,0,0,0-299.464,180.117Z" transform="translate(398.918 -167.186)" fill="#02445e"/>
                  <path id="Path_1377" data-name="Path 1377" d="M-341.677,178.9l4.268-4.571a.341.341,0,0,0-.017-.48.342.342,0,0,0-.482.015l-4.268,4.573a.341.341,0,0,0,.017.48.34.34,0,0,0,.233.092A.336.336,0,0,0-341.677,178.9Z" transform="translate(379.535 -170.4)" fill="#02445e"/>
                  <path id="Path_1378" data-name="Path 1378" d="M-303.747,192.992a.338.338,0,0,0,.247-.106.342.342,0,0,0-.014-.482l-5.182-4.877a.34.34,0,0,0-.482.015.339.339,0,0,0,.015.48l5.182,4.877A.335.335,0,0,0-303.747,192.992Z" transform="translate(396.534 -163.352)" fill="#02445e"/>
                  <path id="Path_1379" data-name="Path 1379" d="M-311.839,201.766a.208.208,0,0,0,.044,0,.34.34,0,0,0,.294-.38l-.914-7.012a.343.343,0,0,0-.382-.294.342.342,0,0,0-.294.382l.915,7.011A.339.339,0,0,0-311.839,201.766Z" transform="translate(394.565 -159.931)" fill="#02445e"/>
                  <path id="Path_1380" data-name="Path 1380" d="M-305.917,214.9l-4.267,4.573a.339.339,0,0,0,.017.48.34.34,0,0,0,.232.091.342.342,0,0,0,.249-.108l4.267-4.573a.339.339,0,0,0-.017-.48A.341.341,0,0,0-305.917,214.9Z" transform="translate(396.016 -149.254)" fill="#02445e"/>
                  <path id="Path_1381" data-name="Path 1381" d="M-341.292,202.674a.37.37,0,0,0,.132-.026.341.341,0,0,0,.182-.445l-3.049-7.317a.341.341,0,0,0-.444-.183.34.34,0,0,0-.183.445l3.049,7.317A.34.34,0,0,0-341.292,202.674Z" transform="translate(378.291 -159.62)" fill="#02445e"/>
                  <path id="Path_1382" data-name="Path 1382" d="M-298.266,216.922a.338.338,0,0,0,.212-.074l4.573-3.658a.341.341,0,0,0,.053-.479.341.341,0,0,0-.479-.053l-4.571,3.658a.342.342,0,0,0-.055.479A.344.344,0,0,0-298.266,216.922Z" transform="translate(402.028 -150.395)" fill="#02445e"/>
                  <path id="Path_1383" data-name="Path 1383" d="M-298.756,186.436a.343.343,0,0,0-.445-.183.34.34,0,0,0-.183.445l3.047,7.315a.341.341,0,0,0,.315.211.358.358,0,0,0,.13-.026.34.34,0,0,0,.183-.445Z" transform="translate(401.613 -163.973)" fill="#02445e"/>
                  <path id="Path_1384" data-name="Path 1384" d="M-297.553,215.045l.044,0a.341.341,0,0,0,.294-.382l-.915-7.011a.341.341,0,0,0-.38-.294.34.34,0,0,0-.294.382l.914,7.011A.342.342,0,0,0-297.553,215.045Z" transform="translate(401.924 -153.09)" fill="#02445e"/>
                  <path id="Path_1385" data-name="Path 1385" d="M-365.607,219.816a.34.34,0,0,0,.024-.48.341.341,0,0,0-.482-.024l-.8.726v.92Z" transform="translate(366.863 -146.974)" fill="#02445e"/>
                  <path id="Path_1386" data-name="Path 1386" d="M-354.447,195.991a.34.34,0,0,0,.015.48l5.182,4.879a.348.348,0,0,0,.233.092.342.342,0,0,0,.249-.108.338.338,0,0,0-.015-.48l-5.182-4.879A.342.342,0,0,0-354.447,195.991Z" transform="translate(373.212 -158.998)" fill="#02445e"/>
                  <path id="Path_1387" data-name="Path 1387" d="M-348.782,185.936a.34.34,0,0,0-.48-.023l-3.355,3.049a.341.341,0,0,0-.023.48.342.342,0,0,0,.252.112.344.344,0,0,0,.23-.089l3.353-3.049A.341.341,0,0,0-348.782,185.936Z" transform="translate(374.145 -164.181)" fill="#02445e"/>
                  <path id="Path_1388" data-name="Path 1388" d="M-345.17,181.828a.34.34,0,0,0,.314.209.356.356,0,0,0,.13-.026.34.34,0,0,0,.183-.445l-2.749-6.6-.527.5Z" transform="translate(376.674 -169.773)" fill="#02445e"/>
                  <path id="Path_1389" data-name="Path 1389" d="M-344.732,188.567a.343.343,0,0,0-.479-.053l-4.573,3.658a.341.341,0,0,0-.053.479.342.342,0,0,0,.267.127.342.342,0,0,0,.212-.074l4.571-3.658A.342.342,0,0,0-344.732,188.567Z" transform="translate(375.596 -162.833)" fill="#02445e"/>
                  <path id="Path_1390" data-name="Path 1390" d="M-345.843,206.233l-3.353,3.05a.339.339,0,0,0-.023.48.336.336,0,0,0,.251.111.339.339,0,0,0,.229-.088l3.353-3.049a.339.339,0,0,0,.023-.48A.339.339,0,0,0-345.843,206.233Z" transform="translate(375.907 -153.712)" fill="#02445e"/>
                  <path id="Path_1391" data-name="Path 1391" d="M-357.108,210.216a.227.227,0,0,0,.045,0,.338.338,0,0,0,.292-.38l-.914-7.012a.344.344,0,0,0-.382-.294.339.339,0,0,0-.292.382l.914,7.012A.34.34,0,0,0-357.108,210.216Z" transform="translate(371.243 -155.578)" fill="#02445e"/>
                  <path id="Path_1392" data-name="Path 1392" d="M-361.24,195.906a.34.34,0,0,0,.249-.108l4.268-4.573a.34.34,0,0,0-.017-.48.339.339,0,0,0-.48.017l-4.268,4.573a.339.339,0,0,0,.017.48A.339.339,0,0,0-361.24,195.906Z" transform="translate(369.584 -161.693)" fill="#02445e"/>
                  <path id="Path_1393" data-name="Path 1393" d="M-366.863,203.359l1.546-1.235a.343.343,0,0,0,.053-.479.343.343,0,0,0-.479-.053l-1.12.9Z" transform="translate(366.863 -156.096)" fill="#02445e"/>
                  <path id="Path_1394" data-name="Path 1394" d="M-363.786,207.781a.342.342,0,0,0-.183.445l3.049,7.317a.342.342,0,0,0,.315.209.363.363,0,0,0,.13-.026.342.342,0,0,0,.183-.445l-3.049-7.317A.343.343,0,0,0-363.786,207.781Z" transform="translate(368.341 -152.882)" fill="#02445e"/>
                  <path id="Path_1395" data-name="Path 1395" d="M-339.14,222.573a.338.338,0,0,0,.233.092.338.338,0,0,0,.248-.109l4.268-4.571a.341.341,0,0,0-.017-.48.34.34,0,0,0-.482.017l-4.268,4.571A.341.341,0,0,0-339.14,222.573Z" transform="translate(381.09 -147.907)" fill="#02445e"/>
                  <path id="Path_1396" data-name="Path 1396" d="M-321.693,221.645a.342.342,0,0,0-.445-.183.342.342,0,0,0-.183.445l2.233,5.358h.738Z" transform="translate(389.797 -145.834)" fill="#02445e"/>
                  <path id="Path_1397" data-name="Path 1397" d="M-331.633,222.735a.341.341,0,0,0-.48.015.339.339,0,0,0,.015.48l3.624,3.412h.994Z" transform="translate(384.718 -145.212)" fill="#02445e"/>
                  <path id="Path_1398" data-name="Path 1398" d="M-294.412,200.805a.339.339,0,0,0-.48.015.339.339,0,0,0,.015.48l5.182,4.877a.334.334,0,0,0,.232.092.338.338,0,0,0,.249-.106.34.34,0,0,0-.015-.482Z" transform="translate(403.894 -156.51)" fill="#02445e"/>
                  <path id="Path_1399" data-name="Path 1399" d="M-311.471,182.3a.34.34,0,0,0-.48.017l-4.268,4.571a.34.34,0,0,0,.017.482.34.34,0,0,0,.232.091.34.34,0,0,0,.249-.108l4.268-4.573A.34.34,0,0,0-311.471,182.3Z" transform="translate(392.906 -166.046)" fill="#02445e"/>
                  <path id="Path_1400" data-name="Path 1400" d="M-329.7,184.542a.335.335,0,0,0,.247-.106.342.342,0,0,0-.014-.482l-5.183-4.877a.34.34,0,0,0-.48.014.34.34,0,0,0,.015.482l5.182,4.877A.338.338,0,0,0-329.7,184.542Z" transform="translate(383.163 -167.705)" fill="#02445e"/>
                  <path id="Path_1401" data-name="Path 1401" d="M-331.757,216.051a.423.423,0,0,0,.044,0,.341.341,0,0,0,.294-.382l-.915-7.011a.34.34,0,0,0-.38-.294.341.341,0,0,0-.294.382l.915,7.011A.34.34,0,0,0-331.757,216.051Z" transform="translate(384.303 -152.572)" fill="#02445e"/>
                  <path id="Path_1402" data-name="Path 1402" d="M-286.289,211.062l-3.355,3.049a.34.34,0,0,0-.023.48.337.337,0,0,0,.252.112.339.339,0,0,0,.229-.088l3.355-3.05a.34.34,0,0,0,.023-.48A.34.34,0,0,0-286.289,211.062Z" transform="translate(406.588 -151.224)" fill="#02445e"/>
                  <path id="Path_1403" data-name="Path 1403" d="M-284.473,199.715a.342.342,0,0,0-.444-.183.34.34,0,0,0-.183.445l3.047,7.315a.339.339,0,0,0,.315.209.329.329,0,0,0,.13-.026.341.341,0,0,0,.183-.445Z" transform="translate(408.973 -157.132)" fill="#02445e"/>
                  <path id="Path_1404" data-name="Path 1404" d="M-285.179,193.4a.341.341,0,0,0-.479-.053L-290.231,197a.343.343,0,0,0-.053.479.344.344,0,0,0,.267.127.338.338,0,0,0,.212-.074l4.573-3.659A.339.339,0,0,0-285.179,193.4Z" transform="translate(406.277 -160.345)" fill="#02445e"/>
                  <path id="Path_1405" data-name="Path 1405" d="M-293.166,218.845a.34.34,0,0,0-.183.445l3.047,7.317a.342.342,0,0,0,.315.209.356.356,0,0,0,.13-.026.34.34,0,0,0,.183-.445l-3.047-7.315A.345.345,0,0,0-293.166,218.845Z" transform="translate(404.723 -147.181)" fill="#02445e"/>
                  <path id="Path_1406" data-name="Path 1406" d="M-331.374,197.061a.339.339,0,0,0-.017-.48.339.339,0,0,0-.48.015l-4.268,4.573a.341.341,0,0,0,.017.48.339.339,0,0,0,.232.092.339.339,0,0,0,.25-.109Z" transform="translate(382.645 -158.687)" fill="#02445e"/>
                  <path id="Path_1407" data-name="Path 1407" d="M-319.382,194.4a.341.341,0,0,0-.479-.053l-4.571,3.658a.342.342,0,0,0-.055.479.344.344,0,0,0,.267.127.338.338,0,0,0,.212-.074l4.573-3.658A.341.341,0,0,0-319.382,194.4Z" transform="translate(388.657 -159.827)" fill="#02445e"/>
                  <path id="Path_1408" data-name="Path 1408" d="M-320.492,212.068l-3.353,3.049a.339.339,0,0,0-.024.48.337.337,0,0,0,.251.112.339.339,0,0,0,.229-.088l3.353-3.05a.34.34,0,0,0,.024-.48A.34.34,0,0,0-320.492,212.068Z" transform="translate(388.968 -150.706)" fill="#02445e"/>
                  <path id="Path_1409" data-name="Path 1409" d="M-329.654,192.974a.339.339,0,0,0,.229-.088l3.355-3.05a.34.34,0,0,0,.023-.48.34.34,0,0,0-.48-.023l-3.355,3.049a.341.341,0,0,0-.023.48A.34.34,0,0,0-329.654,192.974Z" transform="translate(385.858 -162.419)" fill="#02445e"/>
                  <path id="Path_1410" data-name="Path 1410" d="M-319.121,200.538a.342.342,0,0,0-.183.445l3.049,7.315a.339.339,0,0,0,.315.209.328.328,0,0,0,.13-.026.34.34,0,0,0,.183-.445l-3.049-7.315A.343.343,0,0,0-319.121,200.538Z" transform="translate(391.351 -156.614)" fill="#02445e"/>
                  <path id="Path_1411" data-name="Path 1411" d="M-325.418,171.667a.341.341,0,0,0-.479-.053l-4.571,3.658a.34.34,0,0,0-.053.479.339.339,0,0,0,.265.127.338.338,0,0,0,.212-.074l4.573-3.658A.341.341,0,0,0-325.418,171.667Z" transform="translate(385.547 -171.54)" fill="#02445e"/>
                  <path id="Path_1412" data-name="Path 1412" d="M-325.156,177.8a.34.34,0,0,0-.183.445l3.047,7.315a.34.34,0,0,0,.315.209.328.328,0,0,0,.13-.026.338.338,0,0,0,.183-.444l-3.047-7.317A.344.344,0,0,0-325.156,177.8Z" transform="translate(388.242 -168.326)" fill="#02445e"/>
                  <path id="Path_1413" data-name="Path 1413" d="M-327.238,219.539a.343.343,0,0,0,.212-.076l4.573-3.658a.34.34,0,0,0,.053-.479.339.339,0,0,0-.477-.053l-4.574,3.659a.339.339,0,0,0-.053.477A.341.341,0,0,0-327.238,219.539Z" transform="translate(387.102 -149.047)" fill="#02445e"/>
                  <path id="Path_1414" data-name="Path 1414" d="M-337.792,193.316a.4.4,0,0,0,.044,0,.341.341,0,0,0,.294-.382l-.915-7.011a.34.34,0,0,0-.38-.294.341.341,0,0,0-.294.382l.915,7.011A.34.34,0,0,0-337.792,193.316Z" transform="translate(381.193 -164.285)" fill="#02445e"/>
                  <path id="Path_1415" data-name="Path 1415" d="M-323.9,207.184a.335.335,0,0,0,.233.092.337.337,0,0,0,.247-.106.342.342,0,0,0-.014-.482l-5.183-4.877a.34.34,0,0,0-.48.014.342.342,0,0,0,.014.482Z" transform="translate(386.273 -155.992)" fill="#02445e"/>
                </g>
                <path id="Path_1416" data-name="Path 1416" d="M-329.35,257.491h92.845V166.4c-10.362-1.876-24.114-3.635-24.114-3.635l-43.012,7.712s-23.729,1.78-26.7,4.153-36.536,34.843-36.536,34.843v41.789l33.952-20.629Z" transform="translate(366.863 -162.765)" fill="none" stroke="#1a2e35" stroke-linecap="round" stroke-linejoin="round" stroke-width="0.404"/>
              </g>
              <g id="Group_2342" data-name="Group 2342" transform="translate(61.761 81.273)">
                <path id="Path_1417" data-name="Path 1417" d="M-296.168,184.425s-6.526,12.161-9.79,22.84-8.6,40.934-8.6,40.934h28.773s2.965-37.968,8.008-51.019,5.636-15.425,5.636-15.425Z" transform="translate(333.108 -136.074)" fill="#ff905f" stroke="#1a2e35" stroke-linecap="round" stroke-linejoin="round" stroke-width="0.404"/>
                <path id="Path_1418" data-name="Path 1418" d="M-321.447,179.567s14.091,12.955,30,18.182,26.726-6.346,27.681-10.332-27,.332-39.272-3.759S-322.811,175.022-321.447,179.567Z" transform="translate(329.478 -138.177)" fill="#1a2e35" stroke="#1a2e35" stroke-linecap="round" stroke-linejoin="round" stroke-width="0.404"/>
                <path id="Path_1419" data-name="Path 1419" d="M-314.636,156.536s-2.67-2.67-5.042,2.967c-2.164,5.136-6.63,17.829-6.823,17.2,1.186,3.856-.592,9.491,9.788,17.5s26.875,13.941,36.189,13.941c10.087,0,16.908-2.967,19.281-7.415s2.67-9.788,2.67-13.349-.889-6.821-2.67-11.865-10.678-10.085-14.831-14.831-.3-3.559-8.9-6.823-19.578-1.779-22.84-1.186S-314.636,156.536-314.636,156.536Z" transform="translate(326.956 -151.493)" fill="#1a2e35" stroke="#1a2e35" stroke-linecap="round" stroke-linejoin="round" stroke-width="0.404"/>
                <g id="Group_2340" data-name="Group 2340" transform="translate(11.726)">
                  <path id="Path_1420" data-name="Path 1420" d="M-319.062,151.606s1.186,17.2,2.077,21.95,18.687,14.832,24.916,14.238,7.12-9.493,6.526-15.128-2.373-16.611-2.373-16.611-16.611,5.34-22.543.592S-319.062,151.606-319.062,151.606Z" transform="translate(319.062 -151.606)" fill="#ffc8b0" stroke="#1a2e35" stroke-linecap="round" stroke-linejoin="round" stroke-width="0.404"/>
                  <path id="Path_1421" data-name="Path 1421" d="M-316.826,169.947a108.235,108.235,0,0,0,22.964-5.814l6.45-4.893c-.3-1.908-.5-3.185-.5-3.185s-16.611,5.338-22.543.592-8.6-5.043-8.6-5.043.8,11.621,1.582,18.4C-317.262,169.985-317.047,169.978-316.826,169.947Z" transform="translate(319.062 -151.606)" fill="#1a2e35" stroke="#1a2e35" stroke-linecap="round" stroke-linejoin="round" stroke-width="0.404"/>
                </g>
                <g id="Group_2341" data-name="Group 2341" transform="translate(0 5.465)">
                  <path id="Path_1422" data-name="Path 1422" d="M-262.9,170.78c.285,2.462.082,7.318-5.6,8.631-7.712,1.78-25.51,0-37.672-5.932-10.459-5.1-11.7-15.464-11.846-18.266a9.025,9.025,0,0,0-1.5,2.544c-2.373,5.636-7.694,12.3-7.252,16.314.162,1.471-.164,10.382,10.217,18.391S-289.683,206.4-280.37,206.4c10.087,0,16.908-2.967,19.281-7.415s2.67-9.788,2.67-13.349-.889-6.821-2.67-11.865A10.214,10.214,0,0,0-262.9,170.78Z" transform="translate(326.801 -155.213)" fill="#ff905f" stroke="#1a2e35" stroke-linecap="round" stroke-linejoin="round" stroke-width="0.404"/>
                  <path id="Path_1423" data-name="Path 1423" d="M-284.068,175.888a27.837,27.837,0,0,0,2.3-2.689" transform="translate(348.817 -145.947)" fill="none" stroke="#1a2e35" stroke-linecap="round" stroke-linejoin="round" stroke-width="0.404"/>
                  <path id="Path_1424" data-name="Path 1424" d="M-323.723,160.815s-3.262,9.518,11.15,22.3c12.4,10.993,33.045,11.726,45.846,2.024" transform="translate(328.224 -152.327)" fill="none" stroke="#1a2e35" stroke-linecap="round" stroke-linejoin="round" stroke-width="0.404"/>
                  <path id="Path_1425" data-name="Path 1425" d="M-323.65,165.661s-.544,16.861,16.588,28.282" transform="translate(328.423 -149.83)" fill="none" stroke="#1a2e35" stroke-linecap="round" stroke-linejoin="round" stroke-width="0.404"/>
                </g>
              </g>
              <g id="Group_2347" data-name="Group 2347" transform="translate(42.316)">
                <g id="Group_2344" data-name="Group 2344">
                  <path id="Path_1426" data-name="Path 1426" d="M-316.024,110.47s-18.035-.918-22.62,9.17,8.253,12.226,7.947,13.755-5.2,4.889-1.833,7.335,7.641,3.362,7.947,4.585,2.752,6.42,2.752,6.42,3.056,1.833,5.2.611,1.529-6.724,3.362-9.476,1.835-6.112,7.947-10.7,20.481-4.891,22.926-3.974,6.112,1.223,7.641,3.668,1.223,14.978,2.445,14.978.611-8.253,3.362-14.367S-261,120.557-263.144,112s-11.309-13.143-14.061-9.476-2.752,6.726-7.947,2.752-12.532-9.476-23.841-6.418S-321.527,104.663-316.024,110.47Z" transform="translate(339.635 -97.967)" fill="#1a2e35" stroke="#1a2e35" stroke-linecap="round" stroke-linejoin="round" stroke-width="0.404"/>
                  <g id="Group_2343" data-name="Group 2343" transform="translate(6.034 3.476)">
                    <path id="Path_1427" data-name="Path 1427" d="M-317.316,100.861a12.322,12.322,0,0,0-2.43-.6" transform="translate(343.847 -100.261)" fill="none" stroke="#7d7d7d" stroke-linecap="round" stroke-linejoin="round" stroke-width="0.404"/>
                    <path id="Path_1428" data-name="Path 1428" d="M-307.5,122.259s6.244-3.2,6.244-7.95c0-5.538-8-10.1-14.091-12.625" transform="translate(346.113 -99.528)" fill="none" stroke="#7d7d7d" stroke-linecap="round" stroke-linejoin="round" stroke-width="0.404"/>
                    <path id="Path_1429" data-name="Path 1429" d="M-305.571,120.093a8.9,8.9,0,0,0-5.2-10.406,34.464,34.464,0,0,0-11.5-2.738" transform="translate(342.543 -96.815)" fill="none" stroke="#7d7d7d" stroke-linecap="round" stroke-linejoin="round" stroke-width="0.404"/>
                    <path id="Path_1430" data-name="Path 1430" d="M-333.588,112.534c-.789.018-1.479.027-2.064.027" transform="translate(335.652 -93.938)" fill="none" stroke="#7d7d7d" stroke-linecap="round" stroke-linejoin="round" stroke-width="0.404"/>
                    <path id="Path_1431" data-name="Path 1431" d="M-305.936,115.152s-3.561-4.108-12.6-3.286c-5.547.5-10.165.8-13.665.956" transform="translate(337.43 -94.338)" fill="none" stroke="#7d7d7d" stroke-linecap="round" stroke-linejoin="round" stroke-width="0.404"/>
                    <path id="Path_1432" data-name="Path 1432" d="M-296.482,113.857a18.611,18.611,0,0,0,2.27-1.935c3.835-3.833,0-9.311,0-9.311" transform="translate(355.832 -99.05)" fill="none" stroke="#7d7d7d" stroke-linecap="round" stroke-linejoin="round" stroke-width="0.404"/>
                    <path id="Path_1433" data-name="Path 1433" d="M-300.226,112.3a14.394,14.394,0,0,0,3.543-1.388" transform="translate(353.903 -94.773)" fill="none" stroke="#7d7d7d" stroke-linecap="round" stroke-linejoin="round" stroke-width="0.404"/>
                    <path id="Path_1434" data-name="Path 1434" d="M-321.369,119.561s-7.132,6.341-10.7,7.133" transform="translate(337.498 -90.318)" fill="none" stroke="#7d7d7d" stroke-linecap="round" stroke-linejoin="round" stroke-width="0.404"/>
                  </g>
                </g>
                <path id="Path_1435" data-name="Path 1435" d="M-296.282,129.59s.97-6.915,6.223-3.909.714,13.109-.629,16.326-4.132,4.608-4.935,1.658S-296.282,129.59-296.282,129.59Z" transform="translate(361.965 -84.079)" fill="#ffc8b0" stroke="#1a2e35" stroke-linecap="round" stroke-linejoin="round" stroke-width="0.404"/>
                <g id="Group_2346" data-name="Group 2346" transform="translate(12.167 22.537)">
                  <path id="Path_1436" data-name="Path 1436" d="M-323.219,131.856s-2.75-6.418-7.03-2.139,2.752,12.838,4.891,15.59,5.2,3.362,5.2.306S-323.219,131.856-323.219,131.856Z" transform="translate(331.604 -104.905)" fill="#ffc8b0" stroke="#1a2e35" stroke-linecap="round" stroke-linejoin="round" stroke-width="0.404"/>
                  <path id="Path_1437" data-name="Path 1437" d="M-325.575,135.417s2,26.995,5.67,34.636,16.5,17.117,25.064,16.813,15.894-12.228,17.117-21.7-2.139-42.181-2.139-42.181-2.752-9.476-7.641-10.087-10.088,4.279-15.284,4.585-9.17-4.891-14.672-2.752-7.947,6.724-5.808,8.559,4.279,3.362,1.833,6.724S-325.575,135.417-325.575,135.417Z" transform="translate(334.711 -112.841)" fill="#ffc8b0" stroke="#1a2e35" stroke-linecap="round" stroke-linejoin="round" stroke-width="0.404"/>
                  <path id="Path_1438" data-name="Path 1438" d="M-292.978,123.989a6.462,6.462,0,0,0-4.891-1.833,10.569,10.569,0,0,0-5.808,1.833" transform="translate(345.992 -108.042)" fill="none" stroke="#1a2e35" stroke-linecap="round" stroke-linejoin="round" stroke-width="1.213"/>
                  <path id="Path_1439" data-name="Path 1439" d="M-308.3,125.617a10.181,10.181,0,0,0-11.309,2.752" transform="translate(337.782 -106.613)" fill="none" stroke="#1a2e35" stroke-linecap="round" stroke-linejoin="round" stroke-width="1.213"/>
                  <path id="Path_1440" data-name="Path 1440" d="M-312.823,132.121c0,1.6-.752,2.9-1.68,2.9s-1.682-1.3-1.682-2.9.753-2.9,1.682-2.9S-312.823,130.516-312.823,132.121Z" transform="translate(339.548 -104.405)" fill="#1a2e35"/>
                  <path id="Path_1441" data-name="Path 1441" d="M-299.71,130.507c0,1.6-.753,2.9-1.68,2.9s-1.682-1.3-1.682-2.9.753-2.9,1.682-2.9S-299.71,128.9-299.71,130.507Z" transform="translate(346.304 -105.236)" fill="#1a2e35"/>
                  <line id="Line_140" data-name="Line 140" x2="6.113" y2="0.306" transform="translate(21.224 31.842)" fill="none" stroke="#1a2e35" stroke-linecap="round" stroke-linejoin="round" stroke-width="0.404"/>
                  <line id="Line_141" data-name="Line 141" y1="2.445" x2="4.891" transform="translate(45.372 28.48)" fill="none" stroke="#1a2e35" stroke-linecap="round" stroke-linejoin="round" stroke-width="0.404"/>
                  <path id="Path_1442" data-name="Path 1442" d="M-277.885,154.439c.474-3.671.259-10.829-.182-18.222a29.471,29.471,0,0,1-1.347,6.912c-1.527,4.28-1.527,5.808-2.444,6.724s-1.835-1.223-3.362-3.362-15.284,0-15.284,0c-1.529-.3-8.865.918-12.228,2.139s-3.973,5.2-3.667,6.726-3.362-2.141-5.2-7.337a137.97,137.97,0,0,1-3.668-14.367s.768,6.143,1.627,12.749c1.07,5.34,2.3,10.285,3.57,12.928,3.668,7.643,16.5,17.117,25.064,16.813S-279.107,163.915-277.885,154.439Z" transform="translate(334.871 -102.119)" fill="#1a2e35" stroke="#1a2e35" stroke-linecap="round" stroke-linejoin="round" stroke-width="0.404"/>
                  <path id="Path_1443" data-name="Path 1443" d="M-317.778,155.077a29.71,29.71,0,0,0,11.337,8.14" transform="translate(338.728 -91.082)" fill="none" stroke="#7d7d7d" stroke-linecap="round" stroke-linejoin="round" stroke-width="0.404"/>
                  <g id="Group_2345" data-name="Group 2345" transform="translate(26.421 48.348)">
                    <path id="Path_1444" data-name="Path 1444" d="M-311.285,148a9.6,9.6,0,0,0,6.724,4.585c4.585.612,5.808-6.418,5.808-6.418l-11.922.612S-311.9,146.162-311.285,148Z" transform="translate(315.564 -144.023)" fill="#fff" stroke="#1a2e35" stroke-linecap="round" stroke-linejoin="round" stroke-width="0.404"/>
                    <path id="Path_1445" data-name="Path 1445" d="M-312.15,146.982s1.223,7.335,7.641,8.558,7.949-9.781,7.949-9.781Z" transform="translate(315.206 -144.23)" fill="#f29170" stroke="#1a2e35" stroke-linecap="round" stroke-linejoin="round" stroke-width="0.404"/>
                    <path id="Path_1446" data-name="Path 1446" d="M-309.425,146.95s.6,3.6,3.752,4.2,3.9-4.8,3.9-4.8Z" transform="translate(316.61 -143.926)" fill="#1a2e35" stroke="#1a2e35" stroke-linecap="round" stroke-linejoin="round" stroke-width="0.404"/>
                    <path id="Path_1447" data-name="Path 1447" d="M-292.465,145.361s-7.643,3.362-12.228,3.362a36.983,36.983,0,0,1-9.474-1.527s8.558-2.446,12.532-2.446S-292.465,145.361-292.465,145.361Z" transform="translate(314.167 -144.75)" fill="#ea9678" stroke="#1a2e35" stroke-linecap="round" stroke-linejoin="round" stroke-width="0.404"/>
                  </g>
                  <path id="Path_1448" data-name="Path 1448" d="M-299.954,124.576s-3.668,5.2-3.362,6.114,4.889,17.117,2.75,19.563-5.5,2.139-7.947.612-4.891-3.974-3.973-5.2a4.475,4.475,0,0,1,2.444-1.529" transform="translate(341.352 -106.795)" fill="none" stroke="#1a2e35" stroke-linecap="round" stroke-linejoin="round" stroke-width="0.404"/>
                </g>
              </g>
              <g id="Group_2351" data-name="Group 2351" transform="translate(0 24.813)">
                <g id="Group_2348" data-name="Group 2348" transform="translate(4.412)">
                  <path id="Path_1449" data-name="Path 1449" d="M-364.651,187.125l5.146-13.07s.6-1.208-1.932-4.586-1.524-7.126.165-14.167c1.436-5.985,3.686-27.843,4.33-34.264a2.623,2.623,0,0,1,1.912-2.267h0A2.63,2.63,0,0,1-351.7,121.3v19.072l3.309.191,3.668-24.005a2.645,2.645,0,0,1,2.465-2.214h0a2.649,2.649,0,0,1,2.792,2.785l-1.141,23.893,1.82.235,5.433-23.855a2.7,2.7,0,0,1,2.941-2.108h0a2.7,2.7,0,0,1,2.393,2.949l-2.277,23.537,9.058-17.6a2.129,2.129,0,0,1,2.48-1.074h0a2.131,2.131,0,0,1,1.4,2.833l-9.274,23.441s3.662-3.1,7.323-5.915,6.759-2.535,5.633.846-3.944,5.07-7.041,9.294-4.788,9.856-7.323,14.362-11.347,6.08-11.347,6.08-9.775,17.3-10.62,17.858Z" transform="translate(364.651 -114.343)" fill="#ffc8b0" stroke="#1a2e35" stroke-linecap="round" stroke-linejoin="round" stroke-width="0.404"/>
                  <line id="Line_142" data-name="Line 142" x2="25.954" y2="1.811" transform="translate(10.175 25.912)" fill="none" stroke="#1a2e35" stroke-linecap="round" stroke-linejoin="round" stroke-width="0.404"/>
                  <path id="Path_1450" data-name="Path 1450" d="M-352.429,158.652s-2.733-5.4,3.744-13.564,10.138-7.041,10.138-7.041" transform="translate(370.652 -102.158)" fill="none" stroke="#1a2e35" stroke-linecap="round" stroke-linejoin="round" stroke-width="0.404"/>
                </g>
                <g id="Group_2350" data-name="Group 2350" transform="translate(0 70.248)">
                  <path id="Path_1451" data-name="Path 1451" d="M-367.563,203.206l16.24-29.545-14.645-12.955-1.6,1.286Z" transform="translate(367.563 -160.706)" fill="#0c7ca8"/>
                  <g id="Group_2349" data-name="Group 2349" transform="translate(1.138 10.624)">
                    <path id="Path_1452" data-name="Path 1452" d="M-366.471,172.055a.339.339,0,0,0,.212-.074l4.573-3.658a.34.34,0,0,0,.053-.479.341.341,0,0,0-.477-.053l-4.573,3.658a.34.34,0,0,0-.053.479A.334.334,0,0,0-366.471,172.055Z" transform="translate(366.812 -167.717)" fill="#02445e"/>
                    <path id="Path_1453" data-name="Path 1453" d="M-360.927,174.163a.341.341,0,0,0-.444-.183.34.34,0,0,0-.183.445l1.283,3.082.42-.764Z" transform="translate(369.506 -164.504)" fill="#02445e"/>
                  </g>
                  <path id="Path_1454" data-name="Path 1454" d="M-367.563,203.206l16.24-29.545-14.645-12.955-1.6,1.286Z" transform="translate(367.563 -160.706)" fill="none" stroke="#1a2e35" stroke-linecap="round" stroke-linejoin="round" stroke-width="0.404"/>
                </g>
                <path id="Path_1455" data-name="Path 1455" d="M-363.433,156.431l-4.13,6.007v4.6l16.522,12.767,9.012-12.392Z" transform="translate(367.563 -92.66)" fill="#0778a5" stroke="#1a2e35" stroke-linecap="round" stroke-linejoin="round" stroke-width="0.404"/>
              </g>
            </g>
          </g>
          <g id="Group_2362" data-name="Group 2362" transform="translate(27.848 220.802)">
            <g id="Group_2359" data-name="Group 2359" transform="translate(0 0.962)">
              <circle id="Ellipse_66" data-name="Ellipse 66" cx="8.733" cy="8.733" r="8.733" transform="translate(0 1.726) rotate(-5.671)" fill="#fff" stroke="#1a2e35" stroke-linecap="round" stroke-linejoin="round" stroke-width="0.293"/>
              <g id="Group_2358" data-name="Group 2358" transform="translate(6.437 2.602)">
                <path id="Path_1456" data-name="Path 1456" d="M-343.783,217.19h0a1.763,1.763,0,0,1-1.762-1.762V209.84a1.762,1.762,0,0,1,1.762-1.762h0a1.761,1.761,0,0,1,1.762,1.762v5.588A1.762,1.762,0,0,1-343.783,217.19Z" transform="translate(346.884 -208.078)" fill="#1a2e35"/>
                <g id="Group_2357" data-name="Group 2357" transform="translate(0 4.32)">
                  <g id="Group_2354" data-name="Group 2354">
                    <path id="Path_1457" data-name="Path 1457" d="M-343.312,216.99a3.121,3.121,0,0,1-3.117-3.117V211.25a.322.322,0,0,1,.323-.321.321.321,0,0,1,.321.321v2.623a2.475,2.475,0,0,0,2.473,2.471,2.475,2.475,0,0,0,2.471-2.471V211.25a.322.322,0,0,1,.323-.321.321.321,0,0,1,.321.321v2.623A3.119,3.119,0,0,1-343.312,216.99Z" transform="translate(346.429 -210.929)" fill="#1a2e35"/>
                  </g>
                  <g id="Group_2355" data-name="Group 2355" transform="translate(2.794 5.415)">
                    <path id="Path_1458" data-name="Path 1458" d="M-344.262,218.5a.322.322,0,0,1-.323-.321v-3.353a.322.322,0,0,1,.323-.323.322.322,0,0,1,.321.323v3.353A.321.321,0,0,1-344.262,218.5Z" transform="translate(344.585 -214.503)" fill="#1a2e35"/>
                  </g>
                  <g id="Group_2356" data-name="Group 2356" transform="translate(0.644 8.94)">
                    <path id="Path_1459" data-name="Path 1459" d="M-341.383,217.474h-4.3a.323.323,0,0,1-.323-.323.323.323,0,0,1,.323-.323h4.3a.322.322,0,0,1,.323.323A.322.322,0,0,1-341.383,217.474Z" transform="translate(346.004 -216.829)" fill="#1a2e35"/>
                  </g>
                </g>
              </g>
            </g>
            <g id="Group_2360" data-name="Group 2360" transform="translate(56.874 0)">
              <circle id="Ellipse_67" data-name="Ellipse 67" cx="8.733" cy="8.733" r="8.733" transform="translate(0 4.038) rotate(-13.366)" fill="#fff" stroke="#1a2e35" stroke-linecap="round" stroke-linejoin="round" stroke-width="0.293"/>
              <path id="Path_1460" data-name="Path 1460" d="M-299.113,211.24l-2.552,1.474v-1.209a1.04,1.04,0,0,0-1.041-1.039h-5.761a1.04,1.04,0,0,0-1.041,1.039v4.641a1.041,1.041,0,0,0,1.041,1.041h5.761a1.04,1.04,0,0,0,1.041-1.041v-1.208l2.552,1.474Z" transform="translate(315.014 -203.284)" fill="#1a2e35"/>
            </g>
            <g id="Group_2361" data-name="Group 2361" transform="translate(27.956 0)">
              <circle id="Ellipse_68" data-name="Ellipse 68" cx="8.733" cy="8.733" r="8.733" transform="translate(0 4.038) rotate(-13.366)" fill="#1a2e35" stroke="#1a2e35" stroke-linecap="round" stroke-linejoin="round" stroke-width="0.293"/>
              <path id="Path_1461" data-name="Path 1461" d="M-318.8,211.448h-8.843a1.667,1.667,0,0,0-1.639,1.971l.256,1.383a.411.411,0,0,0,.4.338h2.664a.412.412,0,0,0,.412-.414v-1.5h4.649v1.5a.413.413,0,0,0,.412.414h2.664a.414.414,0,0,0,.406-.338l.256-1.383A1.669,1.669,0,0,0-318.8,211.448Z" transform="translate(333.732 -202.778)" fill="#ff905f"/>
            </g>
          </g>
          <path id="Path_1462" data-name="Path 1462" d="M-230.628,143.473a.9.9,0,0,0,.9-.9V118.482a.9.9,0,0,0-.9-.9h-2.339V71.567A11.567,11.567,0,0,0-244.534,60H-357.489a11.568,11.568,0,0,0-11.568,11.567V309.045a11.568,11.568,0,0,0,11.568,11.567h112.954a11.567,11.567,0,0,0,11.567-11.567V164.183h2.339a.9.9,0,0,0,.9-.9v-10.72a.9.9,0,0,0-.9-.9h-2.339v-8.2Zm-6.247,156.56a8.369,8.369,0,0,1-8.479,8.256H-356.67a8.369,8.369,0,0,1-8.477-8.256V74.067a8.369,8.369,0,0,1,8.477-8.256h43.88l1.824,3.385a11.285,11.285,0,0,0,9.955,5.859,11.283,11.283,0,0,0,9.953-5.859l1.826-3.385h43.878a8.37,8.37,0,0,1,8.479,8.256Z" transform="translate(369.057 -60)" fill="#263e47"/>
          <path id="Path_1463" data-name="Path 1463" d="M-320.1,65.717a3.021,3.021,0,0,0-3.02-3.021,3.02,3.02,0,0,0-3.02,3.021,3.02,3.02,0,0,0,3.02,3.02A3.02,3.02,0,0,0-320.1,65.717Z" transform="translate(391.167 -58.611)" fill="#fff" stroke="#1a2e35" stroke-linecap="round" stroke-linejoin="round" stroke-width="0.404"/>
        </g>
      </g>
      <g id="Group_2370" data-name="Group 2370" transform="translate(80.545 20.809)">
        <rect id="Rectangle_1516" data-name="Rectangle 1516" width="37.278" height="64.169" fill="#fff" stroke="#fff" stroke-linecap="round" stroke-linejoin="round" stroke-width="1.213"/>
        <g id="Group_2369" data-name="Group 2369" transform="translate(0.27 0.415)">
          <path id="Path_1464" data-name="Path 1464" d="M-323.092,123.59V104.01a5.4,5.4,0,0,0-1.045-1.05c-3.118-2.362-12.809-1.144-14.644-1.039s-4.535.094-4.535.094-5.386.189-9.921.379a9.058,9.058,0,0,0-6.861,3.889V123.59Z" transform="translate(360.1 -59.836)" fill="#ff905f" stroke="#1a2e35" stroke-linecap="round" stroke-linejoin="round" stroke-width="0.404"/>
          <path id="Path_1465" data-name="Path 1465" d="M-349.925,101.88a5.98,5.98,0,0,0-4.912,5.2c-.662,4.629.944,7.464,4.723,10.014a51.913,51.913,0,0,1,6.33,5.008s8.031-6.8,9.259-11.149-.567-8.124-2.552-8.787S-349.925,101.88-349.925,101.88Z" transform="translate(362.735 -59.703)" fill="#ffc8b0" stroke="#1a2e35" stroke-miterlimit="10" stroke-width="0.404"/>
          <path id="Path_1466" data-name="Path 1466" d="M-334.981,117.644v-4.589l-1.518.4-.524,4.191Z" transform="translate(371.988 -53.89)" fill="#a3a3a3" stroke="#1a2e35" stroke-miterlimit="10" stroke-width="0.404"/>
          <path id="Path_1467" data-name="Path 1467" d="M-356.314,116.663l-.325-1.357-3.461-.346v1.7Z" transform="translate(360.099 -52.909)" fill="#a3a3a3" stroke="#1a2e35" stroke-miterlimit="10" stroke-width="0.404"/>
          <path id="Path_1468" data-name="Path 1468" d="M-359.063,109.514l1.914,8.211" transform="translate(360.633 -55.715)" fill="none" stroke="#1a2e35" stroke-miterlimit="10" stroke-width="0.404"/>
          <path id="Path_1469" data-name="Path 1469" d="M-324.642,108.143c.332-.256.924-.641,1.55-1.089V89.021c-.7-.592-1.8-.968-2.053-1.75-.379-1.167.882-2.723,0-4.149s-4.283-.129-5.921-.518-2.015-1.167-2.646-2.592-3.023-.777-3.779-.649,1.889-2.462.5-4.018-5.92-.13-6.424,1.426-2.393,0-2.9-1.3-4.156-2.464-4.156-.13a3.264,3.264,0,0,0,.936,2.358c-1.192-.752-3.109-1.691-4.338-.932-1.889,1.167,1.008,2.723,1.008,2.723h-3.527a8.728,8.728,0,0,0-3.712,1.044v4.8l.059-.006-.059.026V115c1.347.023,2.326-.411,2.326.27,0,1.038.379,2.982,2.394,2.2s3.653-2.2,3.653-1.167,1.008,2.98,2.268,2.462,2.141-3.111,2.9-1.944,2.646,2.982,3.9,1.685,1.889-2.333,3.4-.389,3.4,2.333,3.9.389,1.638-1.036,3.527,0,4.661.518,4.661-1.426-1.008-3.63.253-3.89,3.779-1.036,3.149-2.333S-325.65,108.92-324.642,108.143Z" transform="translate(360.1 -74.007)" fill="#1a2e35"/>
          <path id="Path_1470" data-name="Path 1470" d="M-336.945,118.324q.582-4.623,1.162-9.247" transform="translate(372.028 -55.94)" fill="none" stroke="#1a2e35" stroke-miterlimit="10" stroke-width="0.404"/>
          <g id="Group_2368" data-name="Group 2368" transform="translate(5.207 9.863)">
            <path id="Path_1471" data-name="Path 1471" d="M-351.393,110.219s.283-5.008.283-6.708V99.543l9.07-.567s.473,7.085,2.362,10.014" transform="translate(359.378 -71.006)" fill="#ffc8b0" stroke="#1a2e35" stroke-miterlimit="10" stroke-width="0.404"/>
            <g id="Group_2367" data-name="Group 2367">
              <path id="Path_1472" data-name="Path 1472" d="M-354.733,92.3s-1.93,2.111-1.93,2.835a4.65,4.65,0,0,0,2.353,2.955c1.024.3,1.386-.421,1.386-.844S-354.733,92.3-354.733,92.3Z" transform="translate(356.663 -74.444)" fill="#ffc8b0" stroke="#1a2e35" stroke-linecap="round" stroke-linejoin="round" stroke-width="0.404"/>
              <path id="Path_1473" data-name="Path 1473" d="M-342.662,91.746s2.6,1.18,2.889,1.847a4.648,4.648,0,0,1-1,3.643.957.957,0,0,1-1.608-.23C-342.547,96.616-342.662,91.746-342.662,91.746Z" transform="translate(363.876 -74.731)" fill="#ffc8b0" stroke="#1a2e35" stroke-miterlimit="10" stroke-width="0.404"/>
              <path id="Path_1474" data-name="Path 1474" d="M-352.115,85.233s-3.5,2.286-3.9,5.512,2.42,13.582,3.63,15.331,7.8,5.782,9.682,5.514,6.32-6.321,7.127-7.665.133-11.431-.538-15.734-5.379-5.244-9.817-5.244S-352.115,85.233-352.115,85.233Z" transform="translate(356.977 -79.264)" fill="#ffc8b0" stroke="#1a2e35" stroke-linecap="round" stroke-linejoin="round" stroke-width="0.404"/>
              <path id="Path_1475" data-name="Path 1475" d="M-349.929,91.731c0,.63-.315,1.141-.7,1.141s-.7-.511-.7-1.141.317-1.141.7-1.141S-349.929,91.1-349.929,91.731Z" transform="translate(359.406 -75.327)" fill="#1a2e35"/>
              <path id="Path_1476" data-name="Path 1476" d="M-344.946,91.155c0,.63-.315,1.141-.7,1.141s-.7-.511-.7-1.141.315-1.141.7-1.141S-344.946,90.526-344.946,91.155Z" transform="translate(361.974 -75.623)" fill="#1a2e35"/>
              <path id="Path_1477" data-name="Path 1477" d="M-347,90.027s-.288,3.456.48,3.649a1.351,1.351,0,0,1,0,2.5c-1.441.576-2.114-.1-2.3-.768" transform="translate(360.703 -75.617)" fill="none" stroke="#1a2e35" stroke-linecap="round" stroke-linejoin="round" stroke-width="0.404"/>
              <line id="Line_143" data-name="Line 143" y1="0.096" x2="2.593" transform="translate(6.792 18.059)" fill="none" stroke="#1a2e35" stroke-linecap="round" stroke-linejoin="round" stroke-width="0.202"/>
              <line id="Line_144" data-name="Line 144" y1="1.056" x2="2.209" transform="translate(16.106 16.235)" fill="none" stroke="#1a2e35" stroke-linecap="round" stroke-linejoin="round" stroke-width="0.202"/>
              <path id="Path_1478" data-name="Path 1478" d="M-354.147,85.41s2.285.673,1.479,1.749-2.421,2.823-1.211,3.092,1.479.538.673.806-2.286,1.479-.135,1.749,3.092-.27,3.765-2.152.673-1.345,2.286-.4,2.824-2.018,2.152-3.092-1.749-.27-1.614-1.883a4.787,4.787,0,0,1,.941-2.555l2.017,1.211s-1.614,1.344-.4,2.555,2.689,1.479,1.749,1.747-2.286,1.883-.538,2.153a2.4,2.4,0,0,0,2.958-2.018c0-1.076-.806-2.152,0-2.958l1.749-1.749s-.268-2.152-5.109-2.958-8.741,1.209-9.549,2.017A6.725,6.725,0,0,0-354.147,85.41Z" transform="translate(357.8 -80.516)" fill="#1a2e35"/>
              <g id="Group_2366" data-name="Group 2366" transform="translate(7.884 21.745)">
                <g id="Group_2365" data-name="Group 2365" transform="translate(0.341 0.402)">
                  <path id="Path_1479" data-name="Path 1479" d="M-351.235,96.141s2.008,2.733,3.2,3.4a4.992,4.992,0,0,0,4.635-.456c1.076-.87,1.906-3.949,1.906-3.949a14.124,14.124,0,0,1-5.179,1.344A18.173,18.173,0,0,1-351.235,96.141Z" transform="translate(351.235 -95.133)" fill="#f48c67" stroke="#1a2e35" stroke-miterlimit="10" stroke-width="0.202"/>
                  <path id="Path_1480" data-name="Path 1480" d="M-349.5,96.789a3.673,3.673,0,0,0,2.853,1.349,4.049,4.049,0,0,0,3.536-2.662l-7.324.7Z" transform="translate(351.647 -94.957)" fill="#fff" stroke="#1a2e35" stroke-linecap="round" stroke-linejoin="round" stroke-width="0.404"/>
                </g>
                <path id="Path_1481" data-name="Path 1481" d="M-341.187,94.868a3.451,3.451,0,0,1-1.932.562,13.065,13.065,0,0,0-2.691.456,4.741,4.741,0,0,0-2.235.086,11.462,11.462,0,0,1-3.415.044s1.6,1.092,5.473.806C-341.561,96.494-341.187,94.868-341.187,94.868Z" transform="translate(351.46 -94.868)" fill="#f78157" stroke="#1a2e35" stroke-miterlimit="10" stroke-width="0.202"/>
              </g>
              <path id="Path_1482" data-name="Path 1482" d="M-353.173,90.557a5,5,0,0,1,1.935-1.521,3.537,3.537,0,0,1,2.667-.406" transform="translate(358.461 -76.388)" fill="none" stroke="#1a2e35" stroke-linecap="round" stroke-miterlimit="10" stroke-width="0.809"/>
              <path id="Path_1483" data-name="Path 1483" d="M-347.3,88.046a4.2,4.2,0,0,1,3.249-.318,3.011,3.011,0,0,1,1.391.938" transform="translate(361.488 -76.909)" fill="none" stroke="#1a2e35" stroke-linecap="round" stroke-miterlimit="10" stroke-width="0.809"/>
            </g>
          </g>
        </g>
      </g>
    </g>
    <g id="Group_2372" data-name="Group 2372" transform="translate(-419.228 224.671)">
      <path id="Path_1484" data-name="Path 1484" d="M-401.446,195.742c0-7.337,9.012-13.085,20.52-13.085a33.229,33.229,0,0,1,4.315.282C-377.375,174.611-388.8,168-402.783,168-417.262,168-429,175.087-429,183.829c0,5.5,4.652,10.346,11.708,13.184a35.981,35.981,0,0,1-7.018,7.335s7.993-1.221,14.173-5.326a42.506,42.506,0,0,0,7.355.636c.746,0,1.483-.024,2.214-.061A9.064,9.064,0,0,1-401.446,195.742Z" transform="translate(429 -168)" fill="none" stroke="#066696" stroke-linecap="round" stroke-linejoin="round" stroke-width="0.293"/>
      <path id="Path_1485" data-name="Path 1485" d="M-390.893,178.834c10.361,0,18.76,5.071,18.76,11.326,0,3.938-3.329,7.4-8.378,9.434a25.726,25.726,0,0,0,5.021,5.25,28.864,28.864,0,0,1-10.141-3.811,30.409,30.409,0,0,1-5.262.455c-10.362,0-18.761-5.071-18.761-11.328S-401.255,178.834-390.893,178.834Z" transform="translate(438.967 -162.418)" fill="none" stroke="#066696" stroke-linecap="round" stroke-linejoin="round" stroke-width="0.293"/>
    </g>
  </g>
</svg>
