<svg xmlns="http://www.w3.org/2000/svg" width="242.035" height="223.823" viewBox="0 0 242.035 223.823">
  <g id="Group_5039" data-name="Group 5039" transform="translate(-62.54 -13.273)">
    <g id="RR_Logo" data-name="RR Logo" transform="translate(115.935 13.273)">
      <path id="Path_2" data-name="Path 2" d="M326.2,62.6,282.159,24.709l-5-4.306-5-4.306-5,4.306-5,4.306h0L204,74.758v88.774h13.046V134.774h23.418l17.934,28.758h14.787l-18.049-29.185h35.193l18.252,29.185h14.788l-19.444-31.442a20.847,20.847,0,0,0,6.629-3.55,22.776,22.776,0,0,0,5.128-5.648,28.388,28.388,0,0,0,3.261-7.1,27.772,27.772,0,0,0,1.164-8.034,26.466,26.466,0,0,0-1.924-9.842,28.847,28.847,0,0,0-5.3-8.611,26.494,26.494,0,0,0-8.091-6.119,22.954,22.954,0,0,0-10.3-2.328h-30.46a31.359,31.359,0,0,1,5.59,4.916,33.847,33.847,0,0,1,4.6,6.61h19.463a10.722,10.722,0,0,1,4.945,1.231,13.856,13.856,0,0,1,4.195,3.31,17.185,17.185,0,0,1,2.906,4.9,15.876,15.876,0,0,1,1.106,5.936,18.532,18.532,0,0,1-.933,5.936,16.843,16.843,0,0,1-2.559,4.945,11.843,11.843,0,0,1-3.9,3.377,10.514,10.514,0,0,1-5.07,1.232h-3.345v0H228.174v0H217.043V92.383h26.448a10.693,10.693,0,0,1,4.945,1.231,13.628,13.628,0,0,1,4.195,3.31,17.208,17.208,0,0,1,2.915,4.9,16.071,16.071,0,0,1,1.107,5.936,18.8,18.8,0,0,1-.933,5.936,16.914,16.914,0,0,1-1.915,4h14.3c.241-.625.462-1.261.654-1.905a27.459,27.459,0,0,0,1.164-8.034A26.28,26.28,0,0,0,268,97.916,28.822,28.822,0,0,0,262.7,89.3a26.608,26.608,0,0,0-8.091-6.119,23.01,23.01,0,0,0-10.3-2.328H216.9L272.162,33.31h0L326.2,79.8v83.732H339.24V73.815Z" transform="translate(-203.997 -16.098)" fill="#006cbb"/>
      <g id="RR_squares" data-name="RR squares" transform="translate(60.131 35.247)">
        <g id="Group_7" data-name="Group 7">
          <rect id="Rectangle_5" data-name="Rectangle 5" width="6.473" height="6.472" fill="#ec4119"/>
        </g>
        <g id="Group_8" data-name="Group 8" transform="translate(9.591)">
          <rect id="Rectangle_6" data-name="Rectangle 6" width="6.473" height="6.472" fill="#ec4119"/>
        </g>
        <g id="Group_9" data-name="Group 9" transform="translate(9.591 9.59)">
          <rect id="Rectangle_7" data-name="Rectangle 7" width="6.473" height="6.472" fill="#ec4119"/>
        </g>
        <g id="Group_10" data-name="Group 10" transform="translate(0 9.59)">
          <rect id="Rectangle_8" data-name="Rectangle 8" width="6.473" height="6.472" fill="#ec4119"/>
        </g>
      </g>
    </g>
    <g id="Group_30" data-name="Group 30" transform="translate(62.54 184.383)">
      <g id="Real_Rolty_Orange" data-name="Real Rolty Orange" transform="translate(0)">
        <g id="Group_11" data-name="Group 11">
          <path id="Path_3" data-name="Path 3" d="M33.53,748.719l-4.769-8.158a8.792,8.792,0,0,1-.985.039H21.548v8.119H16.267V721.129H27.776q5.36,0,8.277,2.483a8.709,8.709,0,0,1,2.917,7.015,10.374,10.374,0,0,1-1.4,5.518,8.56,8.56,0,0,1-4.079,3.429l6.07,9.144Zm-11.982-12.77h6.227a7.027,7.027,0,0,0,4.572-1.3,4.717,4.717,0,0,0,1.576-3.862A4.558,4.558,0,0,0,32.348,727a7.184,7.184,0,0,0-4.572-1.261H21.548Z" transform="translate(-16.267 -720.775)" fill="#ec4119"/>
          <path id="Path_4" data-name="Path 4" d="M130.17,721.129h20.219v4.612H135.451v6.818h13.4v4.611h-13.4v6.937h15.411v4.611H130.17Z" transform="translate(-101.674 -720.775)" fill="#ec4119"/>
          <path id="Path_5" data-name="Path 5" d="M244.444,748.719,242,742.886H228.521l-2.444,5.833H220.6l12.1-27.589h5.478l11.942,27.589Zm-14.032-10.366h9.7L235.3,726.765Z" transform="translate(-169.48 -720.775)" fill="#ec4119"/>
          <path id="Path_6" data-name="Path 6" d="M351.99,721.129h5.281v22.82h11.9v4.769H351.99Z" transform="translate(-268.001 -720.775)" fill="#ec4119"/>
          <path id="Path_7" data-name="Path 7" d="M493.078,748.719l-4.769-8.158a8.782,8.782,0,0,1-.985.039H481.1v8.119h-5.281V721.129h11.509q5.359,0,8.277,2.483a8.709,8.709,0,0,1,2.917,7.015,10.372,10.372,0,0,1-1.4,5.518,8.561,8.561,0,0,1-4.079,3.429l6.07,9.144ZM481.1,735.949h6.227a7.025,7.025,0,0,0,4.572-1.3,4.716,4.716,0,0,0,1.577-3.862A4.556,4.556,0,0,0,491.9,727a7.183,7.183,0,0,0-4.572-1.261H481.1Z" transform="translate(-360.848 -720.775)" fill="#ec4119"/>
          <path id="Path_8" data-name="Path 8" d="M603.225,721.565a14.115,14.115,0,0,1,5.3,19.45,14.039,14.039,0,0,1-5.3,5.143,15.69,15.69,0,0,1-14.938,0,14.034,14.034,0,0,1-5.3-5.143,13.967,13.967,0,0,1,5.3-19.45,15.981,15.981,0,0,1,14.938,0Zm-12.08,4.118a9.443,9.443,0,0,0-3.41,12.908,9.517,9.517,0,0,0,3.43,3.429,9.051,9.051,0,0,0,4.67,1.261,8.878,8.878,0,0,0,4.612-1.261,9.265,9.265,0,0,0,3.37-3.429,9.427,9.427,0,0,0,1.242-4.769,9.322,9.322,0,0,0-1.242-4.749,9.17,9.17,0,0,0-3.37-3.39,9,9,0,0,0-4.612-1.241A9.278,9.278,0,0,0,591.145,725.683Z" transform="translate(-439.76 -719.712)" fill="#ec4119"/>
          <path id="Path_9" data-name="Path 9" d="M717.171,721.129h5.281v22.82h11.9v4.769H717.171Z" transform="translate(-541.823 -720.775)" fill="#ec4119"/>
          <path id="Path_10" data-name="Path 10" d="M790.111,721.129h22.506v4.69h-8.593v22.9H798.7v-22.9h-8.593Z" transform="translate(-596.515 -720.775)" fill="#ec4119"/>
          <path id="Path_11" data-name="Path 11" d="M906.949,721.129,896.9,739.693v9.026h-5.281V739.89L881.33,721.129h5.36l7.528,12.968,7.41-12.968Z" transform="translate(-664.914 -720.775)" fill="#ec4119"/>
        </g>
      </g>
      <g id="Buy_Sell_Connect" data-name="Buy Sell Connect" transform="translate(0 38.588)">
        <g id="Group_12" data-name="Group 12" transform="translate(0 0)">
          <path id="Path_12" data-name="Path 12" d="M25.477,875.5a3,3,0,0,1,1.212,2.531,3.053,3.053,0,0,1-.67,2,3.261,3.261,0,0,1-1.832,1.094,3.586,3.586,0,0,1,2.256,1.152,3.419,3.419,0,0,1,.818,2.334,3.262,3.262,0,0,1-1.33,2.768,6.016,6.016,0,0,1-3.674.995H16.267V874.583h5.89A5.388,5.388,0,0,1,25.477,875.5Zm-1.438,4.393a1.841,1.841,0,0,0,.7-1.547,1.792,1.792,0,0,0-.7-1.516,3.133,3.133,0,0,0-1.98-.513h-3.9v4.118h3.9A3.17,3.17,0,0,0,24.039,879.892Zm.424,6.166a1.933,1.933,0,0,0,.867-1.684,1.874,1.874,0,0,0-.867-1.635,4.225,4.225,0,0,0-2.4-.591h-3.9v4.492h3.9A4.072,4.072,0,0,0,24.462,886.059Z" transform="translate(-16.267 -874.426)" fill="#006cbb"/>
          <path id="Path_13" data-name="Path 13" d="M83.547,885.724a3.886,3.886,0,0,0,2.906,1.074,3.826,3.826,0,0,0,2.876-1.074,4.1,4.1,0,0,0,1.044-2.985v-8.156h1.891v8.156a5.7,5.7,0,0,1-1.546,4.235,5.783,5.783,0,0,1-4.265,1.537,5.844,5.844,0,0,1-4.295-1.537,5.681,5.681,0,0,1-1.556-4.235v-8.156h1.891v8.156A4.077,4.077,0,0,0,83.547,885.724Z" transform="translate(-64.507 -874.426)" fill="#006cbb"/>
          <path id="Path_14" data-name="Path 14" d="M155.891,874.583l-5.162,9.062v4.728h-1.891v-4.65l-5.24-9.141h1.931l4.255,7.033,4.176-7.033Z" transform="translate(-111.743 -874.426)" fill="#006cbb"/>
          <path id="Path_15" data-name="Path 15" d="M207.728,921.674a1.113,1.113,0,0,1,.306.808,1.147,1.147,0,0,1-.306.817,1,1,0,0,1-.758.325,1.03,1.03,0,0,1-.768-.325,1.127,1.127,0,0,1-.315-.817,1.1,1.1,0,0,1,.315-.808,1.047,1.047,0,0,1,.768-.315A1.015,1.015,0,0,1,207.728,921.674Z" transform="translate(-158.448 -909.499)" fill="#006cbb"/>
          <path id="Path_16" data-name="Path 16" d="M267.6,876.071a6.765,6.765,0,0,0-1.9-.305,3.507,3.507,0,0,0-1.921.463,1.438,1.438,0,0,0-.719,1.27,1.673,1.673,0,0,0,.433,1.192,3.062,3.062,0,0,0,1.064.729q.631.266,1.754.621a19.918,19.918,0,0,1,2.266.827,3.929,3.929,0,0,1,1.478,1.172,3.242,3.242,0,0,1,.611,2.059,3.442,3.442,0,0,1-.64,2.069,4.1,4.1,0,0,1-1.793,1.369,6.806,6.806,0,0,1-2.65.483,7.7,7.7,0,0,1-2.955-.591,7.989,7.989,0,0,1-2.482-1.577l.847-1.635A7.12,7.12,0,0,0,263.2,885.7a6.115,6.115,0,0,0,2.393.522,3.828,3.828,0,0,0,2.177-.542,1.688,1.688,0,0,0,.8-1.467,1.709,1.709,0,0,0-.434-1.2,3.061,3.061,0,0,0-1.093-.749q-.661-.276-1.783-.611a18.155,18.155,0,0,1-2.246-.807,3.879,3.879,0,0,1-1.468-1.163,3.2,3.2,0,0,1-.6-2.029,3.25,3.25,0,0,1,.611-1.95,3.858,3.858,0,0,1,1.714-1.3,6.708,6.708,0,0,1,2.561-.453,8.272,8.272,0,0,1,2.433.365,8.178,8.178,0,0,1,2.118.975l-.788,1.694A7.938,7.938,0,0,0,267.6,876.071Z" transform="translate(-199.13 -873.953)" fill="#006cbb"/>
          <path id="Path_17" data-name="Path 17" d="M323.688,874.583h9.574V876.3h-7.683v4.255h6.875v1.714h-6.875v4.393h7.92v1.714h-9.811Z" transform="translate(-246.779 -874.426)" fill="#006cbb"/>
          <path id="Path_18" data-name="Path 18" d="M384.559,874.583h1.891v12.076h6.028v1.714h-7.92Z" transform="translate(-292.422 -874.426)" fill="#006cbb"/>
          <path id="Path_19" data-name="Path 19" d="M435.271,874.583h1.891v12.076h6.028v1.714h-7.92Z" transform="translate(-330.447 -874.426)" fill="#006cbb"/>
          <path id="Path_20" data-name="Path 20" d="M483.809,921.674a1.115,1.115,0,0,1,.305.808,1.149,1.149,0,0,1-.305.817,1,1,0,0,1-.759.325,1.03,1.03,0,0,1-.768-.325,1.127,1.127,0,0,1-.315-.817,1.094,1.094,0,0,1,.315-.808,1.046,1.046,0,0,1,.768-.315A1.017,1.017,0,0,1,483.809,921.674Z" transform="translate(-365.461 -909.499)" fill="#006cbb"/>
          <path id="Path_21" data-name="Path 21" d="M546.307,876.249a5.3,5.3,0,1,0-2.147,10.135,5.4,5.4,0,0,0,2.128-.443,6.154,6.154,0,0,0,1.852-1.211l1.143,1.24a7.666,7.666,0,0,1-2.423,1.606,7.241,7.241,0,0,1-6.4-.354,6.962,6.962,0,0,1-3.526-6.117,6.788,6.788,0,0,1,.955-3.536,6.91,6.91,0,0,1,2.611-2.531,7.329,7.329,0,0,1,3.644-.927,7.414,7.414,0,0,1,2.788.542,6.905,6.905,0,0,1,2.335,1.527l-1.123,1.359A5.685,5.685,0,0,0,546.307,876.249Z" transform="translate(-406.674 -874.071)" fill="#006cbb"/>
          <path id="Path_22" data-name="Path 22" d="M611.067,875.036a6.963,6.963,0,0,1,2.63,2.531,6.735,6.735,0,0,1,.965,3.536,6.835,6.835,0,0,1-.965,3.556,6.981,6.981,0,0,1-2.63,2.561,7.605,7.605,0,0,1-7.309,0,6.98,6.98,0,0,1-2.631-2.561,6.834,6.834,0,0,1-.965-3.556,6.734,6.734,0,0,1,.965-3.536,6.987,6.987,0,0,1,2.62-2.531,7.69,7.69,0,0,1,7.319,0Zm-6.3,1.477a5.4,5.4,0,0,0-1.961,1.921,5.271,5.271,0,0,0,0,5.349,5.443,5.443,0,0,0,1.961,1.941,5.2,5.2,0,0,0,2.67.719,5.1,5.1,0,0,0,2.65-.719,5.422,5.422,0,0,0,1.931-1.941,5.335,5.335,0,0,0,0-5.349,5.374,5.374,0,0,0-1.931-1.921,5.149,5.149,0,0,0-2.65-.709A5.252,5.252,0,0,0,604.763,876.514Z" transform="translate(-454.088 -874.071)" fill="#006cbb"/>
          <path id="Path_23" data-name="Path 23" d="M688.246,874.583h1.872v13.791h-1.912l-7.88-10.678v10.678h-1.891V874.583h1.911l7.9,10.7Z" transform="translate(-512.778 -874.426)" fill="#006cbb"/>
          <path id="Path_24" data-name="Path 24" d="M760.221,874.583h1.871v13.791h-1.911L752.3,877.7v10.678H750.41V874.583h1.911l7.9,10.7Z" transform="translate(-566.746 -874.426)" fill="#006cbb"/>
          <path id="Path_25" data-name="Path 25" d="M822.383,874.583h9.574V876.3h-7.683v4.255h6.876v1.714h-6.876v4.393h7.919v1.714h-9.811Z" transform="translate(-620.714 -874.426)" fill="#006cbb"/>
          <path id="Path_26" data-name="Path 26" d="M887.75,876.249a5.3,5.3,0,1,0-2.147,10.135,5.4,5.4,0,0,0,2.127-.443,6.152,6.152,0,0,0,1.852-1.211l1.143,1.24a7.671,7.671,0,0,1-2.423,1.606,7.241,7.241,0,0,1-6.4-.354,6.962,6.962,0,0,1-3.526-6.117,6.787,6.787,0,0,1,.955-3.536,6.908,6.908,0,0,1,2.611-2.531,7.329,7.329,0,0,1,3.644-.927,7.414,7.414,0,0,1,2.787.542,6.9,6.9,0,0,1,2.334,1.527l-1.123,1.359A5.687,5.687,0,0,0,887.75,876.249Z" transform="translate(-662.696 -874.071)" fill="#006cbb"/>
          <path id="Path_27" data-name="Path 27" d="M940.659,874.583h10.776v1.734h-4.452v12.057h-1.891V876.317h-4.433Z" transform="translate(-709.4 -874.426)" fill="#006cbb"/>
        </g>
      </g>
    </g>
  </g>
</svg>
