<svg xmlns="http://www.w3.org/2000/svg" width="304.91" height="275.313" viewBox="0 0 304.91 275.313">
  <g id="Group_4309" data-name="Group 4309" transform="translate(1007.969 -56.449)">
    <g id="Group_2091" data-name="Group 2091" transform="translate(-1007.969 61.406)" opacity="0.07" style="isolation: isolate">
      <path id="Path_1226" data-name="Path 1226" d="M-725.207,112.095a87.806,87.806,0,0,0-7.07-8.96c-20.917-23.23-48.266-33.057-79.512-39.643-32.27-6.8-70.054-8.942-101.033,3.356-7.293,2.9-14.207,6.772-19.709,12.025-20.726,19.785-27.831,52.938-50.924,79.14s-34.344,58.818-13.62,89.833c8.771,13.125,19.955,23.953,33.188,33.454,16.292,11.7,30.346,27.473,49.174,36.6,19.789,9.6,46.145,12.941,68.044,8.547,24.986-5.014,39.642-24.952,58.715-38.55,15.037-10.72,33.022-17.735,47.757-28.792,22.574-16.938,39.688-44.166,36.827-71.152C-706.148,161.778-709.742,134.545-725.207,112.095Z" transform="translate(1007.969 -58)" fill="#006cbb"/>
      <path id="Path_1227" data-name="Path 1227" d="M-725.207,112.095a87.806,87.806,0,0,0-7.07-8.96c-20.917-23.23-48.266-33.057-79.512-39.643-32.27-6.8-70.054-8.942-101.033,3.356-7.293,2.9-14.207,6.772-19.709,12.025-20.726,19.785-27.831,52.938-50.924,79.14s-34.344,58.818-13.62,89.833c8.771,13.125,19.955,23.953,33.188,33.454,16.292,11.7,30.346,27.473,49.174,36.6,19.789,9.6,46.145,12.941,68.044,8.547,24.986-5.014,39.642-24.952,58.715-38.55,15.037-10.72,33.022-17.735,47.757-28.792,22.574-16.938,39.688-44.166,36.827-71.152C-706.148,161.778-709.742,134.545-725.207,112.095Z" transform="translate(1007.969 -58)" fill="#006cbb" opacity="0.7"/>
    </g>
    <g id="Group_2328" data-name="Group 2328" transform="translate(-1000.054 56.449)">
      <g id="Group_2118" data-name="Group 2118" transform="translate(14.954 200.813)">
        <g id="Group_2117" data-name="Group 2117">
          <g id="Group_2096" data-name="Group 2096" transform="translate(3.698 8.012)">
            <g id="Group_2095" data-name="Group 2095">
              <g id="Group_2094" data-name="Group 2094">
                <g id="Group_2093" data-name="Group 2093">
                  <g id="Group_2092" data-name="Group 2092">
                    <path id="Path_1228" data-name="Path 1228" d="M-988.761,202.056v28.658h88.13V202.056Z" transform="translate(988.761 -202.056)" fill="#f5f5f5"/>
                  </g>
                </g>
              </g>
            </g>
          </g>
          <g id="Group_2101" data-name="Group 2101">
            <g id="Group_2100" data-name="Group 2100">
              <g id="Group_2099" data-name="Group 2099">
                <g id="Group_2098" data-name="Group 2098">
                  <g id="Group_2097" data-name="Group 2097">
                    <path id="Path_1229" data-name="Path 1229" d="M-991.456,196.215v8.012h94.909v-8.012h-94.909Z" transform="translate(991.456 -196.215)" fill="#e1e1e1"/>
                  </g>
                </g>
              </g>
            </g>
          </g>
          <g id="Group_2106" data-name="Group 2106" transform="translate(45.605)">
            <g id="Group_2105" data-name="Group 2105">
              <g id="Group_2104" data-name="Group 2104">
                <g id="Group_2103" data-name="Group 2103">
                  <g id="Group_2102" data-name="Group 2102">
                    <path id="Path_1230" data-name="Path 1230" d="M-956.363,232.885h44.373V204.227h3.082v-8.012h-49.3v7.271Z" transform="translate(958.213 -196.215)" fill="#e1e1e1"/>
                  </g>
                </g>
              </g>
            </g>
          </g>
          <g id="Group_2111" data-name="Group 2111" transform="translate(16.024 12.633)">
            <g id="Group_2110" data-name="Group 2110">
              <g id="Group_2109" data-name="Group 2109">
                <g id="Group_2108" data-name="Group 2108">
                  <g id="Group_2107" data-name="Group 2107">
                    <rect id="Rectangle_1508" data-name="Rectangle 1508" width="17.872" height="4.314" fill="#e1e1e1"/>
                  </g>
                </g>
              </g>
            </g>
          </g>
          <g id="Group_2116" data-name="Group 2116" transform="translate(13.723 22.34)">
            <g id="Group_2115" data-name="Group 2115">
              <g id="Group_2114" data-name="Group 2114">
                <g id="Group_2113" data-name="Group 2113">
                  <g id="Group_2112" data-name="Group 2112">
                    <rect id="Rectangle_1509" data-name="Rectangle 1509" width="22.949" height="9.109" fill="#fff"/>
                  </g>
                </g>
              </g>
            </g>
          </g>
        </g>
      </g>
      <g id="Group_2201" data-name="Group 2201" transform="translate(101.2 42.29)">
        <g id="Group_2125" data-name="Group 2125" transform="translate(0 103.26)">
          <path id="Path_1231" data-name="Path 1231" d="M-887.308,164.491s-1.447-6.289-7.282-5.973-7.25.316-9.773,0-6.427-3.35-7.53-2.4-.488,3,1.563,4.819a20.07,20.07,0,0,0,5.57,3.063l-7.459,1.283s-6.717-3.586-8.294-2.955a2.446,2.446,0,0,0-1.451,2.376s-2.788-1.253-3.576-.15-.98,1.841-.192,2.472c0,0-.517-.512-1.966-.084-1.238.365-1.132,2.646,0,3.261l.383.219s10.565,6.087,10.887,6.13c1.866.248,13.254-.237,19.117-.509a6,6,0,0,1,5.35,2.793l9.443,14.967,10.662-12.28Z" transform="translate(928.589 -155.932)" fill="#ffc8b0"/>
          <g id="Group_2119" data-name="Group 2119" transform="translate(5.469 8.253)">
            <path id="Path_1232" data-name="Path 1232" d="M-907.949,165.692a11.8,11.8,0,0,1-1.727.381c-1.091.206-2.63.479-4.42.783l-.045.008-.045-.021c-.746-.343-1.551-.711-2.387-1.093l-5.7-2.639-1.719-.819a2.847,2.847,0,0,1-.612-.342,3.061,3.061,0,0,1,.663.226l1.76.727,2.594,1.114,3.146,1.439,2.384,1.108-.09-.012c1.793-.284,3.339-.517,4.438-.671A11.584,11.584,0,0,1-907.949,165.692Z" transform="translate(924.602 -161.948)" fill="#aa6550"/>
          </g>
          <g id="Group_2120" data-name="Group 2120" transform="translate(15.244 14.78)">
            <path id="Path_1233" data-name="Path 1233" d="M-913.212,166.723a14.6,14.6,0,0,0-2.39,1.361,14.569,14.569,0,0,0-1.867,2.018,4.439,4.439,0,0,1,1.667-2.27A4.436,4.436,0,0,1-913.212,166.723Z" transform="translate(917.477 -166.706)" fill="#aa6550"/>
          </g>
          <g id="Group_2121" data-name="Group 2121" transform="translate(24.808 5.989)">
            <path id="Path_1234" data-name="Path 1234" d="M-903.711,160.3c.04,0,.067.381.273,1A5.2,5.2,0,0,0-902,163.515l.215.193-.287.055a15.134,15.134,0,0,0-2.895.859,15.307,15.307,0,0,0-4.065,2.494c-.936.8-1.428,1.387-1.471,1.35-.018-.014.093-.171.307-.446a11.081,11.081,0,0,1,1.013-1.074,13.668,13.668,0,0,1,4.092-2.622,13.9,13.9,0,0,1,2.969-.845l-.073.248a5,5,0,0,1-1.408-2.377A2.467,2.467,0,0,1-903.711,160.3Z" transform="translate(910.505 -160.298)" fill="#aa6550"/>
          </g>
          <g id="Group_2122" data-name="Group 2122" transform="translate(16.369 7.761)">
            <path id="Path_1235" data-name="Path 1235" d="M-908.409,161.6a17.539,17.539,0,0,1-4.065,1.092c-1.144.215-2.188.359-2.947.435a4.611,4.611,0,0,1-1.236.049c-.011-.095,1.848-.37,4.123-.8,1.063-.211,2.029-.4,2.907-.575A5.658,5.658,0,0,1-908.409,161.6Z" transform="translate(916.657 -161.589)" fill="#aa6550"/>
          </g>
          <g id="Group_2123" data-name="Group 2123" transform="translate(2.632 11.214)">
            <path id="Path_1236" data-name="Path 1236" d="M-914.608,168.914a15.431,15.431,0,0,1-1.767-.706c-1.083-.45-2.6-1.021-4.283-1.626s-3.213-1.172-4.3-1.635a9.487,9.487,0,0,1-1.715-.835,13.857,13.857,0,0,1,1.8.623l4.321,1.545c1.69.6,3.2,1.214,4.267,1.72A8.881,8.881,0,0,1-914.608,168.914Z" transform="translate(926.67 -164.107)" fill="#aa6550"/>
          </g>
          <g id="Group_2124" data-name="Group 2124" transform="translate(12.826 15.75)">
            <path id="Path_1237" data-name="Path 1237" d="M-914.685,167.432a5.025,5.025,0,0,1-2.239.606,5.04,5.04,0,0,1-2.314-.155c.01-.093,1.034-.038,2.283-.166S-914.713,167.342-914.685,167.432Z" transform="translate(919.239 -167.413)" fill="#aa6550"/>
          </g>
        </g>
        <g id="Group_2144" data-name="Group 2144" transform="translate(40.521 71.61)">
          <path id="Path_1238" data-name="Path 1238" d="M-863.4,141.081s-9.432,5.426-11.407,22.008c-1.029,8.644-4.795,24.72-4.795,24.72l-7.741-8.7-11.709,13.407s12.653,27,19.829,34.37,21.322,9.631,21.322,9.631l2.849-45.133Z" transform="translate(899.052 -129.806)" fill="#066696"/>
          <path id="Path_1239" data-name="Path 1239" d="M-800.3,136.677l-21.795-3.815-27.787,1.38s-23.139,9.552-21.962,9.9l-4.509,44.674,11.178,21.585-2.756,45.963h76.671l-4-31.963-5.017-38.517,9.521,29.816,1.443,40.664h21.348c2.255-17.708,2.962-42.31,2.962-42.31l-17.423-56.911a33.206,33.206,0,0,0-14.757-18.922A18.359,18.359,0,0,0-800.3,136.677Z" transform="translate(907.494 -132.862)" fill="#066696"/>
          <g id="Group_2126" data-name="Group 2126" transform="translate(35.402 33.811)">
            <path id="Path_1240" data-name="Path 1240" d="M-873.244,157.508a1.112,1.112,0,0,1,.053.226l.125.671c.106.61.257,1.479.449,2.587.38,2.247.921,5.5,1.543,9.53s1.325,8.833,1.992,14.182,1.294,11.248,1.65,17.463c.033.578.066,1.154.095,1.687v.012c-.325,12.057-.7,22.891-1.034,30.711-.17,3.908-.328,7.064-.462,9.241-.071,1.073-.128,1.912-.167,2.5l-.054.65a1.2,1.2,0,0,1-.029.221,1.185,1.185,0,0,1,0-.224l.022-.652.11-2.506c.086-2.2.208-5.349.361-9.244.281-7.82.615-18.653.937-30.709v.011l-.095-1.685c-.357-6.2-.981-12.1-1.624-17.443s-1.329-10.153-1.922-14.185c-.606-4.017-1.1-7.272-1.443-9.545-.166-1.113-.3-1.984-.387-2.6l-.093-.676A1.331,1.331,0,0,1-873.244,157.508Z" transform="translate(873.246 -157.508)" fill="#263238"/>
          </g>
          <g id="Group_2127" data-name="Group 2127" transform="translate(101.868 11.726)">
            <path id="Path_1241" data-name="Path 1241" d="M-824.381,165.915a1,1,0,0,1-.069-.284l-.137-.827-.091-.6c-.026-.219-.034-.461-.054-.719a15.854,15.854,0,0,1-.056-1.757l.022-1.023c.012-.355.066-.723.1-1.1a23.03,23.03,0,0,1,.37-2.421,26.631,26.631,0,0,1,1.773-5.317,26.569,26.569,0,0,1,2.939-4.775,22.931,22.931,0,0,1,1.617-1.838c.272-.272.519-.549.784-.786l.77-.675a15.8,15.8,0,0,1,1.384-1.085c.21-.151.4-.3.584-.421l.519-.314.722-.427a1.024,1.024,0,0,1,.262-.129,1.064,1.064,0,0,1-.229.185l-.686.475-.5.336c-.178.129-.362.283-.565.44a17.015,17.015,0,0,0-1.34,1.111l-.749.683c-.258.239-.5.519-.761.79-.54.535-1.036,1.178-1.576,1.837A27.5,27.5,0,0,0-822.23,152a27.606,27.606,0,0,0-1.775,5.245c-.158.837-.332,1.63-.4,2.387-.038.377-.1.741-.117,1.092l-.042,1.012a16.95,16.95,0,0,0,.01,1.742c.01.257.008.5.025.715l.063.6.077.83A1.02,1.02,0,0,1-824.381,165.915Z" transform="translate(824.797 -141.409)" fill="#263238"/>
          </g>
          <g id="Group_2128" data-name="Group 2128" transform="translate(104.222 46.179)">
            <path id="Path_1242" data-name="Path 1242" d="M-810.565,203.178a1.853,1.853,0,0,1-.143-.369c-.091-.277-.206-.634-.349-1.074-.307-.974-.728-2.318-1.244-3.963-1.048-3.347-2.49-7.972-4.143-13.06s-3.192-9.688-4.428-12.962c-.643-1.627-1.269-2.9-1.652-3.806-.195-.451-.339-.8-.431-1.047a1.763,1.763,0,0,1-.125-.375,1.931,1.931,0,0,1,.184.35l.486,1.019c.417.886,1.074,2.146,1.748,3.773,1.3,3.269,2.864,7.854,4.524,12.946s3.063,9.729,4.055,13.095c.5,1.682.885,3.048,1.146,3.993l.292,1.092A1.75,1.75,0,0,1-810.565,203.178Z" transform="translate(823.081 -166.523)" fill="#263238"/>
          </g>
          <g id="Group_2129" data-name="Group 2129" transform="translate(118.207 80.477)">
            <path id="Path_1243" data-name="Path 1243" d="M-798.276,192.462c-.017.053-.829-.184-2.17-.392a20.592,20.592,0,0,0-5.278-.121,20.592,20.592,0,0,0-5.13,1.257c-1.265.494-2.006.9-2.033.851a2.12,2.12,0,0,1,.5-.332,13.005,13.005,0,0,1,1.451-.73,18.085,18.085,0,0,1,5.18-1.366,18.086,18.086,0,0,1,5.353.217,12.9,12.9,0,0,1,1.575.4A2.1,2.1,0,0,1-798.276,192.462Z" transform="translate(812.887 -191.524)" fill="#263238"/>
          </g>
          <g id="Group_2130" data-name="Group 2130" transform="translate(19.43 58.041)">
            <path id="Path_1244" data-name="Path 1244" d="M-868.008,195.39a7.808,7.808,0,0,1-.576-.86c-.379-.547-.937-1.331-1.685-2.258-1.476-1.869-3.648-4.346-6.06-7.071s-4.6-5.2-6.139-7.019c-.77-.914-1.387-1.656-1.8-2.18a6.309,6.309,0,0,1-.62-.833,6.513,6.513,0,0,1,.715.752c.48.539,1.113,1.251,1.877,2.111,1.624,1.818,3.8,4.257,6.209,6.954,2.413,2.726,4.562,5.232,6,7.145a27.028,27.028,0,0,1,1.609,2.331c.173.287.284.524.366.679S-868,195.385-868.008,195.39Z" transform="translate(884.889 -175.17)" fill="#263238"/>
          </g>
          <g id="Group_2131" data-name="Group 2131" transform="translate(31.93 70.351)" opacity="0.3">
            <path id="Path_1245" data-name="Path 1245" d="M-867.135,220.5c.351-12.5,1-24.016-.133-36.355-.506,10.949-4.494,23.766-8.508,33.965Z" transform="translate(875.777 -184.143)"/>
          </g>
          <g id="Group_2132" data-name="Group 2132" transform="translate(103.873 45.061)" opacity="0.3">
            <path id="Path_1246" data-name="Path 1246" d="M-819.991,173.665s-3.559-7.957-3.317-7.957a121.16,121.16,0,0,0,8.246,45.793Z" transform="translate(823.336 -165.708)"/>
          </g>
          <g id="Group_2133" data-name="Group 2133" transform="translate(55.568 95.214)">
            <path id="Path_1247" data-name="Path 1247" d="M-816.681,202.267a2.98,2.98,0,0,1-.425.272l-1.251.726c-1.082.641-2.646,1.563-4.561,2.74s-4.2,2.576-6.784,4.042a60.152,60.152,0,0,1-8.751,4.135,29.5,29.5,0,0,1-9.481,1.93,14.253,14.253,0,0,1-4.2-.594,10,10,0,0,1-3.276-1.718,8.318,8.318,0,0,1-2.941-4.394,6.236,6.236,0,0,1-.191-1.44,3.03,3.03,0,0,1,.029-.506,9.268,9.268,0,0,0,.283,1.915,8.362,8.362,0,0,0,2.962,4.246,9.853,9.853,0,0,0,3.213,1.642,14.141,14.141,0,0,0,4.124.551,29.674,29.674,0,0,0,9.373-1.936,61.875,61.875,0,0,0,8.716-4.091c2.59-1.447,4.877-2.836,6.813-3.978s3.515-2.045,4.616-2.652l1.281-.675A2.868,2.868,0,0,1-816.681,202.267Z" transform="translate(858.547 -202.266)" fill="#263238"/>
          </g>
          <g id="Group_2134" data-name="Group 2134" transform="translate(80.123 77.095)">
            <path id="Path_1248" data-name="Path 1248" d="M-823.429,189.059a7.151,7.151,0,0,1-.239,1.077,12.722,12.722,0,0,1-.361,1.243c-.161.479-.321,1.033-.569,1.619-.229.594-.487,1.242-.818,1.914-.3.687-.691,1.384-1.091,2.126a34.373,34.373,0,0,1-3.092,4.515,34.6,34.6,0,0,1-3.825,3.917c-.65.535-1.258,1.056-1.873,1.484-.6.455-1.18.834-1.718,1.176-.525.358-1.038.623-1.476.874a12.534,12.534,0,0,1-1.148.6,7.089,7.089,0,0,1-1.01.445,7.42,7.42,0,0,1,.952-.556c.313-.165.692-.372,1.117-.641s.927-.542,1.442-.91c.525-.351,1.1-.738,1.68-1.2.6-.433,1.2-.958,1.838-1.494a36.538,36.538,0,0,0,3.77-3.9,36.494,36.494,0,0,0,3.085-4.457c.4-.731.8-1.419,1.106-2.095.339-.661.606-1.3.848-1.882.261-.576.434-1.122.611-1.591s.31-.882.41-1.221A7.426,7.426,0,0,1-823.429,189.059Z" transform="translate(840.648 -189.059)" fill="#263238"/>
          </g>
          <g id="Group_2135" data-name="Group 2135" transform="translate(22.176 45.393)">
            <path id="Path_1249" data-name="Path 1249" d="M-868.559,169.115c-.019.086-3.243-.55-7.2-1.421s-7.149-1.649-7.13-1.735,3.242.549,7.2,1.421S-868.54,169.028-868.559,169.115Z" transform="translate(882.887 -165.95)" fill="#fafafa"/>
          </g>
          <g id="Group_2136" data-name="Group 2136" transform="translate(22.754 42.429)">
            <path id="Path_1250" data-name="Path 1250" d="M-868.716,166.294a11.75,11.75,0,0,1-2.039-.229c-1.251-.192-2.971-.5-4.866-.859l-4.848-.951a14.34,14.34,0,0,1-2-.454,11.662,11.662,0,0,1,2.037.23c1.251.191,2.973.5,4.869.857l4.845.951A14.423,14.423,0,0,1-868.716,166.294Z" transform="translate(882.466 -163.79)" fill="#fafafa"/>
          </g>
          <g id="Group_2137" data-name="Group 2137" transform="translate(40.192 44.883)">
            <path id="Path_1251" data-name="Path 1251" d="M-807.546,166.1c0,.088-13.927.056-31.1-.073s-31.106-.306-31.1-.4,13.926-.056,31.107.073S-807.545,166.007-807.546,166.1Z" transform="translate(869.755 -165.578)" fill="#fafafa"/>
          </g>
          <g id="Group_2138" data-name="Group 2138" transform="translate(39.417 48.397)">
            <path id="Path_1252" data-name="Path 1252" d="M-806.3,168.3c0,.089-14.332.16-32.007.16s-32.01-.071-32.01-.16,14.328-.161,32.01-.161S-806.3,168.211-806.3,168.3Z" transform="translate(870.32 -168.14)" fill="#fafafa"/>
          </g>
          <g id="Group_2139" data-name="Group 2139" transform="translate(106.151 41.17)">
            <path id="Path_1253" data-name="Path 1253" d="M-798.312,162.909c0-.006.026-.011.075-.014-.027.07-.056.022-.095.038h-.055l0-.059h.073l.2,0-.188.07c-1.143.418-5.929,2.04-11.581,4.192l-8.326,3.2-2.526.967a5.863,5.863,0,0,1-.941.317,5.746,5.746,0,0,1,.893-.433c.584-.259,1.434-.623,2.489-1.062,2.109-.879,5.036-2.059,8.3-3.292,5.657-2.154,10.488-3.675,11.675-3.956l.008.067-.07-.008h0l0-.059h.026l.029,0c.036.021.07-.025.089.048C-798.287,162.921-798.312,162.915-798.312,162.909Z" transform="translate(821.675 -162.872)" fill="#fafafa"/>
          </g>
          <g id="Group_2140" data-name="Group 2140" transform="translate(104.641 37.209)">
            <path id="Path_1254" data-name="Path 1254" d="M-798.407,159.988c.027.084-5.405,1.985-12.133,4.246s-12.208,4.026-12.236,3.943,5.4-1.986,12.133-4.247S-798.436,159.9-798.407,159.988Z" transform="translate(822.776 -159.985)" fill="#fafafa"/>
          </g>
          <g id="Group_2141" data-name="Group 2141" transform="translate(56.684 0.464)">
            <path id="Path_1255" data-name="Path 1255" d="M-826.8,133.2a2.859,2.859,0,0,1,.058.5,11.849,11.849,0,0,1,.037,1.442,15.534,15.534,0,0,1-1.1,5.176,15.975,15.975,0,0,1-4.589,6.338,15.462,15.462,0,0,1-8.9,3.439,15.484,15.484,0,0,1-9.253-2.329,15.981,15.981,0,0,1-5.326-5.733,15.56,15.56,0,0,1-1.719-5,12.2,12.2,0,0,1-.138-1.435,2.913,2.913,0,0,1,0-.5,2.961,2.961,0,0,1,.069.5c.023.328.093.807.2,1.419a16.181,16.181,0,0,0,1.794,4.915,15.953,15.953,0,0,0,5.286,5.593,15.3,15.3,0,0,0,9.075,2.259,15.3,15.3,0,0,0,8.729-3.347,15.967,15.967,0,0,0,4.566-6.194,16.169,16.169,0,0,0,1.183-5.1c.029-.62.04-1.1.023-1.432A3.076,3.076,0,0,1-826.8,133.2Z" transform="translate(857.733 -133.2)" fill="#fafafa"/>
          </g>
          <g id="Group_2142" data-name="Group 2142" transform="translate(1.112 50.583)">
            <path id="Path_1256" data-name="Path 1256" d="M-887.112,169.734a2.68,2.68,0,0,1-.325.6c-.226.375-.571.905-1.012,1.55a60.2,60.2,0,0,1-3.711,4.854,60.233,60.233,0,0,1-4.18,4.457c-.564.541-1.032.969-1.364,1.253a2.72,2.72,0,0,1-.536.418,2.915,2.915,0,0,1,.45-.51l1.289-1.322c1.087-1.118,2.557-2.69,4.1-4.5s2.845-3.523,3.771-4.777c.429-.583.794-1.081,1.093-1.488A2.854,2.854,0,0,1-887.112,169.734Z" transform="translate(898.242 -169.734)" fill="#fafafa"/>
          </g>
          <g id="Group_2143" data-name="Group 2143" transform="translate(67.82 84.56)" opacity="0.3">
            <path id="Path_1257" data-name="Path 1257" d="M-835.3,206.9c-3.125,1.775-7.338,2.058-11.1,2.158a4.768,4.768,0,0,1-2.094-.277,1.77,1.77,0,0,1-1.124-1.649c.076-.851.923-1.4,1.711-1.724,3.037-1.257,6.449-1.185,9.637-1.986,5.438-1.368,10.983-5.247,15.216-8.924A33.077,33.077,0,0,1-835.3,206.9" transform="translate(849.616 -194.5)"/>
          </g>
        </g>
        <g id="Group_2200" data-name="Group 2200" transform="translate(83.17)">
          <g id="Group_2195" data-name="Group 2195">
            <g id="Group_2193" data-name="Group 2193" transform="translate(3.662 13.381)">
              <g id="Group_2153" data-name="Group 2153">
                <g id="Group_2152" data-name="Group 2152">
                  <g id="Group_2151" data-name="Group 2151">
                    <g id="Group_2147" data-name="Group 2147">
                      <g id="Group_2146" data-name="Group 2146">
                        <g id="Group_2145" data-name="Group 2145">
                          <path id="Path_1258" data-name="Path 1258" d="M-841.164,163.738h0A13.961,13.961,0,0,1-854.013,149.7c.03-3.476.067-6.257.067-6.257s-11.2-1.741-11.341-12.941,1.8-36.919,1.8-36.919h0A38.923,38.923,0,0,1-824.369,98.5l1.659,1.277-3.412,50.979A13.961,13.961,0,0,1-841.164,163.738Z" transform="translate(865.294 -90.417)" fill="#ffc8b0"/>
                        </g>
                      </g>
                    </g>
                    <g id="Group_2150" data-name="Group 2150" transform="translate(11.303 48.713)">
                      <g id="Group_2149" data-name="Group 2149">
                        <g id="Group_2148" data-name="Group 2148">
                          <path id="Path_1259" data-name="Path 1259" d="M-857.029,130.075a26.055,26.055,0,0,0,14.6-4.15s-3.452,8.06-14.628,7.051Z" transform="translate(857.055 -125.925)" fill="#ea997d"/>
                        </g>
                      </g>
                    </g>
                  </g>
                </g>
              </g>
              <g id="Group_2161" data-name="Group 2161" transform="translate(40.767 20.606)">
                <g id="Group_2156" data-name="Group 2156">
                  <g id="Group_2155" data-name="Group 2155">
                    <g id="Group_2154" data-name="Group 2154">
                      <path id="Path_1260" data-name="Path 1260" d="M-835.142,105.79c.192-.082,7.7-2.276,7.452,5.382s-7.883,5.832-7.888,5.612S-835.142,105.79-835.142,105.79Z" transform="translate(835.578 -105.437)" fill="#ffc8b0"/>
                    </g>
                  </g>
                </g>
                <g id="Group_2160" data-name="Group 2160" transform="translate(2.424 2.507)">
                  <g id="Group_2159" data-name="Group 2159">
                    <g id="Group_2158" data-name="Group 2158">
                      <g id="Group_2157" data-name="Group 2157">
                        <path id="Path_1261" data-name="Path 1261" d="M-833.8,113.278c.036-.025.132.1.354.207a1.327,1.327,0,0,0,1,.052c.818-.27,1.541-1.532,1.622-2.911a4.419,4.419,0,0,0-.313-1.922,1.54,1.54,0,0,0-.97-1.056.681.681,0,0,0-.8.34c-.108.211-.066.365-.106.377-.022.018-.161-.133-.089-.447a.849.849,0,0,1,.317-.471,1,1,0,0,1,.744-.172,1.874,1.874,0,0,1,1.355,1.232,4.517,4.517,0,0,1,.4,2.148c-.1,1.542-.936,2.961-2.052,3.244a1.426,1.426,0,0,1-1.213-.241C-833.8,113.463-833.83,113.29-833.8,113.278Z" transform="translate(833.811 -107.265)" fill="#ea997d"/>
                      </g>
                    </g>
                  </g>
                </g>
              </g>
              <g id="Group_2192" data-name="Group 2192" transform="translate(3.905 11.205)">
                <g id="Group_2191" data-name="Group 2191">
                  <g id="Group_2184" data-name="Group 2184" transform="translate(0 6.033)">
                    <g id="Group_2183" data-name="Group 2183">
                      <g id="Group_2182" data-name="Group 2182">
                        <g id="Group_2169" data-name="Group 2169">
                          <g id="Group_2164" data-name="Group 2164" transform="translate(1.97 2.438)">
                            <g id="Group_2163" data-name="Group 2163">
                              <g id="Group_2162" data-name="Group 2162">
                                <path id="Path_1262" data-name="Path 1262" d="M-861.01,106.2a1.6,1.6,0,0,0,1.542,1.613,1.529,1.529,0,0,0,1.649-1.442,1.6,1.6,0,0,0-1.541-1.615A1.531,1.531,0,0,0-861.01,106.2Z" transform="translate(861.011 -104.759)" fill="#263238"/>
                              </g>
                            </g>
                          </g>
                          <g id="Group_2168" data-name="Group 2168">
                            <g id="Group_2167" data-name="Group 2167">
                              <g id="Group_2166" data-name="Group 2166">
                                <g id="Group_2165" data-name="Group 2165">
                                  <path id="Path_1263" data-name="Path 1263" d="M-862.422,104.664c.2.209,1.41-.689,3.131-.685,1.72-.019,2.982.866,3.17.654.091-.093-.111-.469-.661-.87a4.385,4.385,0,0,0-2.537-.782,4.207,4.207,0,0,0-2.493.805C-862.341,104.192-862.519,104.571-862.422,104.664Z" transform="translate(862.447 -102.982)" fill="#263238"/>
                                </g>
                              </g>
                            </g>
                          </g>
                        </g>
                        <g id="Group_2177" data-name="Group 2177" transform="translate(16.918 0.321)">
                          <g id="Group_2172" data-name="Group 2172" transform="translate(1.577 2.493)">
                            <g id="Group_2171" data-name="Group 2171">
                              <g id="Group_2170" data-name="Group 2170">
                                <path id="Path_1264" data-name="Path 1264" d="M-848.965,106.479a1.6,1.6,0,0,0,1.542,1.613,1.53,1.53,0,0,0,1.649-1.442,1.6,1.6,0,0,0-1.541-1.615A1.531,1.531,0,0,0-848.965,106.479Z" transform="translate(848.966 -105.033)" fill="#263238"/>
                              </g>
                            </g>
                          </g>
                          <g id="Group_2176" data-name="Group 2176">
                            <g id="Group_2175" data-name="Group 2175">
                              <g id="Group_2174" data-name="Group 2174">
                                <g id="Group_2173" data-name="Group 2173">
                                  <path id="Path_1265" data-name="Path 1265" d="M-850.09,104.9c.2.209,1.412-.689,3.132-.685,1.719-.019,2.983.866,3.169.654.092-.092-.109-.469-.66-.87a4.4,4.4,0,0,0-2.537-.782,4.216,4.216,0,0,0-2.493.805C-850.006,104.427-850.187,104.8-850.09,104.9Z" transform="translate(850.115 -103.216)" fill="#263238"/>
                                </g>
                              </g>
                            </g>
                          </g>
                        </g>
                        <g id="Group_2181" data-name="Group 2181" transform="translate(6.312 0.426)">
                          <g id="Group_2180" data-name="Group 2180">
                            <g id="Group_2179" data-name="Group 2179">
                              <g id="Group_2178" data-name="Group 2178">
                                <path id="Path_1266" data-name="Path 1266" d="M-853.461,117.633a11.433,11.433,0,0,0-2.8-.5c-.439-.045-.855-.132-.929-.432a2.223,2.223,0,0,1,.294-1.3l1.3-3.346c1.805-4.765,3.111-8.683,2.919-8.754s-1.812,3.733-3.618,8.5q-.65,1.761-1.244,3.367a2.54,2.54,0,0,0-.228,1.724,1.106,1.106,0,0,0,.722.643,3,3,0,0,0,.746.1A11.194,11.194,0,0,0-853.461,117.633Z" transform="translate(857.846 -103.292)" fill="#263238"/>
                              </g>
                            </g>
                          </g>
                        </g>
                      </g>
                    </g>
                  </g>
                  <g id="Group_2187" data-name="Group 2187" transform="translate(16.49)">
                    <g id="Group_2186" data-name="Group 2186">
                      <g id="Group_2185" data-name="Group 2185">
                        <path id="Path_1267" data-name="Path 1267" d="M-850.418,99.875c.17.468,1.889.246,3.908.49,2.024.2,3.652.794,3.92.375.119-.2-.163-.642-.822-1.095a6.539,6.539,0,0,0-2.907-1.017,6.547,6.547,0,0,0-3.058.358C-850.118,99.285-850.491,99.652-850.418,99.875Z" transform="translate(850.427 -98.585)" fill="#263238"/>
                      </g>
                    </g>
                  </g>
                  <g id="Group_2190" data-name="Group 2190" transform="translate(0.614 0.949)">
                    <g id="Group_2189" data-name="Group 2189">
                      <g id="Group_2188" data-name="Group 2188">
                        <path id="Path_1268" data-name="Path 1268" d="M-861.956,101.061c.3.391,1.488-.015,2.915-.034,1.424-.07,2.633.262,2.91-.147.122-.2-.067-.59-.6-.96a4.047,4.047,0,0,0-2.369-.641,4.029,4.029,0,0,0-2.324.786C-861.924,100.467-862.089,100.87-861.956,101.061Z" transform="translate(862 -99.277)" fill="#263238"/>
                      </g>
                    </g>
                  </g>
                </g>
              </g>
            </g>
            <g id="Group_2194" data-name="Group 2194">
              <path id="Path_1269" data-name="Path 1269" d="M-867.946,90.137a4.134,4.134,0,0,1,1.526-3.694,2.934,2.934,0,0,1,3.8.284,3.422,3.422,0,0,1,2.943-4.15c1.826-.117,3.385,1.263,5.149,1.748a8.306,8.306,0,0,0,5.23-.6c1.657-.667,3.206-1.589,4.885-2.2a14.487,14.487,0,0,1,10.888.438,14.491,14.491,0,0,1,7.429,7.972,6.359,6.359,0,0,1,6.744,2.553,10.431,10.431,0,0,1,1.6,7.349,23.3,23.3,0,0,1-1.281,5.025c0,.144.015.285.012.429-.115,6.16-.812,13.392-3.439,13.432-4.579.07-3.489-8.558-3.489-8.558-5.621-2.172-3.527-10.592-4.932-11.869s-4.345-4.246-16.111,1.768c-4.57,2.335-10.644,2.262-13.962,1.509-.1-.021-.2-.036-.292-.059-.021-.005-.048-.008-.069-.014s-.062-.029-.1-.04a10.557,10.557,0,0,1-3.017-1.28,5.963,5.963,0,0,1-2.487-2.764,3.263,3.263,0,0,1,.642-3.507A7.17,7.17,0,0,1-867.946,90.137Z" transform="translate(867.963 -80.663)" fill="#263238"/>
            </g>
          </g>
          <path id="Path_1270" data-name="Path 1270" d="M-855.65,118.128a7.7,7.7,0,0,0,1,1.956,2.6,2.6,0,0,0,1.847,1.073,2.333,2.333,0,0,0,1.973-1.076,3.73,3.73,0,0,0,.55-2.243c-.032-.707-.355-1.552-1.059-1.634a1.755,1.755,0,0,0-.853.189l-3.694,1.5" transform="translate(872.454 -67.449)" fill="#ea997d"/>
          <g id="Group_2196" data-name="Group 2196" transform="translate(15.864 48.368)">
            <path id="Path_1271" data-name="Path 1271" d="M-853.984,121.272a5.343,5.343,0,0,0,1.97-.244,2.816,2.816,0,0,0,1.49-1.353,2.968,2.968,0,0,0,.048-2.417,2.634,2.634,0,0,0-.322-.551c-.146-.154-.119-.147-.279-.123-.151.041-.394.155-.591.232l-.608.247c-.79.321-1.506.6-2.111.826a6.708,6.708,0,0,1-2.011.606,6.735,6.735,0,0,1,1.829-1.036c.58-.28,1.277-.6,2.055-.955l.6-.268a6.811,6.811,0,0,1,.675-.278.871.871,0,0,1,.549.016,1.015,1.015,0,0,1,.407.322,3.19,3.19,0,0,1,.414.7,3.461,3.461,0,0,1-.112,2.956,3.157,3.157,0,0,1-1.875,1.516,2.979,2.979,0,0,1-1.6.062C-853.826,121.433-854,121.309-853.984,121.272Z" transform="translate(856.4 -115.92)" fill="#263238"/>
          </g>
          <g id="Group_2197" data-name="Group 2197" transform="translate(7.321 10.11)">
            <path id="Path_1272" data-name="Path 1272" d="M-832.5,94.506a6.83,6.83,0,0,0,.005-1.355A5.28,5.28,0,0,0-834.244,90a7.118,7.118,0,0,0-5.042-1.665,21.941,21.941,0,0,0-6.552,1.465,35.242,35.242,0,0,1-3.39.984,17.576,17.576,0,0,1-3.276.4,17.794,17.794,0,0,1-5.518-.726A17.106,17.106,0,0,1-861.474,89c-.388-.214-.675-.4-.867-.535a1.491,1.491,0,0,1-.285-.214c.018-.029.428.24,1.213.637a19.114,19.114,0,0,0,3.457,1.353,18.149,18.149,0,0,0,5.444.646,17.646,17.646,0,0,0,3.214-.41c1.1-.247,2.216-.605,3.358-.982a21.74,21.74,0,0,1,6.651-1.456,7.3,7.3,0,0,1,5.2,1.8,5.3,5.3,0,0,1,1.72,3.3A3.085,3.085,0,0,1-832.5,94.506Z" transform="translate(862.627 -88.033)" fill="#455a64"/>
          </g>
          <g id="Group_2198" data-name="Group 2198" transform="translate(39.185 13.663)">
            <path id="Path_1273" data-name="Path 1273" d="M-832.427,112.47a.874.874,0,0,1-.148-.236c-.089-.158-.206-.4-.348-.713a14.441,14.441,0,0,1-.892-2.785,15.293,15.293,0,0,1-.288-4.33,38.43,38.43,0,0,1,1-5.2,10.205,10.205,0,0,0,.011-5.149,5.219,5.219,0,0,0-1.073-1.949,3.928,3.928,0,0,0-1.61-1.056,3.675,3.675,0,0,0-2.763.071,5.262,5.262,0,0,0-.86.6,2.133,2.133,0,0,1,.8-.716,3.716,3.716,0,0,1,2.9-.178,4.12,4.12,0,0,1,1.737,1.092,5.446,5.446,0,0,1,1.161,2.044,10.309,10.309,0,0,1,.023,5.305,41.336,41.336,0,0,0-1.021,5.161,15.847,15.847,0,0,0,.215,4.26,16.717,16.717,0,0,0,.782,2.781A10.187,10.187,0,0,1-832.427,112.47Z" transform="translate(839.4 -90.622)" fill="#455a64"/>
          </g>
          <g id="Group_2199" data-name="Group 2199" transform="translate(6.129 3.082)">
            <path id="Path_1274" data-name="Path 1274" d="M-831.1,95.505a2.184,2.184,0,0,1,0-.45c.012-.326.027-.753.048-1.284a14.913,14.913,0,0,0-.517-4.651,8.23,8.23,0,0,0-1.5-2.826,5.78,5.78,0,0,0-3-1.984,7.572,7.572,0,0,0-4.007.165,18.52,18.52,0,0,0-4.009,1.816,33.331,33.331,0,0,1-3.974,2.044,12.143,12.143,0,0,1-4.1.823A12.894,12.894,0,0,1-855.9,88.7a14.527,14.527,0,0,1-3.043-1.254,12.439,12.439,0,0,1-3.6-3.076,7.708,7.708,0,0,1-.73-1.065,2.259,2.259,0,0,1-.217-.394,2.424,2.424,0,0,1,.273.358,9.611,9.611,0,0,0,.774,1.019,12.861,12.861,0,0,0,3.616,2.952,14.57,14.57,0,0,0,3,1.195,12.8,12.8,0,0,0,3.671.42,11.945,11.945,0,0,0,3.985-.819A33.408,33.408,0,0,0-844.242,86a18.612,18.612,0,0,1,4.081-1.84,7.859,7.859,0,0,1,4.176-.147,6.041,6.041,0,0,1,3.135,2.1,8.366,8.366,0,0,1,1.509,2.932,14.205,14.205,0,0,1,.421,4.723c-.033.56-.075.992-.11,1.284A2.3,2.3,0,0,1-831.1,95.505Z" transform="translate(863.495 -82.91)" fill="#455a64"/>
          </g>
        </g>
      </g>
      <g id="Group_2227" data-name="Group 2227" transform="translate(98.567 194.393)">
        <g id="Group_2205" data-name="Group 2205" transform="translate(15.813)">
          <g id="Group_2204" data-name="Group 2204">
            <g id="Group_2203" data-name="Group 2203">
              <path id="Path_1276" data-name="Path 1276" d="M-917.834,209.14c1.195,1.686,3.494,1.111,4.557.073a8.605,8.605,0,0,0,1.907-3.97c.921-3.268,1.847-6.7,1.13-10.015a5.567,5.567,0,0,0-1.294-2.714,2.907,2.907,0,0,0-2.759-.9,4.246,4.246,0,0,0-2.39,2.539,23.849,23.849,0,0,0-2.3,10.252,8.28,8.28,0,0,0,1.147,4.734" transform="translate(918.981 -191.536)" fill="#fc7f59"/>
            </g>
          </g>
        </g>
        <g id="Group_2208" data-name="Group 2208" transform="translate(15.813)" opacity="0.2">
          <g id="Group_2207" data-name="Group 2207">
            <g id="Group_2206" data-name="Group 2206">
              <path id="Path_1277" data-name="Path 1277" d="M-917.834,209.14c1.195,1.686,3.494,1.111,4.557.073a8.605,8.605,0,0,0,1.907-3.97c.921-3.268,1.847-6.7,1.13-10.015a5.567,5.567,0,0,0-1.294-2.714,2.907,2.907,0,0,0-2.759-.9,4.246,4.246,0,0,0-2.39,2.539,23.849,23.849,0,0,0-2.3,10.252,8.28,8.28,0,0,0,1.147,4.734" transform="translate(918.981 -191.536)"/>
            </g>
          </g>
        </g>
        <g id="Group_2211" data-name="Group 2211" transform="translate(19.148 25.172)">
          <g id="Group_2210" data-name="Group 2210">
            <g id="Group_2209" data-name="Group 2209">
              <path id="Path_1278" data-name="Path 1278" d="M-914.249,210.863a10.266,10.266,0,0,1,6.368-.811,5.289,5.289,0,0,1,3.156,1.387,2.264,2.264,0,0,1,.051,3.142,3.013,3.013,0,0,1-1.981.516c-1.685-.011-3.556-.3-4.9.726-.764.582-1.27,1.546-2.185,1.836a2.168,2.168,0,0,1-2.394-1.048,3.707,3.707,0,0,1-.287-2.735A4.178,4.178,0,0,1-914.249,210.863Z" transform="translate(916.55 -209.884)" fill="#fc7f59"/>
            </g>
          </g>
        </g>
        <g id="Group_2214" data-name="Group 2214" transform="translate(0 5.551)">
          <g id="Group_2213" data-name="Group 2213">
            <g id="Group_2212" data-name="Group 2212">
              <path id="Path_1279" data-name="Path 1279" d="M-916.789,210.083a6.157,6.157,0,0,0,.926-5.674,10.918,10.918,0,0,0-3.384-4.85,18.072,18.072,0,0,0-6.032-3.513,6.4,6.4,0,0,0-2.707-.443,2.836,2.836,0,0,0-2.261,1.386c-.625,1.21-.011,2.67.653,3.861a45.806,45.806,0,0,0,3.982,5.99,10.688,10.688,0,0,0,4.364,3.7c1.808.679,3.681.587,4.63-.669" transform="translate(930.508 -195.582)" fill="#fc7f59"/>
            </g>
          </g>
        </g>
        <g id="Group_2218" data-name="Group 2218" transform="translate(17.002 27.524)">
          <g id="Group_2217" data-name="Group 2217">
            <g id="Group_2216" data-name="Group 2216">
              <g id="Group_2215" data-name="Group 2215">
                <path id="Path_1280" data-name="Path 1280" d="M-918.09,227.214a3.729,3.729,0,0,0,.1-.77c.051-.56.115-1.264.192-2.1a30.558,30.558,0,0,1,.454-3.081,23.885,23.885,0,0,1,1.1-3.641,13.4,13.4,0,0,1,1.837-3.3,6.911,6.911,0,0,1,2.335-1.963,6.559,6.559,0,0,1,1.971-.627,3.7,3.7,0,0,0,.766-.115,3.628,3.628,0,0,0-.779-.007,5.966,5.966,0,0,0-2.058.547,6.919,6.919,0,0,0-2.463,1.981,13.067,13.067,0,0,0-1.9,3.365,22.214,22.214,0,0,0-1.091,3.7,25.951,25.951,0,0,0-.391,3.121c-.062.892-.082,1.613-.092,2.113A3.6,3.6,0,0,0-918.09,227.214Z" transform="translate(918.114 -211.599)" fill="#263238"/>
              </g>
            </g>
          </g>
        </g>
        <g id="Group_2222" data-name="Group 2222" transform="translate(16.97 6.802)">
          <g id="Group_2221" data-name="Group 2221">
            <g id="Group_2220" data-name="Group 2220">
              <g id="Group_2219" data-name="Group 2219">
                <path id="Path_1281" data-name="Path 1281" d="M-917.946,231.215a1.646,1.646,0,0,0,.018-.357c0-.269-.005-.606-.008-1.021-.008-.886-.015-2.168.023-3.751.06-3.166.309-7.537.807-12.344s1.181-9.133,1.8-12.237c.147-.778.295-1.479.435-2.092s.248-1.144.358-1.574l.233-.993a1.539,1.539,0,0,0,.06-.353,1.482,1.482,0,0,0-.122.336l-.291.98c-.129.425-.261.951-.411,1.564s-.321,1.309-.482,2.087a115.446,115.446,0,0,0-1.9,12.249c-.5,4.817-.712,9.2-.715,12.374-.01,1.587.032,2.871.077,3.758.028.414.049.752.069,1.019A1.429,1.429,0,0,0-917.946,231.215Z" transform="translate(918.138 -196.494)" fill="#263238"/>
              </g>
            </g>
          </g>
        </g>
        <g id="Group_2226" data-name="Group 2226" transform="translate(5.692 9.474)">
          <g id="Group_2225" data-name="Group 2225">
            <g id="Group_2224" data-name="Group 2224">
              <g id="Group_2223" data-name="Group 2223">
                <path id="Path_1282" data-name="Path 1282" d="M-914.916,222.038a6.973,6.973,0,0,0-.014-1.067c-.044-.685-.144-1.674-.343-2.886a37.976,37.976,0,0,0-.964-4.2,37.249,37.249,0,0,0-1.788-4.97,26.538,26.538,0,0,0-5.214-8.017,13.036,13.036,0,0,0-1.222-1.124c-.188-.156-.354-.313-.523-.436l-.474-.322a6.655,6.655,0,0,0-.9-.569,31.669,31.669,0,0,1,2.956,2.607,27.967,27.967,0,0,1,5.086,7.99,39.957,39.957,0,0,1,1.8,4.924c.469,1.543.785,2.965,1.023,4.161s.36,2.18.44,2.858A6.854,6.854,0,0,0-914.916,222.038Z" transform="translate(926.359 -198.442)" fill="#263238"/>
              </g>
            </g>
          </g>
        </g>
      </g>
      <g id="Group_2228" data-name="Group 2228" transform="translate(101.259 106.174)">
        <path id="Path_1283" data-name="Path 1283" d="M-902.294,160.074l-26.252-1.12V132.7h26.252Z" transform="translate(928.546 -125.195)" fill="#066696"/>
        <path id="Path_1284" data-name="Path 1284" d="M-909.41,160.989-899,153.482V127.23l-10.409,7.508Z" transform="translate(935.661 -127.23)" fill="#e8505b"/>
        <path id="Path_1285" data-name="Path 1285" d="M-928.546,134.738l10.409-7.508h26.252l-10.409,7.508Z" transform="translate(928.546 -127.23)" fill="#e8505b"/>
        <path id="Path_1286" data-name="Path 1286" d="M-909.41,162.109-899,153.482V127.23l-10.409,7.508Z" transform="translate(935.661 -127.23)" fill="#e8505b"/>
        <path id="Path_1287" data-name="Path 1287" d="M-928.546,134.738l10.409-7.508h26.252l-10.409,7.508Z" transform="translate(928.546 -127.23)" fill="#1285b2"/>
        <path id="Path_1288" data-name="Path 1288" d="M-909.41,162.109-899,153.482V127.23l-10.409,7.508Z" transform="translate(935.661 -127.23)" fill="#033b51"/>
      </g>
      <g id="Group_2255" data-name="Group 2255" transform="translate(97.414 101.871)">
        <g id="Group_2229" data-name="Group 2229" transform="translate(42.937 31.557)">
          <path id="Path_1289" data-name="Path 1289" d="M-898.813,147.1a3.85,3.85,0,0,1,.161,1.546c-.128.258-.036.071-.065.129h0l0,0-.008.007-.015.011-.033.025-.062.047-.125.091-.237.167c-.152.106-.292.2-.413.27-.24.145-.4.218-.429.182s.086-.173.292-.365c.1-.1.229-.206.372-.324l.225-.182.121-.095.063-.048.032-.025.015-.012.008-.005,0,0h0c-.029.058.063-.129-.064.128A3.844,3.844,0,0,1-898.813,147.1Z" transform="translate(900.05 -147.097)" fill="#ff905f"/>
        </g>
        <g id="Group_2230" data-name="Group 2230" transform="translate(44.013 24.924)">
          <path id="Path_1290" data-name="Path 1290" d="M-899.1,142.262a4.405,4.405,0,0,1,.161,1.657,4.41,4.41,0,0,1-.161,1.659,4.391,4.391,0,0,1-.162-1.659A4.387,4.387,0,0,1-899.1,142.262Z" transform="translate(899.266 -142.262)" fill="#ff905f"/>
        </g>
        <g id="Group_2231" data-name="Group 2231" transform="translate(44.013 18.291)">
          <path id="Path_1291" data-name="Path 1291" d="M-899.1,137.427a4.405,4.405,0,0,1,.161,1.657,4.41,4.41,0,0,1-.161,1.659,4.391,4.391,0,0,1-.162-1.659A4.387,4.387,0,0,1-899.1,137.427Z" transform="translate(899.266 -137.427)" fill="#ff905f"/>
        </g>
        <g id="Group_2232" data-name="Group 2232" transform="translate(44.013 11.657)">
          <path id="Path_1292" data-name="Path 1292" d="M-899.1,132.591a4.415,4.415,0,0,1,.161,1.659,4.41,4.41,0,0,1-.161,1.659,4.391,4.391,0,0,1-.162-1.659A4.4,4.4,0,0,1-899.1,132.591Z" transform="translate(899.266 -132.591)" fill="#ff905f"/>
        </g>
        <g id="Group_2233" data-name="Group 2233" transform="translate(44.013 5.024)">
          <path id="Path_1293" data-name="Path 1293" d="M-899.1,127.756a4.416,4.416,0,0,1,.161,1.659,4.41,4.41,0,0,1-.161,1.659,4.391,4.391,0,0,1-.162-1.659A4.4,4.4,0,0,1-899.1,127.756Z" transform="translate(899.266 -127.756)" fill="#ff905f"/>
        </g>
        <g id="Group_2234" data-name="Group 2234" transform="translate(42.627 0)">
          <path id="Path_1294" data-name="Path 1294" d="M-900.276,124.254a3.858,3.858,0,0,1,1.547-.161c.322.322.089.089.161.162h0v.156l0,.152-.01.291c-.008.185-.019.353-.034.493-.029.28-.07.453-.114.453s-.085-.173-.114-.453c-.015-.14-.026-.307-.034-.493l-.01-.291,0-.152v-.156h0c.073.071-.16-.162.162.161A3.843,3.843,0,0,1-900.276,124.254Z" transform="translate(900.276 -124.094)" fill="#ff905f"/>
        </g>
        <g id="Group_2235" data-name="Group 2235" transform="translate(36.694 0)">
          <path id="Path_1295" data-name="Path 1295" d="M-904.6,124.254a3.555,3.555,0,0,1,1.483-.161,3.559,3.559,0,0,1,1.484.161,3.545,3.545,0,0,1-1.484.162A3.541,3.541,0,0,1-904.6,124.254Z" transform="translate(904.601 -124.094)" fill="#ff905f"/>
        </g>
        <g id="Group_2236" data-name="Group 2236" transform="translate(30.761 0)">
          <path id="Path_1296" data-name="Path 1296" d="M-908.926,124.254a3.556,3.556,0,0,1,1.483-.161,3.555,3.555,0,0,1,1.483.161,3.541,3.541,0,0,1-1.483.162A3.542,3.542,0,0,1-908.926,124.254Z" transform="translate(908.926 -124.094)" fill="#ff905f"/>
        </g>
        <g id="Group_2237" data-name="Group 2237" transform="translate(24.826 0)">
          <path id="Path_1297" data-name="Path 1297" d="M-913.252,124.254a3.555,3.555,0,0,1,1.483-.161,3.56,3.56,0,0,1,1.484.161,3.546,3.546,0,0,1-1.484.162A3.541,3.541,0,0,1-913.252,124.254Z" transform="translate(913.252 -124.094)" fill="#ff905f"/>
        </g>
        <g id="Group_2238" data-name="Group 2238" transform="translate(18.892 0)">
          <path id="Path_1298" data-name="Path 1298" d="M-917.577,124.254a3.555,3.555,0,0,1,1.483-.161,3.555,3.555,0,0,1,1.483.161,3.541,3.541,0,0,1-1.483.162A3.541,3.541,0,0,1-917.577,124.254Z" transform="translate(917.577 -124.094)" fill="#ff905f"/>
        </g>
        <g id="Group_2239" data-name="Group 2239" transform="translate(13.078 0)">
          <path id="Path_1299" data-name="Path 1299" d="M-921.811,124.6c-.031-.038.1-.206.338-.44l.023-.023.055-.005c.254-.023.583-.037.944-.037a3.555,3.555,0,0,1,1.483.161,3.541,3.541,0,0,1-1.483.162c-.361,0-.69-.014-.944-.037l.08-.029C-921.59,124.54-921.779,124.639-921.811,124.6Z" transform="translate(921.815 -124.094)" fill="#ff905f"/>
        </g>
        <g id="Group_2240" data-name="Group 2240" transform="translate(8.512 2.393)">
          <path id="Path_1300" data-name="Path 1300" d="M-925.139,127.741c-.058-.069.408-.547,1.039-1.071s1.187-.892,1.244-.823-.409.549-1.039,1.071S-925.082,127.809-925.139,127.741Z" transform="translate(925.143 -125.838)" fill="#ff905f"/>
        </g>
        <g id="Group_2241" data-name="Group 2241" transform="translate(3.945 6.182)">
          <path id="Path_1301" data-name="Path 1301" d="M-928.468,130.5c-.056-.069.409-.547,1.039-1.071s1.188-.892,1.244-.823-.407.549-1.039,1.071S-928.411,130.571-928.468,130.5Z" transform="translate(928.472 -128.6)" fill="#ff905f"/>
        </g>
        <g id="Group_2242" data-name="Group 2242" transform="translate(0.315 9.971)">
          <path id="Path_1302" data-name="Path 1302" d="M-930.972,133.905a3.861,3.861,0,0,1-.145-1.549l.058-.122h0l0,0,.007-.006.015-.012.032-.026.06-.049.119-.1.231-.178c.147-.113.283-.21.4-.288.233-.156.392-.236.421-.2s-.079.177-.276.377c-.1.1-.22.217-.357.34l-.218.193-.117.1-.059.051-.032.025-.015.014-.007.005,0,0h0c.026-.055-.058.122.059-.122A3.862,3.862,0,0,1-930.972,133.905Z" transform="translate(931.118 -131.362)" fill="#ff905f"/>
        </g>
        <g id="Group_2243" data-name="Group 2243" transform="translate(0.255 15.583)">
          <path id="Path_1303" data-name="Path 1303" d="M-931.016,138.52a3.786,3.786,0,0,1-.145-1.535,3.786,3.786,0,0,1,.175-1.532,3.773,3.773,0,0,1,.147,1.535A3.774,3.774,0,0,1-931.016,138.52Z" transform="translate(931.162 -135.453)" fill="#ff905f"/>
        </g>
        <g id="Group_2244" data-name="Group 2244" transform="translate(0.195 21.719)">
          <path id="Path_1304" data-name="Path 1304" d="M-931.06,142.995a3.831,3.831,0,0,1-.145-1.535,3.8,3.8,0,0,1,.176-1.534,3.791,3.791,0,0,1,.147,1.537A3.775,3.775,0,0,1-931.06,142.995Z" transform="translate(931.206 -139.926)" fill="#ff905f"/>
        </g>
        <g id="Group_2245" data-name="Group 2245" transform="translate(0.134 27.857)">
          <path id="Path_1305" data-name="Path 1305" d="M-931.1,147.469a3.792,3.792,0,0,1-.147-1.536,3.771,3.771,0,0,1,.177-1.532,3.826,3.826,0,0,1,.145,1.535A3.828,3.828,0,0,1-931.1,147.469Z" transform="translate(931.25 -144.4)" fill="#ff905f"/>
        </g>
        <g id="Group_2246" data-name="Group 2246" transform="translate(0.074 33.994)">
          <path id="Path_1306" data-name="Path 1306" d="M-931.147,151.942a3.783,3.783,0,0,1-.147-1.535,3.789,3.789,0,0,1,.177-1.534,3.8,3.8,0,0,1,.145,1.536A3.785,3.785,0,0,1-931.147,151.942Z" transform="translate(931.294 -148.873)" fill="#ff905f"/>
        </g>
        <g id="Group_2247" data-name="Group 2247" transform="translate(0 40.131)">
          <path id="Path_1307" data-name="Path 1307" d="M-929.626,154.919a3.849,3.849,0,0,1-1.549.136l-.159-.163h0v-.154l0-.154.012-.291c.01-.184.023-.351.04-.491.031-.28.073-.451.118-.451s.082.174.11.454c.012.14.023.307.029.493l.007.289,0,.154v.118l0,.021v.018h0l-.158-.162A3.841,3.841,0,0,1-929.626,154.919Z" transform="translate(931.348 -153.347)" fill="#ff905f"/>
        </g>
        <g id="Group_2248" data-name="Group 2248" transform="translate(4.653 41.613)">
          <path id="Path_1308" data-name="Path 1308" d="M-925.025,154.614a3.462,3.462,0,0,1-1.468.137,3.482,3.482,0,0,1-1.464-.185,3.471,3.471,0,0,1,1.469-.137A3.48,3.48,0,0,1-925.025,154.614Z" transform="translate(927.957 -154.427)" fill="#ff905f"/>
        </g>
        <g id="Group_2249" data-name="Group 2249" transform="translate(10.514 41.709)">
          <path id="Path_1309" data-name="Path 1309" d="M-920.754,154.684a3.458,3.458,0,0,1-1.468.137,3.475,3.475,0,0,1-1.462-.185,3.485,3.485,0,0,1,1.468-.137A3.474,3.474,0,0,1-920.754,154.684Z" transform="translate(923.684 -154.497)" fill="#ff905f"/>
        </g>
        <g id="Group_2250" data-name="Group 2250" transform="translate(16.375 41.806)">
          <path id="Path_1310" data-name="Path 1310" d="M-916.482,154.753a3.453,3.453,0,0,1-1.466.137,3.458,3.458,0,0,1-1.464-.185,3.5,3.5,0,0,1,1.468-.136A3.481,3.481,0,0,1-916.482,154.753Z" transform="translate(919.412 -154.568)" fill="#ff905f"/>
        </g>
        <g id="Group_2251" data-name="Group 2251" transform="translate(22.237 41.902)">
          <path id="Path_1311" data-name="Path 1311" d="M-912.209,154.825a3.483,3.483,0,0,1-1.468.137,3.5,3.5,0,0,1-1.462-.185,3.456,3.456,0,0,1,1.468-.137A3.448,3.448,0,0,1-912.209,154.825Z" transform="translate(915.139 -154.638)" fill="#ff905f"/>
        </g>
        <g id="Group_2252" data-name="Group 2252" transform="translate(28.098 41.998)">
          <path id="Path_1312" data-name="Path 1312" d="M-907.936,154.895a3.484,3.484,0,0,1-1.468.137,3.476,3.476,0,0,1-1.462-.185,3.458,3.458,0,0,1,1.468-.137A3.475,3.475,0,0,1-907.936,154.895Z" transform="translate(910.867 -154.708)" fill="#ff905f"/>
        </g>
        <g id="Group_2253" data-name="Group 2253" transform="translate(33.589 39.334)">
          <path id="Path_1313" data-name="Path 1313" d="M-904.523,152.776c.055.071-.425.525-1.07,1.014s-1.213.826-1.266.756.425-.525,1.071-1.014S-904.577,152.7-904.523,152.776Z" transform="translate(906.864 -152.766)" fill="#ff905f"/>
        </g>
        <g id="Group_2254" data-name="Group 2254" transform="translate(38.263 35.797)">
          <path id="Path_1314" data-name="Path 1314" d="M-901.117,150.2c.054.071-.425.525-1.07,1.014s-1.213.826-1.266.756.425-.524,1.071-1.014S-901.17,150.127-901.117,150.2Z" transform="translate(903.457 -150.187)" fill="#ff905f"/>
        </g>
      </g>
      <g id="Group_2263" data-name="Group 2263" transform="translate(134.062 63.786)">
        <g id="Group_2256" data-name="Group 2256" transform="translate(0 36.109)">
          <path id="Path_1315" data-name="Path 1315" d="M-904.233,122.654c.087.019.081.373-.014.789s-.24.739-.327.719-.081-.373.012-.789S-904.32,122.634-904.233,122.654Z" transform="translate(904.635 -122.653)" fill="#ff905f"/>
        </g>
        <g id="Group_2257" data-name="Group 2257" transform="translate(1.078 29.818)">
          <path id="Path_1316" data-name="Path 1316" d="M-903.105,118.068a4.207,4.207,0,0,1-.2,1.608,4.151,4.151,0,0,1-.513,1.538,4.2,4.2,0,0,1,.2-1.608A4.169,4.169,0,0,1-903.105,118.068Z" transform="translate(903.849 -118.068)" fill="#ff905f"/>
        </g>
        <g id="Group_2258" data-name="Group 2258" transform="translate(2.498 23.528)">
          <path id="Path_1317" data-name="Path 1317" d="M-902.072,113.483a4.139,4.139,0,0,1-.2,1.608,4.174,4.174,0,0,1-.512,1.536,4.171,4.171,0,0,1,.2-1.608A4.176,4.176,0,0,1-902.072,113.483Z" transform="translate(902.814 -113.483)" fill="#ff905f"/>
        </g>
        <g id="Group_2259" data-name="Group 2259" transform="translate(3.917 17.237)">
          <path id="Path_1318" data-name="Path 1318" d="M-901.037,108.9a4.142,4.142,0,0,1-.2,1.608,4.2,4.2,0,0,1-.512,1.538,4.177,4.177,0,0,1,.2-1.609A4.186,4.186,0,0,1-901.037,108.9Z" transform="translate(901.779 -108.897)" fill="#ff905f"/>
        </g>
        <g id="Group_2260" data-name="Group 2260" transform="translate(5.337 10.945)">
          <path id="Path_1319" data-name="Path 1319" d="M-900,104.311a4.18,4.18,0,0,1-.2,1.609,4.177,4.177,0,0,1-.512,1.536,4.14,4.14,0,0,1,.2-1.608A4.2,4.2,0,0,1-900,104.311Z" transform="translate(900.744 -104.311)" fill="#ff905f"/>
        </g>
        <g id="Group_2261" data-name="Group 2261" transform="translate(6.756 4.655)">
          <path id="Path_1320" data-name="Path 1320" d="M-898.966,99.726a4.2,4.2,0,0,1-.2,1.608,4.159,4.159,0,0,1-.513,1.538,4.209,4.209,0,0,1,.2-1.609A4.146,4.146,0,0,1-898.966,99.726Z" transform="translate(899.71 -99.726)" fill="#ff905f"/>
        </g>
        <g id="Group_2262" data-name="Group 2262" transform="translate(8.148)">
          <path id="Path_1321" data-name="Path 1321" d="M-898.294,96.333c.088.021.081.373-.012.79s-.241.738-.328.719-.081-.373.014-.79S-898.381,96.314-898.294,96.333Z" transform="translate(898.696 -96.332)" fill="#ff905f"/>
        </g>
      </g>
      <g id="Group_2273" data-name="Group 2273" transform="translate(89.152 58.869)">
        <g id="Group_2264" data-name="Group 2264" transform="translate(21.036 41.778)">
          <path id="Path_1322" data-name="Path 1322" d="M-922.008,123.205c.08-.04.3.237.493.619s.283.723.2.763-.3-.236-.491-.617S-922.088,123.245-922.008,123.205Z" transform="translate(922.037 -123.201)" fill="#ff905f"/>
        </g>
        <g id="Group_2265" data-name="Group 2265" transform="translate(18.338 36.394)">
          <path id="Path_1323" data-name="Path 1323" d="M-923.989,119.279c.08-.04.449.531.823,1.274a3.678,3.678,0,0,1,.534,1.419c-.08.04-.447-.53-.822-1.274A3.674,3.674,0,0,1-923.989,119.279Z" transform="translate(924.004 -119.277)" fill="#ff905f"/>
        </g>
        <g id="Group_2266" data-name="Group 2266" transform="translate(15.626 31.008)">
          <path id="Path_1324" data-name="Path 1324" d="M-925.966,115.353c.079-.04.449.53.823,1.273a3.662,3.662,0,0,1,.533,1.42c-.079.04-.447-.531-.822-1.274A3.7,3.7,0,0,1-925.966,115.353Z" transform="translate(925.981 -115.351)" fill="#ff905f"/>
        </g>
        <g id="Group_2267" data-name="Group 2267" transform="translate(12.914 25.622)">
          <path id="Path_1325" data-name="Path 1325" d="M-927.942,111.427c.078-.041.447.53.822,1.273a3.661,3.661,0,0,1,.534,1.42c-.08.04-.447-.531-.822-1.274A3.653,3.653,0,0,1-927.942,111.427Z" transform="translate(927.957 -111.424)" fill="#ff905f"/>
        </g>
        <g id="Group_2268" data-name="Group 2268" transform="translate(10.202 20.234)">
          <path id="Path_1326" data-name="Path 1326" d="M-929.919,107.5c.08-.04.447.531.822,1.274a3.661,3.661,0,0,1,.534,1.419c-.08.041-.447-.53-.822-1.273A3.651,3.651,0,0,1-929.919,107.5Z" transform="translate(929.934 -107.498)" fill="#ff905f"/>
        </g>
        <g id="Group_2269" data-name="Group 2269" transform="translate(7.49 14.849)">
          <path id="Path_1327" data-name="Path 1327" d="M-931.9,103.574c.08-.04.447.531.822,1.274a3.659,3.659,0,0,1,.534,1.419c-.08.04-.447-.53-.822-1.274A3.657,3.657,0,0,1-931.9,103.574Z" transform="translate(931.911 -103.572)" fill="#ff905f"/>
        </g>
        <g id="Group_2270" data-name="Group 2270" transform="translate(4.778 9.463)">
          <path id="Path_1328" data-name="Path 1328" d="M-933.873,99.648c.08-.04.447.531.822,1.274a3.663,3.663,0,0,1,.534,1.419c-.08.04-.447-.531-.822-1.274A3.657,3.657,0,0,1-933.873,99.648Z" transform="translate(933.888 -99.646)" fill="#ff905f"/>
        </g>
        <g id="Group_2271" data-name="Group 2271" transform="translate(2.066 4.077)">
          <path id="Path_1329" data-name="Path 1329" d="M-935.85,95.722c.08-.04.447.53.822,1.273a3.668,3.668,0,0,1,.534,1.42c-.08.04-.447-.531-.822-1.274A3.664,3.664,0,0,1-935.85,95.722Z" transform="translate(935.865 -95.72)" fill="#ff905f"/>
        </g>
        <g id="Group_2272" data-name="Group 2272">
          <path id="Path_1330" data-name="Path 1330" d="M-937.342,92.752c.079-.041.3.236.492.617s.283.723.2.764-.3-.237-.491-.619S-937.422,92.792-937.342,92.752Z" transform="translate(937.371 -92.748)" fill="#ff905f"/>
        </g>
      </g>
      <g id="Group_2281" data-name="Group 2281" transform="translate(60.221 109.778)">
        <g id="Group_2274" data-name="Group 2274">
          <path id="Path_1331" data-name="Path 1331" d="M-956.917,130.089c-.007.089-.358.134-.783.1s-.765-.132-.759-.221.357-.133.783-.1S-956.91,130-956.917,130.089Z" transform="translate(958.459 -129.857)" fill="#ff905f"/>
        </g>
        <g id="Group_2275" data-name="Group 2275" transform="translate(4.686 0.399)">
          <path id="Path_1332" data-name="Path 1332" d="M-951.9,130.473a3.978,3.978,0,0,1-1.584.037,4.005,4.005,0,0,1-1.558-.283,3.993,3.993,0,0,1,1.584-.038A3.983,3.983,0,0,1-951.9,130.473Z" transform="translate(955.043 -130.148)" fill="#ff905f"/>
        </g>
        <g id="Group_2276" data-name="Group 2276" transform="translate(10.974 0.892)">
          <path id="Path_1333" data-name="Path 1333" d="M-947.315,130.832a3.98,3.98,0,0,1-1.585.037,4.015,4.015,0,0,1-1.56-.283,3.994,3.994,0,0,1,1.585-.038A4,4,0,0,1-947.315,130.832Z" transform="translate(950.46 -130.507)" fill="#ff905f"/>
        </g>
        <g id="Group_2277" data-name="Group 2277" transform="translate(17.262 1.384)">
          <path id="Path_1334" data-name="Path 1334" d="M-942.731,131.191a3.979,3.979,0,0,1-1.585.037,4.014,4.014,0,0,1-1.56-.283,3.993,3.993,0,0,1,1.584-.038A4,4,0,0,1-942.731,131.191Z" transform="translate(945.876 -130.866)" fill="#ff905f"/>
        </g>
        <g id="Group_2278" data-name="Group 2278" transform="translate(23.551 1.876)">
          <path id="Path_1335" data-name="Path 1335" d="M-938.149,131.55a3.979,3.979,0,0,1-1.585.037,3.963,3.963,0,0,1-1.558-.284,4.039,4.039,0,0,1,1.585-.037A3.982,3.982,0,0,1-938.149,131.55Z" transform="translate(941.292 -131.225)" fill="#ff905f"/>
        </g>
        <g id="Group_2279" data-name="Group 2279" transform="translate(29.838 2.369)">
          <path id="Path_1336" data-name="Path 1336" d="M-933.565,131.909a3.979,3.979,0,0,1-1.585.037,3.971,3.971,0,0,1-1.56-.284,4.038,4.038,0,0,1,1.584-.037A4,4,0,0,1-933.565,131.909Z" transform="translate(936.709 -131.584)" fill="#ff905f"/>
        </g>
        <g id="Group_2280" data-name="Group 2280" transform="translate(36.127 2.829)">
          <path id="Path_1337" data-name="Path 1337" d="M-930.583,132.151c-.007.089-.358.134-.783.1s-.766-.133-.759-.222.358-.133.783-.1S-930.576,132.063-930.583,132.151Z" transform="translate(932.125 -131.919)" fill="#ff905f"/>
        </g>
      </g>
      <g id="Group_2284" data-name="Group 2284" transform="translate(43.689 3.144)">
        <g id="Group_2283" data-name="Group 2283" transform="translate(0 0)">
          <circle id="Ellipse_59" data-name="Ellipse 59" cx="27.243" cy="27.243" r="27.243" transform="translate(0 53.082) rotate(-76.968)" fill="#fff"/>
          <g id="Group_2282" data-name="Group 2282" transform="translate(5.28 5.311)">
            <path id="Path_1338" data-name="Path 1338" d="M-912.015,83.373s-.018-.15-.038-.44l-.081-1.294-.056-.952c-.036-.348-.111-.727-.171-1.139s-.135-.853-.21-1.325a14.723,14.723,0,0,0-.355-1.486,25.96,25.96,0,0,0-3.015-7.23,27.057,27.057,0,0,0-6.9-7.7l-1.173-.874c-.412-.27-.847-.517-1.276-.782-.438-.25-.852-.553-1.323-.765l-1.408-.675-.716-.339-.752-.274-1.526-.556c-.519-.171-1.06-.283-1.6-.428a13.545,13.545,0,0,0-1.641-.372,25.2,25.2,0,0,0-3.427-.4c-.584-.021-1.173-.077-1.767-.069l-1.793.093c-.3.021-.6.019-.906.059l-.9.139c-.6.1-1.215.17-1.822.3a28.8,28.8,0,0,0-3.614,1.059,28.545,28.545,0,0,0-3.534,1.553c-.572.31-1.119.672-1.686,1.008-.277.177-.573.328-.837.528l-.8.6a30.392,30.392,0,0,0-3.073,2.611l-1.376,1.517-.347.38-.31.413-.62.83-.624.833-.545.892-.545.9-.273.45-.232.475-.919,1.91q-.366,1-.735,2.006a28.951,28.951,0,0,0-1.4,8.544,28.919,28.919,0,0,0,1.4,8.548l.734,2.007q.463.959.921,1.91l.23.475.273.45.546.9.545.892.623.833.62.83.311.413.346.381,1.377,1.516a30.581,30.581,0,0,0,3.073,2.613l.8.6c.263.2.56.351.837.53.567.336,1.115.7,1.687,1.007a28.14,28.14,0,0,0,3.534,1.553,28.581,28.581,0,0,0,3.614,1.06c.606.126,1.22.2,1.823.3l.9.139c.3.04.605.038.906.059l1.793.092c.594.01,1.182-.047,1.767-.067a25.247,25.247,0,0,0,3.428-.4,13.935,13.935,0,0,0,1.641-.37c.536-.147,1.078-.257,1.6-.428l1.526-.557.752-.273.716-.34,1.409-.675c.469-.214.885-.516,1.323-.765.429-.265.863-.512,1.274-.782l1.173-.874a27.083,27.083,0,0,0,6.9-7.7,25.989,25.989,0,0,0,3.014-7.228,14.723,14.723,0,0,0,.355-1.486l.21-1.325c.062-.412.136-.789.171-1.139l.056-.952.081-1.292c.021-.292.038-.442.038-.442s0,.15-.005.442l-.049,1.3-.04.956c-.032.35-.1.73-.158,1.144l-.2,1.333a14.361,14.361,0,0,1-.342,1.494,25.863,25.863,0,0,1-2.981,7.292,27.154,27.154,0,0,1-6.917,7.787q-.582.438-1.18.885c-.414.274-.852.525-1.283.794-.442.252-.86.56-1.332.776l-1.419.686-.722.344-.759.28-1.539.565c-.523.174-1.07.288-1.612.436a13.809,13.809,0,0,1-1.656.38,25.463,25.463,0,0,1-3.46.409c-.591.022-1.185.081-1.785.073l-1.812-.089c-.3-.021-.612-.018-.915-.058l-.914-.139c-.61-.1-1.23-.17-1.844-.3a28.73,28.73,0,0,1-3.655-1.065,28.746,28.746,0,0,1-3.575-1.565c-.579-.313-1.134-.678-1.708-1.017-.28-.18-.58-.332-.846-.535l-.808-.6a30.963,30.963,0,0,1-3.111-2.639l-1.394-1.532-.351-.385-.314-.417-.628-.838-.631-.844-.553-.9-.552-.907-.276-.455-.235-.48-.932-1.933q-.373-1.01-.745-2.029a29.241,29.241,0,0,1-1.415-8.65,29.257,29.257,0,0,1,1.416-8.646q.374-1.019.745-2.029l.932-1.932.234-.48.277-.454.551-.908.553-.9.63-.844.628-.838.316-.417.35-.385L-958.635,64a30.8,30.8,0,0,1,3.111-2.638l.807-.6c.267-.2.567-.355.848-.534.573-.34,1.128-.7,1.707-1.017a28.543,28.543,0,0,1,3.575-1.565,28.967,28.967,0,0,1,3.655-1.066c.613-.125,1.233-.2,1.843-.295l.914-.139c.3-.04.612-.037.915-.058L-939.45,56c.6-.008,1.195.049,1.785.071a25.471,25.471,0,0,1,3.46.41,14.081,14.081,0,0,1,1.656.379c.542.15,1.089.262,1.612.436l1.539.567.757.278.722.344,1.419.686c.473.217.892.524,1.332.776.432.268.87.52,1.284.793l1.18.886a27.155,27.155,0,0,1,6.917,7.787,25.815,25.815,0,0,1,2.982,7.292,14.652,14.652,0,0,1,.342,1.5q.105.712.2,1.333c.056.413.126.793.158,1.143l.04.956.049,1.3C-912.011,83.223-912.015,83.373-912.015,83.373Z" transform="translate(966.661 -56)" fill="#e8505b"/>
          </g>
        </g>
      </g>
      <g id="Group_2287" data-name="Group 2287" transform="translate(112.312 0)">
        <g id="Group_2286" data-name="Group 2286">
          <circle id="Ellipse_60" data-name="Ellipse 60" cx="27.243" cy="27.243" r="27.243" transform="translate(0 38.527) rotate(-45)" fill="#fff"/>
          <g id="Group_2285" data-name="Group 2285" transform="translate(11.124 11.154)">
            <path id="Path_1339" data-name="Path 1339" d="M-857.734,85.34s-.019-.15-.038-.44l-.082-1.294-.055-.952c-.037-.348-.111-.727-.173-1.139l-.21-1.325a14.684,14.684,0,0,0-.354-1.486,26.007,26.007,0,0,0-3.015-7.23,27.068,27.068,0,0,0-6.9-7.7l-1.173-.874c-.411-.27-.845-.517-1.274-.782-.438-.25-.853-.553-1.323-.765l-1.407-.675-.716-.339-.753-.274-1.525-.556c-.519-.171-1.061-.283-1.6-.428a13.607,13.607,0,0,0-1.641-.372,25.254,25.254,0,0,0-3.427-.4c-.584-.021-1.174-.077-1.767-.069l-1.793.093c-.3.021-.6.019-.905.059l-.9.139c-.6.1-1.217.17-1.823.3a28.718,28.718,0,0,0-3.612,1.059,28.239,28.239,0,0,0-3.534,1.553c-.572.31-1.121.672-1.687,1.008-.277.177-.573.328-.837.528l-.8.6a30.414,30.414,0,0,0-3.073,2.611l-1.377,1.517-.346.38-.311.413-.62.83-.623.833-.546.892-.544.9-.273.45-.231.475-.92,1.91q-.366,1-.735,2.006a28.954,28.954,0,0,0-1.4,8.544,28.922,28.922,0,0,0,1.4,8.548l.736,2.007q.461.959.919,1.91l.232.475.273.45.545.9.545.892.624.833.62.83.31.413.347.381,1.377,1.516a30.41,30.41,0,0,0,3.073,2.613l.8.6c.265.2.561.351.838.53.567.336,1.115.7,1.688,1.007a27.961,27.961,0,0,0,3.534,1.553,28.5,28.5,0,0,0,3.612,1.06c.608.126,1.221.2,1.823.3l.9.139c.3.04.6.038.905.059l1.795.092c.592.01,1.182-.047,1.767-.067a25.251,25.251,0,0,0,3.427-.4,13.886,13.886,0,0,0,1.641-.37c.536-.147,1.08-.257,1.6-.428l1.527-.557.752-.273.716-.34,1.408-.675c.469-.214.885-.516,1.322-.766.429-.265.864-.512,1.276-.782l1.173-.874a27.078,27.078,0,0,0,6.9-7.7,25.955,25.955,0,0,0,3.015-7.228,14.739,14.739,0,0,0,.355-1.486l.21-1.325c.06-.412.134-.789.171-1.139l.055-.952c.036-.561.063-.99.082-1.292s.038-.442.038-.442,0,.15-.005.442-.029.734-.049,1.3q-.019.43-.041.956c-.032.35-.1.73-.156,1.144s-.126.857-.2,1.333a14.7,14.7,0,0,1-.343,1.494,25.859,25.859,0,0,1-2.981,7.291,27.153,27.153,0,0,1-6.917,7.787l-1.18.886c-.414.273-.851.524-1.283.793-.44.252-.859.56-1.332.776l-1.419.686-.722.344-.759.28-1.538.565c-.523.174-1.07.288-1.612.436a13.881,13.881,0,0,1-1.656.38,25.523,25.523,0,0,1-3.461.409c-.59.022-1.185.081-1.785.073l-1.812-.089c-.3-.021-.61-.018-.915-.058l-.914-.139c-.609-.1-1.229-.17-1.843-.3a28.737,28.737,0,0,1-3.655-1.065,28.473,28.473,0,0,1-3.576-1.565c-.579-.313-1.133-.678-1.707-1.017-.281-.18-.58-.332-.848-.535l-.808-.6a30.913,30.913,0,0,1-3.11-2.639l-1.4-1.532-.35-.385-.316-.417-.628-.838-.63-.844-.553-.9-.552-.907-.277-.455-.235-.48q-.463-.961-.932-1.933l-.745-2.029a29.236,29.236,0,0,1-1.413-8.65,29.172,29.172,0,0,1,1.416-8.646q.373-1.019.745-2.029l.932-1.932.234-.48.276-.454.552-.908.553-.9.631-.844.627-.838.316-.417.351-.385,1.394-1.532a30.925,30.925,0,0,1,3.11-2.638l.808-.6c.268-.2.567-.355.846-.534.574-.34,1.129-.7,1.708-1.017a28.463,28.463,0,0,1,3.575-1.565,28.951,28.951,0,0,1,3.653-1.066c.613-.125,1.233-.2,1.844-.295l.914-.139c.3-.04.61-.037.915-.058l1.811-.089c.6-.008,1.195.049,1.785.071a25.519,25.519,0,0,1,3.461.41,14.147,14.147,0,0,1,1.656.379c.541.15,1.088.262,1.611.436q.778.286,1.539.567l.759.278.722.344,1.419.686c.473.217.89.524,1.332.776.432.269.868.52,1.283.793l1.18.886a27.134,27.134,0,0,1,6.917,7.787,25.812,25.812,0,0,1,2.982,7.292,14.641,14.641,0,0,1,.343,1.5l.2,1.333c.056.413.125.793.156,1.143l.041.956.049,1.3C-857.731,85.19-857.734,85.34-857.734,85.34Z" transform="translate(912.38 -57.967)" fill="#e8505b"/>
          </g>
        </g>
      </g>
      <g id="Group_2293" data-name="Group 2293" transform="translate(76.883 143.542)">
        <g id="Group_2288" data-name="Group 2288" transform="translate(18.401)">
          <path id="Path_1340" data-name="Path 1340" d="M-932.9,156.545c-.059-.066.407-.583,1.043-1.154s1.2-.981,1.258-.915-.407.583-1.043,1.155S-932.835,156.612-932.9,156.545Z" transform="translate(932.901 -154.469)" fill="#ff905f"/>
        </g>
        <g id="Group_2289" data-name="Group 2289" transform="translate(13.801 4.138)">
          <path id="Path_1341" data-name="Path 1341" d="M-936.248,159.561c-.059-.066.407-.583,1.043-1.154s1.2-.981,1.258-.915-.407.583-1.043,1.155S-936.189,159.628-936.248,159.561Z" transform="translate(936.254 -157.485)" fill="#ff905f"/>
        </g>
        <g id="Group_2290" data-name="Group 2290" transform="translate(9.201 8.275)">
          <path id="Path_1342" data-name="Path 1342" d="M-939.6,162.577c-.06-.066.406-.583,1.041-1.154s1.2-.981,1.258-.915-.406.583-1.043,1.155S-939.542,162.644-939.6,162.577Z" transform="translate(939.607 -160.501)" fill="#ff905f"/>
        </g>
        <g id="Group_2291" data-name="Group 2291" transform="translate(4.6 12.413)">
          <path id="Path_1343" data-name="Path 1343" d="M-942.956,165.593c-.059-.066.408-.583,1.043-1.154s1.2-.981,1.258-.915-.408.583-1.043,1.155S-942.9,165.66-942.956,165.593Z" transform="translate(942.961 -163.517)" fill="#ff905f"/>
        </g>
        <g id="Group_2292" data-name="Group 2292" transform="translate(0 16.55)">
          <path id="Path_1344" data-name="Path 1344" d="M-946.309,168.609c-.059-.066.407-.583,1.043-1.154s1.2-.981,1.258-.915-.408.583-1.043,1.155S-946.25,168.676-946.309,168.609Z" transform="translate(946.314 -166.533)" fill="#ff905f"/>
        </g>
      </g>
      <g id="Group_2296" data-name="Group 2296" transform="translate(27.434 151.465)">
        <g id="Group_2295" data-name="Group 2295" transform="translate(0 0)">
          <circle id="Ellipse_61" data-name="Ellipse 61" cx="27.243" cy="27.243" r="27.243" transform="translate(0 53.019) rotate(-76.678)" fill="#fff"/>
          <g id="Group_2294" data-name="Group 2294" transform="translate(5.383 5.413)">
            <path id="Path_1345" data-name="Path 1345" d="M-923.788,191.563s-.019-.15-.04-.44l-.081-1.294-.056-.952c-.036-.348-.11-.727-.171-1.139l-.21-1.325a14.706,14.706,0,0,0-.355-1.486,25.96,25.96,0,0,0-3.016-7.23,27.055,27.055,0,0,0-6.9-7.7l-1.173-.874c-.412-.27-.845-.517-1.274-.782-.439-.25-.853-.553-1.323-.766l-1.409-.675-.716-.34-.752-.273-1.525-.556c-.518-.171-1.06-.283-1.6-.428a13.659,13.659,0,0,0-1.641-.372,25.246,25.246,0,0,0-3.428-.4c-.584-.021-1.173-.077-1.766-.069l-1.795.093c-.3.021-.6.018-.905.058l-.9.14c-.6.1-1.217.17-1.823.3a28.786,28.786,0,0,0-3.614,1.059,28.237,28.237,0,0,0-3.533,1.553c-.572.31-1.121.672-1.687,1.008-.277.177-.573.328-.837.528l-.8.6a30.53,30.53,0,0,0-3.071,2.612l-1.378,1.516-.346.381-.311.413-.62.829-.623.834-.546.892-.545.9-.273.45-.232.475q-.457.951-.919,1.91l-.735,2.006a28.95,28.95,0,0,0-1.4,8.544,28.927,28.927,0,0,0,1.4,8.548q.368,1.006.734,2.007l.92,1.91.231.475.274.45.545.9.545.892.623.833.62.83.312.413.347.381,1.376,1.516a30.753,30.753,0,0,0,3.074,2.613l.8.6c.263.2.56.351.837.53.567.336,1.115.7,1.687,1.007a28.137,28.137,0,0,0,3.534,1.553,28.567,28.567,0,0,0,3.614,1.06c.606.126,1.22.2,1.823.3l.9.139c.3.04.605.038.906.059l1.793.092c.594.01,1.182-.048,1.767-.067a25.244,25.244,0,0,0,3.428-.4,13.606,13.606,0,0,0,1.641-.372c.536-.145,1.078-.255,1.6-.427l1.525-.557.753-.273.716-.34,1.408-.675c.469-.214.885-.516,1.322-.766.43-.265.863-.512,1.274-.782l1.173-.874a27.081,27.081,0,0,0,6.9-7.7A25.948,25.948,0,0,0-924.7,198.2a14.708,14.708,0,0,0,.355-1.486l.21-1.325c.062-.412.136-.789.171-1.139q.031-.525.056-.952c.036-.561.063-.991.081-1.292s.04-.442.04-.442,0,.15-.007.442l-.049,1.3-.04.956c-.032.35-.1.73-.158,1.143s-.126.859-.195,1.333a14.7,14.7,0,0,1-.343,1.5,25.871,25.871,0,0,1-2.981,7.292,27.172,27.172,0,0,1-6.917,7.787q-.582.438-1.18.885c-.414.274-.851.525-1.283.794-.442.252-.859.56-1.332.776l-1.419.686-.722.344-.759.28-1.539.565c-.523.174-1.07.288-1.61.436a13.946,13.946,0,0,1-1.656.38,25.515,25.515,0,0,1-3.461.409c-.59.022-1.185.081-1.785.073l-1.812-.089c-.3-.021-.61-.018-.915-.058l-.914-.139c-.609-.1-1.229-.17-1.844-.3a28.793,28.793,0,0,1-3.655-1.065,28.766,28.766,0,0,1-3.575-1.565c-.579-.313-1.134-.678-1.708-1.017-.28-.18-.579-.332-.846-.535l-.808-.6a30.773,30.773,0,0,1-3.11-2.639q-.7-.761-1.4-1.532l-.35-.385-.315-.417-.628-.838-.631-.844-.551-.9-.553-.907-.276-.455-.235-.48-.932-1.933q-.37-1.01-.745-2.029a29.275,29.275,0,0,1-1.414-8.65,29.255,29.255,0,0,1,1.416-8.646q.375-1.019.745-2.029.469-.969.932-1.932l.234-.48.277-.454.551-.908.553-.9.63-.844.628-.838.315-.417.35-.385q.7-.77,1.4-1.532a30.9,30.9,0,0,1,3.11-2.638l.807-.6c.268-.2.568-.355.848-.535.573-.339,1.129-.7,1.708-1.015a28.241,28.241,0,0,1,3.574-1.565,28.96,28.96,0,0,1,3.655-1.066c.613-.125,1.233-.2,1.844-.295l.912-.139c.3-.04.612-.037.915-.058l1.812-.091c.6-.007,1.195.051,1.785.073a25.473,25.473,0,0,1,3.46.41,13.819,13.819,0,0,1,1.656.379c.542.148,1.089.262,1.612.436l1.539.567.757.278.723.344,1.417.686c.473.217.892.524,1.332.776.432.268.87.52,1.284.793l1.18.886a27.155,27.155,0,0,1,6.917,7.787,25.825,25.825,0,0,1,2.982,7.292,14.708,14.708,0,0,1,.343,1.5l.195,1.333c.056.413.126.793.158,1.143l.04.956.049,1.3C-923.785,191.414-923.788,191.563-923.788,191.563Z" transform="translate(978.435 -164.19)" fill="#e8505b"/>
          </g>
        </g>
      </g>
      <g id="Group_2302" data-name="Group 2302" transform="translate(0 74.974)">
        <g id="Group_2298" data-name="Group 2298" transform="translate(0 0)">
          <circle id="Ellipse_62" data-name="Ellipse 62" cx="27.243" cy="27.243" r="27.243" transform="translate(0 52.897) rotate(-76.131)" fill="#fff"/>
          <g id="Group_2297" data-name="Group 2297" transform="translate(5.574 5.605)">
            <path id="Path_1346" data-name="Path 1346" d="M-943.646,135.947s-.019-.15-.04-.442-.045-.731-.081-1.292l-.056-.953c-.036-.348-.11-.726-.172-1.137s-.134-.853-.21-1.327a14.8,14.8,0,0,0-.355-1.486,25.955,25.955,0,0,0-3.015-7.228,27.081,27.081,0,0,0-6.9-7.7l-1.173-.874c-.411-.27-.845-.517-1.274-.782-.439-.248-.853-.551-1.323-.764l-1.409-.676-.716-.339-.752-.274-1.526-.556c-.519-.171-1.06-.281-1.6-.428a14.221,14.221,0,0,0-1.641-.372,25.249,25.249,0,0,0-3.428-.4c-.584-.019-1.173-.077-1.766-.067l-1.794.092c-.3.021-.6.019-.905.059l-.9.139c-.6.1-1.217.17-1.823.3a28.564,28.564,0,0,0-3.613,1.06,28.217,28.217,0,0,0-3.533,1.552c-.572.311-1.121.672-1.687,1.008-.277.177-.573.329-.837.53l-.8.6a30.664,30.664,0,0,0-3.072,2.611l-1.378,1.517-.347.381-.31.412-.62.83-.623.833-.546.892-.545.9-.273.45-.232.473q-.457.951-.919,1.91l-.735,2.006a28.951,28.951,0,0,0-1.4,8.545,28.906,28.906,0,0,0,1.4,8.547q.368,1.008.734,2.007.463.959.921,1.911l.23.473.274.45.545.9.544.892.623.834.62.83.311.412.347.381,1.377,1.517a30.4,30.4,0,0,0,3.073,2.612l.8.6c.263.2.56.353.837.53.567.336,1.115.7,1.688,1.008a28.534,28.534,0,0,0,3.534,1.553,29.024,29.024,0,0,0,3.613,1.06c.606.125,1.22.195,1.823.295l.9.14c.3.038.605.037.906.058l1.793.093c.594.008,1.183-.048,1.767-.069a25.248,25.248,0,0,0,3.428-.4,13.865,13.865,0,0,0,1.641-.372c.536-.147,1.078-.257,1.6-.428l1.525-.556.753-.274.716-.34,1.408-.675c.469-.213.885-.516,1.322-.766s.863-.512,1.275-.782q.594-.44,1.173-.874a27.061,27.061,0,0,0,6.9-7.7,25.937,25.937,0,0,0,3.014-7.23,14.3,14.3,0,0,0,.355-1.484l.21-1.327c.062-.412.136-.789.172-1.137l.056-.952q.054-.842.081-1.294c.021-.291.04-.44.04-.44s0,.15-.007.44l-.049,1.3-.04.955c-.031.351-.1.731-.158,1.144s-.125.857-.2,1.333a14.808,14.808,0,0,1-.343,1.5,25.86,25.86,0,0,1-2.981,7.29,27.153,27.153,0,0,1-6.917,7.787l-1.18.886c-.414.274-.851.525-1.283.793s-.859.56-1.332.776l-1.418.686-.721.346-.759.279q-.761.28-1.539.565c-.523.176-1.07.288-1.611.438a14.16,14.16,0,0,1-1.656.379,25.515,25.515,0,0,1-3.461.41c-.59.022-1.185.08-1.785.073l-1.812-.091c-.3-.021-.61-.018-.915-.058l-.914-.139c-.609-.1-1.229-.17-1.844-.295a29.033,29.033,0,0,1-3.655-1.066,28.344,28.344,0,0,1-3.575-1.565c-.579-.313-1.135-.678-1.708-1.017-.28-.178-.579-.332-.846-.534l-.808-.6a30.4,30.4,0,0,1-3.11-2.639l-1.4-1.532-.35-.385-.316-.416-.628-.84-.631-.844-.553-.9-.551-.907-.276-.455-.235-.479q-.465-.963-.931-1.933-.371-1.012-.745-2.03a29.281,29.281,0,0,1-1.414-8.648,29.251,29.251,0,0,1,1.416-8.646q.374-1.019.745-2.03l.932-1.932.235-.479.277-.455.552-.907.553-.9.63-.842.628-.84.316-.416.35-.386,1.4-1.532a30.71,30.71,0,0,1,3.11-2.638l.807-.6c.267-.2.567-.355.848-.534.573-.339,1.129-.7,1.708-1.017a28.434,28.434,0,0,1,3.574-1.565,28.72,28.72,0,0,1,3.655-1.065c.613-.126,1.233-.2,1.844-.3l.912-.139c.3-.04.612-.037.915-.058l1.812-.089c.6-.008,1.2.051,1.785.073a25.249,25.249,0,0,1,3.46.409,14.076,14.076,0,0,1,1.656.379c.542.15,1.089.262,1.612.438l1.539.565.757.278.723.344,1.417.687c.473.215.892.523,1.332.775.432.269.87.52,1.284.794q.6.447,1.18.885a27.154,27.154,0,0,1,6.917,7.787,25.833,25.833,0,0,1,2.982,7.292,14.725,14.725,0,0,1,.343,1.5l.2,1.333c.056.413.126.793.158,1.144l.04.956.049,1.3C-943.643,135.8-943.646,135.947-943.646,135.947Z" transform="translate(998.293 -108.573)" fill="#e8505b"/>
          </g>
        </g>
        <g id="Group_2301" data-name="Group 2301" transform="translate(0 0)">
          <g id="Group_2300" data-name="Group 2300">
            <circle id="Ellipse_63" data-name="Ellipse 63" cx="27.243" cy="27.243" r="27.243" transform="translate(0 52.897) rotate(-76.131)" fill="#fff"/>
            <g id="Group_2299" data-name="Group 2299" transform="translate(5.574 5.605)">
              <path id="Path_1347" data-name="Path 1347" d="M-943.646,135.947s-.019-.15-.04-.442-.045-.731-.081-1.292l-.056-.953c-.036-.348-.11-.726-.172-1.137s-.134-.853-.21-1.327a14.8,14.8,0,0,0-.355-1.486,25.955,25.955,0,0,0-3.015-7.228,27.081,27.081,0,0,0-6.9-7.7l-1.173-.874c-.411-.27-.845-.517-1.274-.782-.439-.248-.853-.551-1.323-.764l-1.409-.676-.716-.339-.752-.274-1.526-.556c-.519-.171-1.06-.281-1.6-.428a14.221,14.221,0,0,0-1.641-.372,25.249,25.249,0,0,0-3.428-.4c-.584-.019-1.173-.077-1.766-.067l-1.794.092c-.3.021-.6.019-.905.059l-.9.139c-.6.1-1.217.17-1.823.3a28.564,28.564,0,0,0-3.613,1.06,28.217,28.217,0,0,0-3.533,1.552c-.572.311-1.121.672-1.687,1.008-.277.177-.573.329-.837.53l-.8.6a30.664,30.664,0,0,0-3.072,2.611l-1.378,1.517-.347.381-.31.412-.62.83-.623.833-.546.892-.545.9-.273.45-.232.473q-.457.951-.919,1.91l-.735,2.006a28.951,28.951,0,0,0-1.4,8.545,28.906,28.906,0,0,0,1.4,8.547q.368,1.008.734,2.007.463.959.921,1.911l.23.473.274.45.545.9.544.892.623.834.62.83.311.412.347.381,1.377,1.517a30.4,30.4,0,0,0,3.073,2.612l.8.6c.263.2.56.353.837.53.567.336,1.115.7,1.688,1.008a28.534,28.534,0,0,0,3.534,1.553,29.024,29.024,0,0,0,3.613,1.06c.606.125,1.22.195,1.823.295l.9.14c.3.038.605.037.906.058l1.793.093c.594.008,1.183-.048,1.767-.069a25.248,25.248,0,0,0,3.428-.4,13.865,13.865,0,0,0,1.641-.372c.536-.147,1.078-.257,1.6-.428l1.525-.556.753-.274.716-.34,1.408-.675c.469-.213.885-.516,1.322-.766s.863-.512,1.275-.782q.594-.44,1.173-.874a27.061,27.061,0,0,0,6.9-7.7,25.937,25.937,0,0,0,3.014-7.23,14.3,14.3,0,0,0,.355-1.484l.21-1.327c.062-.412.136-.789.172-1.137l.056-.952q.054-.842.081-1.294c.021-.291.04-.44.04-.44s0,.15-.007.44l-.049,1.3-.04.955c-.031.351-.1.731-.158,1.144s-.125.857-.2,1.333a14.808,14.808,0,0,1-.343,1.5,25.86,25.86,0,0,1-2.981,7.29,27.153,27.153,0,0,1-6.917,7.787l-1.18.886c-.414.274-.851.525-1.283.793s-.859.56-1.332.776l-1.418.686-.721.346-.759.279q-.761.28-1.539.565c-.523.176-1.07.288-1.611.438a14.16,14.16,0,0,1-1.656.379,25.515,25.515,0,0,1-3.461.41c-.59.022-1.185.08-1.785.073l-1.812-.091c-.3-.021-.61-.018-.915-.058l-.914-.139c-.609-.1-1.229-.17-1.844-.295a29.033,29.033,0,0,1-3.655-1.066,28.344,28.344,0,0,1-3.575-1.565c-.579-.313-1.135-.678-1.708-1.017-.28-.178-.579-.332-.846-.534l-.808-.6a30.4,30.4,0,0,1-3.11-2.639l-1.4-1.532-.35-.385-.316-.416-.628-.84-.631-.844-.553-.9-.551-.907-.276-.455-.235-.479q-.465-.963-.931-1.933-.371-1.012-.745-2.03a29.281,29.281,0,0,1-1.414-8.648,29.251,29.251,0,0,1,1.416-8.646q.374-1.019.745-2.03l.932-1.932.235-.479.277-.455.552-.907.553-.9.63-.842.628-.84.316-.416.35-.386,1.4-1.532a30.71,30.71,0,0,1,3.11-2.638l.807-.6c.267-.2.567-.355.848-.534.573-.339,1.129-.7,1.708-1.017a28.434,28.434,0,0,1,3.574-1.565,28.72,28.72,0,0,1,3.655-1.065c.613-.126,1.233-.2,1.844-.3l.912-.139c.3-.04.612-.037.915-.058l1.812-.089c.6-.008,1.2.051,1.785.073a25.249,25.249,0,0,1,3.46.409,14.076,14.076,0,0,1,1.656.379c.542.15,1.089.262,1.612.438l1.539.565.757.278.723.344,1.417.687c.473.215.892.523,1.332.775.432.269.87.52,1.284.794q.6.447,1.18.885a27.154,27.154,0,0,1,6.917,7.787,25.833,25.833,0,0,1,2.982,7.292,14.725,14.725,0,0,1,.343,1.5l.2,1.333c.056.413.126.793.158,1.144l.04.956.049,1.3C-943.643,135.8-943.646,135.947-943.646,135.947Z" transform="translate(998.293 -108.573)" fill="#e8505b"/>
            </g>
          </g>
        </g>
      </g>
      <g id="Group_2327" data-name="Group 2327" transform="translate(242.9 30.662)" opacity="0.85">
        <g id="Group_2306" data-name="Group 2306" transform="translate(6.286)">
          <g id="Group_2303" data-name="Group 2303" transform="translate(0.137 0.115)">
            <path id="Path_1348" data-name="Path 1348" d="M-820.617,75.4v50.047h34.427a5.908,5.908,0,0,0,5.909-5.909V84.448l-12.177-12.177h-25.03A3.129,3.129,0,0,0-820.617,75.4Z" transform="translate(820.617 -72.271)" fill="#fff"/>
          </g>
          <g id="Group_2305" data-name="Group 2305">
            <g id="Group_2304" data-name="Group 2304">
              <path id="Path_1349" data-name="Path 1349" d="M-820.58,75.431s0-.045,0-.134a2.377,2.377,0,0,1,.033-.4,3.078,3.078,0,0,1,.615-1.424,3.18,3.18,0,0,1,2.179-1.207c1.007-.037,2.153-.019,3.449-.03l21.885-.051h.048l.033.034,12.192,12.162.038.04v.056c0,6.021.01,12.524.014,19.374q0,5.138,0,10.521c0,1.793.012,3.594-.009,5.43a6.08,6.08,0,0,1-.742,2.692,6.271,6.271,0,0,1-1.895,2.083,6.032,6.032,0,0,1-2.412.964,17.8,17.8,0,0,1-2.553.089h-5.009l-9.743,0c-6.361,0-12.436-.007-18.124-.011h-.137v-.137c.022-14.834.041-27.343.055-36.153.017-4.4.03-7.865.039-10.248.009-1.18.016-2.089.022-2.714l.011-.7c0-.156.011-.236.011-.236s.008.08.011.236l.013.7c0,.624.011,1.534.02,2.714.01,2.383.022,5.852.039,10.248.014,8.81.033,21.319.056,36.153l-.139-.137c5.688,0,11.762-.008,18.124-.011l9.743,0h5.009a17.592,17.592,0,0,0,2.5-.086,5.712,5.712,0,0,0,2.29-.915,5.978,5.978,0,0,0,1.8-1.977,5.785,5.785,0,0,0,.7-2.557c.022-1.812.007-3.63.012-5.418q0-5.375,0-10.521c0-6.85.01-13.352.014-19.374l.038.095L-792.5,72.383l.081.033-21.885-.049c-1.292,0-2.452-.026-3.44,0a3.119,3.119,0,0,0-2.136,1.151,3.122,3.122,0,0,0-.634,1.388C-820.58,75.249-820.565,75.433-820.58,75.431Z" transform="translate(820.717 -72.187)" fill="#1a2e35"/>
            </g>
          </g>
        </g>
        <g id="Group_2307" data-name="Group 2307" transform="translate(34.582 0.115)">
          <path id="Path_1350" data-name="Path 1350" d="M-800.091,72.271l12.177,12.177H-798.04a2.052,2.052,0,0,1-2.051-2.051Z" transform="translate(800.091 -72.271)" fill="#e1e1e1"/>
        </g>
        <g id="Group_2308" data-name="Group 2308" transform="translate(0 45.981)">
          <path id="Path_1351" data-name="Path 1351" d="M-825.3,105.7h0a7.311,7.311,0,0,0,7.311,7.311h33.7a7.92,7.92,0,0,1-4.464-6.917l-.01-.394Z" transform="translate(825.299 -105.704)" fill="#e1e1e1"/>
        </g>
        <g id="Group_2310" data-name="Group 2310" transform="translate(11.275 10.842)">
          <g id="Group_2309" data-name="Group 2309">
            <path id="Path_1352" data-name="Path 1352" d="M-808.374,80.242a31.053,31.053,0,0,1-4.353.152,31.053,31.053,0,0,1-4.353-.152,31.315,31.315,0,0,1,4.353-.152A31.315,31.315,0,0,1-808.374,80.242Z" transform="translate(817.08 -80.09)" fill="#1a2e35"/>
          </g>
        </g>
        <g id="Group_2312" data-name="Group 2312" transform="translate(12.348 16.328)">
          <g id="Group_2311" data-name="Group 2311">
            <path id="Path_1353" data-name="Path 1353" d="M-790.22,84.241c0,.085-5.839.154-13.038.154s-13.04-.069-13.04-.154,5.837-.152,13.04-.152S-790.22,84.158-790.22,84.241Z" transform="translate(816.298 -84.089)" fill="#1a2e35"/>
          </g>
        </g>
        <g id="Group_2314" data-name="Group 2314" transform="translate(12.348 21.16)">
          <g id="Group_2313" data-name="Group 2313">
            <path id="Path_1354" data-name="Path 1354" d="M-790.22,87.763c0,.085-5.839.154-13.038.154s-13.04-.069-13.04-.154,5.837-.152,13.04-.152S-790.22,87.68-790.22,87.763Z" transform="translate(816.298 -87.611)" fill="#1a2e35"/>
          </g>
        </g>
        <g id="Group_2316" data-name="Group 2316" transform="translate(12.348 25.992)">
          <g id="Group_2315" data-name="Group 2315">
            <path id="Path_1355" data-name="Path 1355" d="M-790.22,91.285c0,.085-5.839.154-13.038.154s-13.04-.069-13.04-.154,5.837-.152,13.04-.152S-790.22,91.2-790.22,91.285Z" transform="translate(816.298 -91.133)" fill="#1a2e35"/>
          </g>
        </g>
        <g id="Group_2318" data-name="Group 2318" transform="translate(12.348 30.823)">
          <g id="Group_2317" data-name="Group 2317">
            <path id="Path_1356" data-name="Path 1356" d="M-790.22,94.807c0,.085-5.839.154-13.038.154s-13.04-.069-13.04-.154,5.837-.152,13.04-.152S-790.22,94.724-790.22,94.807Z" transform="translate(816.298 -94.655)" fill="#1a2e35"/>
          </g>
        </g>
        <g id="Group_2320" data-name="Group 2320" transform="translate(12.348 35.655)">
          <g id="Group_2319" data-name="Group 2319">
            <path id="Path_1357" data-name="Path 1357" d="M-790.22,98.329c0,.085-5.839.154-13.038.154s-13.04-.069-13.04-.154,5.837-.152,13.04-.152S-790.22,98.246-790.22,98.329Z" transform="translate(816.298 -98.177)" fill="#1a2e35"/>
          </g>
        </g>
        <g id="Group_2322" data-name="Group 2322" transform="translate(12.348 40.487)">
          <g id="Group_2321" data-name="Group 2321">
            <path id="Path_1358" data-name="Path 1358" d="M-790.22,101.851c0,.085-5.839.154-13.038.154s-13.04-.069-13.04-.154,5.837-.152,13.04-.152S-790.22,101.768-790.22,101.851Z" transform="translate(816.298 -101.699)" fill="#1a2e35"/>
          </g>
        </g>
        <g id="Group_2324" data-name="Group 2324" transform="translate(0 45.829)">
          <g id="Group_2323" data-name="Group 2323">
            <path id="Path_1359" data-name="Path 1359" d="M-784.285,113.056a.511.511,0,0,1-.151-.063l-.427-.215-.311-.165-.353-.237c-.125-.088-.265-.177-.406-.281l-.427-.369a7.39,7.39,0,0,1-1.719-2.3,8.079,8.079,0,0,1-.8-3.689l.122.132-13.731.03-16.129-.044-4.888-.049-1.329-.027a2.646,2.646,0,0,1-.462-.032,2.585,2.585,0,0,1,.462-.03c.333-.008.775-.016,1.329-.029l4.888-.049,16.129-.044,13.731.03h.125l0,.13a7.98,7.98,0,0,0,.737,3.587,7.456,7.456,0,0,0,1.635,2.283A13.078,13.078,0,0,0-784.285,113.056Z" transform="translate(825.299 -105.593)" fill="#1a2e35"/>
          </g>
        </g>
        <g id="Group_2326" data-name="Group 2326" transform="translate(34.43 0.115)">
          <g id="Group_2325" data-name="Group 2325">
            <path id="Path_1360" data-name="Path 1360" d="M-800.05,72.271a5.247,5.247,0,0,1,.06.922c.012.649.029,1.5.048,2.516.01,1.08.021,2.339.033,3.73,0,.7.006,1.439.008,2.2a7.859,7.859,0,0,0,.041,1.133,1.935,1.935,0,0,0,.519.964,1.935,1.935,0,0,0,.965.519,7.841,7.841,0,0,0,1.132.041l2.2.008,3.731.033,2.514.048a5.276,5.276,0,0,1,.922.06,5.388,5.388,0,0,1-.922.059l-2.514.048-3.731.033-2.2.01a7.73,7.73,0,0,1-1.192-.043,2.239,2.239,0,0,1-1.121-.6,2.233,2.233,0,0,1-.6-1.119,7.73,7.73,0,0,1-.043-1.194l.01-2.2c.012-1.391.023-2.65.033-3.73.019-1.021.036-1.867.048-2.516A5.394,5.394,0,0,1-800.05,72.271Z" transform="translate(800.202 -72.271)" fill="#1a2e35"/>
          </g>
        </g>
      </g>
      <path id="Icon_awesome-heart" data-name="Icon awesome-heart" d="M-938.258,66.9a4.21,4.21,0,0,0-5.744.418l-.606.624-.6-.626a4.211,4.211,0,0,0-5.744-.418,4.425,4.425,0,0,0-.449,6.242c.047.053.095.106.144.158l5.95,6.151a.963.963,0,0,0,1.364.03l.03-.03,5.957-6.15a4.417,4.417,0,0,0-.133-6.246c-.055-.052-.111-.1-.169-.154Z" transform="translate(1020.902 -43.841)" fill="#ff905f"/>
      <g id="Group_116" data-name="Group 116" transform="translate(40.951 176.213)">
        <path id="Icon_awesome-star" data-name="Icon awesome-star" d="M-969.58,178.5l-.8,1.624-1.794.261a.393.393,0,0,0-.331.446.393.393,0,0,0,.114.225l1.3,1.262-.307,1.785a.393.393,0,0,0,.321.453.379.379,0,0,0,.248-.04l1.6-.842,1.6.842a.391.391,0,0,0,.529-.166.385.385,0,0,0,.039-.247l-.306-1.785,1.3-1.263a.394.394,0,0,0,.007-.556.394.394,0,0,0-.227-.114l-1.793-.262-.8-1.623a.392.392,0,0,0-.524-.181A.4.4,0,0,0-969.58,178.5Z" transform="translate(972.506 -178.284)" fill="#ed7743"/>
        <path id="Icon_awesome-star-2" data-name="Icon awesome-star-2" d="M-964.1,178.5l-.8,1.624-1.794.261a.393.393,0,0,0-.331.446.4.4,0,0,0,.114.225l1.3,1.262-.306,1.785a.391.391,0,0,0,.32.453.385.385,0,0,0,.25-.04l1.6-.842,1.6.842a.391.391,0,0,0,.53-.166.394.394,0,0,0,.04-.247l-.307-1.785,1.3-1.263a.394.394,0,0,0,.007-.556.394.394,0,0,0-.226-.114l-1.793-.262-.8-1.623a.394.394,0,0,0-.526-.181A.387.387,0,0,0-964.1,178.5Z" transform="translate(974.545 -178.284)" fill="#ed7743"/>
        <path id="Icon_awesome-star-3" data-name="Icon awesome-star-3" d="M-958.193,178.5l-.8,1.624-1.793.261a.393.393,0,0,0-.332.446.4.4,0,0,0,.115.225l1.3,1.262-.307,1.785a.392.392,0,0,0,.321.453.381.381,0,0,0,.248-.04l1.6-.842,1.6.842a.391.391,0,0,0,.529-.166.393.393,0,0,0,.04-.247l-.306-1.785,1.3-1.263a.393.393,0,0,0,.005-.556.4.4,0,0,0-.225-.114l-1.794-.262-.8-1.623a.394.394,0,0,0-.525-.181A.393.393,0,0,0-958.193,178.5Z" transform="translate(976.74 -178.284)" fill="#ed7743"/>
        <path id="Icon_awesome-star-4" data-name="Icon awesome-star-4" d="M-952.289,178.5l-.8,1.624-1.793.261a.392.392,0,0,0-.331.446.393.393,0,0,0,.114.225l1.3,1.262-.307,1.785a.392.392,0,0,0,.321.453.38.38,0,0,0,.248-.04l1.6-.842,1.6.842a.393.393,0,0,0,.531-.166.384.384,0,0,0,.038-.247l-.306-1.785,1.3-1.263a.394.394,0,0,0,.007-.556.4.4,0,0,0-.226-.114l-1.793-.262-.8-1.623a.393.393,0,0,0-.525-.181A.392.392,0,0,0-952.289,178.5Z" transform="translate(978.936 -178.284)" fill="#ec4119" opacity="0.29" style="isolation: isolate"/>
        <path id="Icon_awesome-star-5" data-name="Icon awesome-star-5" d="M-946.385,178.5l-.8,1.624-1.793.261a.393.393,0,0,0-.332.446.4.4,0,0,0,.115.225l1.3,1.262-.307,1.785a.392.392,0,0,0,.321.453.381.381,0,0,0,.248-.04l1.6-.842,1.6.842a.393.393,0,0,0,.531-.166.4.4,0,0,0,.038-.247l-.306-1.785,1.3-1.263a.392.392,0,0,0,.006-.556.394.394,0,0,0-.225-.114l-1.793-.262-.8-1.623a.394.394,0,0,0-.525-.181A.393.393,0,0,0-946.385,178.5Z" transform="translate(981.131 -178.284)" fill="#ec4119" opacity="0.29" style="isolation: isolate"/>
      </g>
      <g id="iconfinder_4908109_gps_location_locator_map_marker_icon" data-name="iconfinder 4908109 gps location locator map marker icon" transform="translate(26.98 92.599)">
        <path id="Path_112" data-name="Path 112" d="M-976.771,117.335a5.919,5.919,0,0,0-5.918,5.92c0,3.995,5.179,8.508,5.438,8.7l.48.416.481-.416c.259-.192,5.438-4.706,5.438-8.7a5.92,5.92,0,0,0-5.919-5.92Zm0,8.879a2.96,2.96,0,0,1-2.959-2.959,2.96,2.96,0,0,1,2.959-2.961,2.96,2.96,0,0,1,2.96,2.961,2.96,2.96,0,0,1-2.96,2.959Z" transform="translate(982.69 -117.335)" fill="#ff905f"/>
        <circle id="Ellipse_18" data-name="Ellipse 18" cx="1.48" cy="1.48" r="1.48" transform="translate(4.439 4.439)" fill="#ff905f"/>
      </g>
      <path id="iconfinder_1608866_tag_icon" data-name="iconfinder 1608866 tag icon" d="M-893.607,69.155a1.294,1.294,0,0,0-1.292-1.3,1.294,1.294,0,0,0-1.3,1.292,1.294,1.294,0,0,0,1.292,1.3,1.3,1.3,0,0,0,.917-.38A1.243,1.243,0,0,0-893.607,69.155Zm10.751,5.8a1.238,1.238,0,0,1-.373.907l-4.944,4.958a1.3,1.3,0,0,1-.918.373,1.235,1.235,0,0,1-.907-.373l-7.205-7.215a3,3,0,0,1-.65-1.018,3.1,3.1,0,0,1-.269-1.178V67.225a1.308,1.308,0,0,1,1.294-1.294h4.191a3.569,3.569,0,0,1,2.207.916l7.205,7.2A1.3,1.3,0,0,1-882.856,74.959Z" transform="translate(1041.118 -43.852)" fill="#ff905f"/>
      <text id="Make_Offer" data-name="Make
Offer" transform="translate(151.052 47.118)" font-size="7" font-family="Poppins-Regular, Poppins" opacity="0.7"><tspan x="-9.352" y="0">Make</tspan><tspan x="-8.53" y="7">Offer</tspan></text>
      <text id="Favourites" transform="translate(76.051 46.118)" font-size="7" font-family="Poppins-Regular, Poppins" opacity="0.7"><tspan x="-18.011" y="0">Favourites</tspan></text>
      <text id="Request_Tour" data-name="Request
Tour" transform="translate(33.051 117.118)" font-size="7" font-family="Poppins-Regular, Poppins" opacity="0.7"><tspan x="-14.175" y="0">Request</tspan><tspan x="-7.679" y="7">Tour</tspan></text>
      <text id="Ratings" transform="translate(60.051 196.119)" font-size="7" font-family="Poppins-Regular, Poppins" opacity="0.7"><tspan x="-13.062" y="0">Ratings</tspan></text>
    </g>
  </g>
</svg>
