<svg xmlns="http://www.w3.org/2000/svg" width="60" height="60" viewBox="0 0 60 60">
  <g id="Group_5027" data-name="Group 5027" transform="translate(2720 -5695)">
    <rect id="Rectangle_2095" data-name="Rectangle 2095" width="60" height="60" transform="translate(-2720 5695)" fill="#fff" opacity="0"/>
    <path id="Icon_material-collections-bookmark" data-name="Icon material-collections-bookmark" d="M48.114,3H18.038a5.027,5.027,0,0,0-5.013,5.013V38.089A5.027,5.027,0,0,0,18.038,43.1H48.114a5.027,5.027,0,0,0,5.013-5.013V8.013A5.027,5.027,0,0,0,48.114,3Zm0,25.063L41.848,24.3l-6.266,3.76V8.013H48.114Z" transform="translate(-2718.063 5696.937)" fill="#4472c7"/>
    <path id="Icon_material-collections-bookmark-2" data-name="Icon material-collections-bookmark" d="M8.013,13.025H3V48.114a5.027,5.027,0,0,0,5.013,5.013H43.1V48.114H8.013Z" transform="translate(-2718.063 5696.937)" fill="#a6bbb4"/>
  </g>
</svg>
