<svg xmlns="http://www.w3.org/2000/svg" width="40" height="40" viewBox="0 0 40 40">
  <g id="Group_57764" data-name="Group 57764" transform="translate(2720 -5695)">
    <rect id="Rectangle_2095" data-name="Rectangle 2095" width="40" height="40" transform="translate(-2720 5695)" fill="#fff" opacity="0"/>
    <path id="Path_1059" data-name="Path 1059" d="M31.645,32.716V11.3a3.438,3.438,0,0,0-3.429-3.429H6.8A3.438,3.438,0,0,0,3.375,11.3V32.724A3.438,3.438,0,0,0,6.8,36.153H28.224A3.448,3.448,0,0,0,31.645,32.716Z" transform="translate(-2720.08 5695.556)" fill="#4472c7"/>
    <path id="Path_1060" data-name="Path 1060" d="M32.716,3.375H11.3A3.438,3.438,0,0,0,7.875,6.8V7.23H28.861a3.438,3.438,0,0,1,3.429,3.429V31.645h.426a3.438,3.438,0,0,0,3.429-3.429V6.8A3.438,3.438,0,0,0,32.716,3.375Z" transform="translate(-2719.44 5694.916)" fill="#152026"/>
    <path id="Path_upload" data-name="Path / upload" d="M10.575,21.119V12.756H5L14.756,3l9.756,9.756H18.938v8.363H10.575M5,26.694V23.907H24.513v2.788Z" transform="translate(-2716.707 5701.885)" fill="#fff"/>
  </g>
</svg>
