<svg xmlns="http://www.w3.org/2000/svg" width="40" height="40" viewBox="0 0 40 40">
  <g id="Group_5027" data-name="Group 5027" transform="translate(2720 -5695)">
    <rect id="Rectangle_2095" data-name="Rectangle 2095" width="40" height="40" transform="translate(-2720 5695)" fill="#fff" opacity="0"/>
    <path id="Icon_material-collections-bookmark" data-name="Icon material-collections-bookmark" d="M36.418,3H16.367a3.352,3.352,0,0,0-3.342,3.342V26.393a3.352,3.352,0,0,0,3.342,3.342H36.418a3.352,3.352,0,0,0,3.342-3.342V6.342A3.352,3.352,0,0,0,36.418,3Zm0,16.709L32.241,17.2l-4.177,2.506V6.342h8.354Z" transform="translate(-2723.051 5695.291)" fill="#4472c7"/>
    <path id="Icon_material-collections-bookmark-2" data-name="Icon material-collections-bookmark" d="M6.342,13.025H3V36.418A3.352,3.352,0,0,0,6.342,39.76H29.734V36.418H6.342Z" transform="translate(-2719.709 5691.949)" fill="#152026"/>
  </g>
</svg>
