<svg xmlns="http://www.w3.org/2000/svg" width="40" height="40" viewBox="0 0 40 40">
  <g id="Group_5027" data-name="Group 5027" transform="translate(0 -0.186)">
    <rect id="Rectangle_2095" data-name="Rectangle 2095" width="40" height="40" transform="translate(0 0.186)" fill="#fff" opacity="0"/>
    <g id="Icon_ionic-md-wallet" data-name="Icon ionic-md-wallet" transform="translate(1.899 3.423)">
      <path id="Path_1056" data-name="Path 1056" d="M16.838,28.632V13.786a3.714,3.714,0,0,1,3.716-3.716H37.7V8.216A3.7,3.7,0,0,0,34.017,4.5H7.2A3.761,3.761,0,0,0,3.375,8.155V34.263A3.761,3.761,0,0,0,7.2,37.918h26.8A3.7,3.7,0,0,0,37.689,34.2V32.348H20.545A3.712,3.712,0,0,1,16.838,28.632Z" transform="translate(-3.375 -4.5)" fill="#4472c7"/>
      <path id="Path_1057" data-name="Path 1057" d="M17.227,13.346V25.529a1.4,1.4,0,0,0,1.392,1.392H34.893a1.4,1.4,0,0,0,1.392-1.392V13.346a1.4,1.4,0,0,0-1.392-1.392H18.619A1.4,1.4,0,0,0,17.227,13.346Zm6.71,8.868a2.786,2.786,0,1,1,2.6-2.6A2.786,2.786,0,0,1,23.936,22.213Z" transform="translate(-0.083 -2.728)" fill="#152026"/>
    </g>
  </g>
</svg>
