<svg xmlns="http://www.w3.org/2000/svg" width="58" height="58" viewBox="0 0 58 58">
  <g id="Group_4865" data-name="Group 4865" transform="translate(-19.58 -140.58)">
    <circle id="Ellipse_178" data-name="Ellipse 178" cx="29" cy="29" r="29" transform="translate(19.58 140.58)" fill="#c2c2c2"/>
    <path id="Icon_material-work" data-name="Icon material-work" d="M26.288,8.175H21.113V5.588A2.579,2.579,0,0,0,18.526,3H13.35a2.579,2.579,0,0,0-2.588,2.588V8.175H5.588a2.568,2.568,0,0,0-2.575,2.588L3,24.995a2.579,2.579,0,0,0,2.588,2.588h20.7a2.579,2.579,0,0,0,2.588-2.588V10.763A2.579,2.579,0,0,0,26.288,8.175Zm-7.763,0H13.35V5.588h5.175Z" transform="translate(32.642 154.288)" fill="#fff"/>
  </g>
</svg>
