<svg xmlns="http://www.w3.org/2000/svg" width="24.011" height="27.441" viewBox="0 0 24.011 27.441">
  <path id="Icon_awesome-building" data-name="Icon awesome-building" d="M23.368,25.726H22.3V1.286A1.286,1.286,0,0,0,21.01,0H3A1.286,1.286,0,0,0,1.715,1.286v24.44H.643A.643.643,0,0,0,0,26.369v1.072H24.011V26.369A.643.643,0,0,0,23.368,25.726ZM6.86,4.073A.643.643,0,0,1,7.5,3.43H9.647a.643.643,0,0,1,.643.643V6.217a.643.643,0,0,1-.643.643H7.5a.643.643,0,0,1-.643-.643Zm0,5.145A.643.643,0,0,1,7.5,8.575H9.647a.643.643,0,0,1,.643.643v2.144a.643.643,0,0,1-.643.643H7.5a.643.643,0,0,1-.643-.643Zm2.787,7.932H7.5a.643.643,0,0,1-.643-.643V14.364a.643.643,0,0,1,.643-.643H9.647a.643.643,0,0,1,.643.643v2.144A.643.643,0,0,1,9.647,17.151Zm4.073,8.575h-3.43v-4.5a.643.643,0,0,1,.643-.643h2.144a.643.643,0,0,1,.643.643Zm3.43-9.219a.643.643,0,0,1-.643.643H14.364a.643.643,0,0,1-.643-.643V14.364a.643.643,0,0,1,.643-.643h2.144a.643.643,0,0,1,.643.643Zm0-5.145a.643.643,0,0,1-.643.643H14.364a.643.643,0,0,1-.643-.643V9.219a.643.643,0,0,1,.643-.643h2.144a.643.643,0,0,1,.643.643Zm0-5.145a.643.643,0,0,1-.643.643H14.364a.643.643,0,0,1-.643-.643V4.073a.643.643,0,0,1,.643-.643h2.144a.643.643,0,0,1,.643.643Z" fill="#006cbb"/>
</svg>
