<svg xmlns="http://www.w3.org/2000/svg" width="49.184" height="56.211" viewBox="0 0 49.184 56.211">
  <path id="Icon_awesome-calendar-alt" data-name="Icon awesome-calendar-alt" d="M0,50.941a5.271,5.271,0,0,0,5.27,5.27H43.915a5.271,5.271,0,0,0,5.27-5.27V21.079H0ZM35.132,29.423a1.321,1.321,0,0,1,1.317-1.317h4.391a1.321,1.321,0,0,1,1.317,1.317v4.391a1.321,1.321,0,0,1-1.317,1.317H36.449a1.321,1.321,0,0,1-1.317-1.317Zm0,14.053a1.321,1.321,0,0,1,1.317-1.317h4.391a1.321,1.321,0,0,1,1.317,1.317v4.391a1.321,1.321,0,0,1-1.317,1.317H36.449a1.321,1.321,0,0,1-1.317-1.317ZM21.079,29.423A1.321,1.321,0,0,1,22.4,28.105h4.391a1.321,1.321,0,0,1,1.317,1.317v4.391a1.321,1.321,0,0,1-1.317,1.317H22.4a1.321,1.321,0,0,1-1.317-1.317Zm0,14.053A1.321,1.321,0,0,1,22.4,42.158h4.391a1.321,1.321,0,0,1,1.317,1.317v4.391a1.321,1.321,0,0,1-1.317,1.317H22.4a1.321,1.321,0,0,1-1.317-1.317ZM7.026,29.423a1.321,1.321,0,0,1,1.317-1.317h4.391a1.321,1.321,0,0,1,1.317,1.317v4.391a1.321,1.321,0,0,1-1.317,1.317H8.344a1.321,1.321,0,0,1-1.317-1.317Zm0,14.053a1.321,1.321,0,0,1,1.317-1.317h4.391a1.321,1.321,0,0,1,1.317,1.317v4.391a1.321,1.321,0,0,1-1.317,1.317H8.344a1.321,1.321,0,0,1-1.317-1.317ZM43.915,7.026h-5.27V1.757A1.762,1.762,0,0,0,36.888,0H33.375a1.762,1.762,0,0,0-1.757,1.757v5.27H17.566V1.757A1.762,1.762,0,0,0,15.809,0H12.3A1.762,1.762,0,0,0,10.54,1.757v5.27H5.27A5.271,5.271,0,0,0,0,12.3v5.27H49.184V12.3A5.271,5.271,0,0,0,43.915,7.026Z" fill="#fff"/>
</svg>
