<svg xmlns="http://www.w3.org/2000/svg" width="14.109" height="14.413" viewBox="0 0 14.109 14.413">
  <path id="Icon_material-event-available" data-name="Icon material-event-available" d="M15.106,8.75l-.831-.764L10.45,11.5,8.788,9.975l-.831.764,2.493,2.292Zm1.936-5.809h-.784V1.5H14.69V2.941H8.419V1.5H6.852V2.941H6.068a1.5,1.5,0,0,0-1.56,1.441L4.5,14.472a1.508,1.508,0,0,0,1.568,1.441H17.042a1.513,1.513,0,0,0,1.568-1.441V4.383A1.513,1.513,0,0,0,17.042,2.941Zm0,11.531H6.068V6.545H17.042Z" transform="translate(-4.5 -1.5)" fill="#006cbb" opacity="0.84"/>
</svg>
