<svg xmlns="http://www.w3.org/2000/svg" width="32.28" height="34.475" viewBox="0 0 32.28 34.475">
  <path id="Icon_awesome-calendar-alt" data-name="Icon awesome-calendar-alt" d="M0,30.231a3.245,3.245,0,0,0,3.244,3.244H27.036a3.245,3.245,0,0,0,3.244-3.244V11.846H0ZM21.629,16.983a.813.813,0,0,1,.811-.811h2.7a.813.813,0,0,1,.811.811v2.7a.813.813,0,0,1-.811.811h-2.7a.813.813,0,0,1-.811-.811Zm0,8.651a.813.813,0,0,1,.811-.811h2.7a.813.813,0,0,1,.811.811v2.7a.813.813,0,0,1-.811.811h-2.7a.813.813,0,0,1-.811-.811Zm-8.652-8.651a.813.813,0,0,1,.811-.811h2.7a.813.813,0,0,1,.811.811v2.7a.813.813,0,0,1-.811.811h-2.7a.813.813,0,0,1-.811-.811Zm0,8.651a.813.813,0,0,1,.811-.811h2.7a.813.813,0,0,1,.811.811v2.7a.813.813,0,0,1-.811.811h-2.7a.813.813,0,0,1-.811-.811ZM4.326,16.983a.813.813,0,0,1,.811-.811h2.7a.813.813,0,0,1,.811.811v2.7a.813.813,0,0,1-.811.811h-2.7a.813.813,0,0,1-.811-.811Zm0,8.651a.813.813,0,0,1,.811-.811h2.7a.813.813,0,0,1,.811.811v2.7a.813.813,0,0,1-.811.811h-2.7a.813.813,0,0,1-.811-.811ZM27.036,5.326H23.792V2.081A1.085,1.085,0,0,0,22.71,1H20.547a1.085,1.085,0,0,0-1.081,1.081V5.326H10.814V2.081A1.085,1.085,0,0,0,9.733,1H7.57A1.085,1.085,0,0,0,6.489,2.081V5.326H3.244A3.245,3.245,0,0,0,0,8.57v3.244H30.28V8.57A3.245,3.245,0,0,0,27.036,5.326Z" transform="translate(1)" fill="none" stroke="#006cbb" stroke-width="2"/>
</svg>
