<svg xmlns="http://www.w3.org/2000/svg" width="42.261" height="36.978" viewBox="0 0 42.261 36.978">
  <path id="Icon_awesome-camera" data-name="Icon awesome-camera" d="M42.261,11.495V35.266A3.963,3.963,0,0,1,38.3,39.228H3.962A3.963,3.963,0,0,1,0,35.266V11.495A3.963,3.963,0,0,1,3.962,7.533h7.264l1.015-2.716A3.956,3.956,0,0,1,15.947,2.25H26.306a3.956,3.956,0,0,1,3.706,2.567l1.024,2.716H38.3A3.963,3.963,0,0,1,42.261,11.495ZM31.035,23.38a9.9,9.9,0,1,0-9.9,9.9A9.913,9.913,0,0,0,31.035,23.38Zm-2.641,0a7.264,7.264,0,1,1-7.264-7.264A7.274,7.274,0,0,1,28.394,23.38Z" transform="translate(0 -2.25)" fill="#fff"/>
</svg>
