<svg xmlns="http://www.w3.org/2000/svg" width="15.775" height="15.777" viewBox="0 0 15.775 15.777">
  <g id="Icon_ionic-ios-chatboxes" data-name="Icon ionic-ios-chatboxes" transform="translate(-3.375 -3.375)" opacity="0.84">
    <path id="Path_980" data-name="Path 980" d="M21.536,11.981H13.131a1.447,1.447,0,0,0-1.445,1.445v5.852a1.444,1.444,0,0,0,1.445,1.441H17.94a.415.415,0,0,1,.288.121l2.39,2.2c.133.129.353.076.353-.11V21.016c0-.228.144-.3.372-.3h.038a1.579,1.579,0,0,0,1.6-1.441V13.426A1.439,1.439,0,0,0,21.536,11.981Z" transform="translate(-3.828 -3.964)" fill="#006cbb"/>
    <path id="Path_981" data-name="Path 981" d="M8.169,7.088H14.9V4.611a1.237,1.237,0,0,0-1.236-1.236H4.611A1.237,1.237,0,0,0,3.375,4.611v6.266a1.237,1.237,0,0,0,1.236,1.236H6.929V8.325A1.242,1.242,0,0,1,8.169,7.088Z" transform="translate(0 0)" fill="#006cbb"/>
  </g>
</svg>
