<svg xmlns="http://www.w3.org/2000/svg" width="40.49" height="40.49" viewBox="0 0 40.49 40.49">
  <path id="iconfinder_1608866_tag_icon" d="M139.973,136.552a3.422,3.422,0,1,0-1,2.419A3.3,3.3,0,0,0,139.973,136.552Zm28.517,15.394a3.274,3.274,0,0,1-.989,2.405L154.379,167.5a3.422,3.422,0,0,1-2.432.989,3.274,3.274,0,0,1-2.405-.989l-19.109-19.136a7.966,7.966,0,0,1-1.724-2.7,8.252,8.252,0,0,1-.708-3.127V131.421A3.469,3.469,0,0,1,131.421,128h11.118a9.473,9.473,0,0,1,5.853,2.432L167.5,149.515A3.423,3.423,0,0,1,168.49,151.947Z" transform="translate(-128 -128)" fill="#006cbb"/>
</svg>
