<svg xmlns="http://www.w3.org/2000/svg" width="35.061" height="40.988" viewBox="0 0 35.061 40.988">
  <path id="Icon_metro-paypal" data-name="Icon metro-paypal" d="M18.895,25.121h3.778c8.207,0,12.863-3.7,14.346-11.295.048-.25.091-.492.128-.733a12.022,12.022,0,0,0,.141-1.421c.014-.305.023-.485.021-.654a6.02,6.02,0,0,0-.492-2.366,8.138,8.138,0,0,0-1.4-2.09c-1.942-2.209-5.326-3.477-9.368-3.477H13.179A1.843,1.843,0,0,0,11.36,4.64L9.037,19.6,6.147,38.241A1.107,1.107,0,0,0,7.24,39.519h6.312l1.933-11.484a3.44,3.44,0,0,1,3.409-2.915ZM39.623,14.675c-1.8,8.587-7.644,13.144-16.953,13.144H18.895a.754.754,0,0,0-.747.642L15.631,44.073h6.62a1.611,1.611,0,0,0,1.592-1.359l.066-.342,1.264-8,.082-.442a1.611,1.611,0,0,1,1.592-1.359h1c6.49,0,11.57-2.637,13.055-10.261.61-3.142.3-5.77-1.28-7.633Z" transform="translate(-6.134 -3.085)" fill="#006cbb"/>
</svg>
