<svg xmlns="http://www.w3.org/2000/svg" width="58" height="58" viewBox="0 0 58 58">
  <g id="Group_4842" data-name="Group 4842" transform="translate(-16 -471)">
    <path id="Path_363" data-name="Path 363" d="M162.038-1058.985l-9.194-7.917-1.043-.9-1.043-.9-1.043.9-1.043.9h0l-12.142,10.458v18.551h2.723v-6.01h4.888l3.744,6.01h3.087l-3.768-6.1h7.346l3.81,6.1h3.087l-4.059-6.57a4.353,4.353,0,0,0,1.384-.742,4.759,4.759,0,0,0,1.07-1.18,5.934,5.934,0,0,0,.681-1.484,5.811,5.811,0,0,0,.243-1.678,5.536,5.536,0,0,0-.4-2.057,6.025,6.025,0,0,0-1.107-1.8,5.531,5.531,0,0,0-1.689-1.279,4.783,4.783,0,0,0-2.151-.487h-6.358a6.552,6.552,0,0,1,1.167,1.027,7.072,7.072,0,0,1,.96,1.381h4.063a2.233,2.233,0,0,1,1.032.258,2.891,2.891,0,0,1,.876.691,3.6,3.6,0,0,1,.607,1.023,3.321,3.321,0,0,1,.231,1.241,3.873,3.873,0,0,1-.195,1.24,3.524,3.524,0,0,1-.534,1.034,2.471,2.471,0,0,1-.813.705,2.19,2.19,0,0,1-1.058.258H139.251v-6.45h5.521a2.227,2.227,0,0,1,1.032.258,2.841,2.841,0,0,1,.876.691,3.6,3.6,0,0,1,.609,1.023,3.361,3.361,0,0,1,.231,1.241,3.93,3.93,0,0,1-.195,1.24,3.527,3.527,0,0,1-.4.836h2.984c.05-.131.1-.263.137-.4a5.742,5.742,0,0,0,.243-1.678,5.5,5.5,0,0,0-.4-2.057,6.021,6.021,0,0,0-1.1-1.8,5.557,5.557,0,0,0-1.689-1.279,4.8,4.8,0,0,0-2.151-.487h-5.721l11.535-9.936h0l11.281,9.714v17.5h2.721v-18.748Z" transform="translate(-105.76 1551.73)" fill="#006cbb"/>
    <g id="Ellipse_169" data-name="Ellipse 169" transform="translate(16 471)" fill="none" stroke="#707070" stroke-width="0.5" opacity="0.33">
      <circle cx="29" cy="29" r="29" stroke="none"/>
      <circle cx="29" cy="29" r="28.75" fill="none"/>
    </g>
  </g>
</svg>
