<svg xmlns="http://www.w3.org/2000/svg" width="60" height="60" viewBox="0 0 60 60">
  <g id="Group_5027" data-name="Group 5027" transform="translate(2720 -5695)">
    <rect id="Rectangle_2095" data-name="Rectangle 2095" width="60" height="60" transform="translate(-2720 5695)" fill="#fff" opacity="0"/>
    <g id="Group_57769" data-name="Group 57769">
      <path id="Path_account-cog" data-name="Path / account-cog" d="M22.7,4A10.351,10.351,0,1,0,33.054,14.351,10.352,10.352,0,0,0,22.7,4m0,25.879C11.265,29.879,2,34.511,2,40.23v5.176H27.051a17.978,17.978,0,0,1-.1-15.294,37.831,37.831,0,0,0-4.244-.233" transform="translate(-2718.992 5697.709)" fill="#4472c7"/>
      <path id="Path_account-cog-2" data-name="Path / account-cog" d="M40.818,24.7a.672.672,0,0,0-.673.543l-.492,3.416a12.925,12.925,0,0,0-2.2,1.216l-3.209-1.294c-.285,0-.621,0-.8.336L30.855,33.4a.641.641,0,0,0,.155.828l2.743,2.122a10.822,10.822,0,0,0,0,2.588L31.01,41.058a.672.672,0,0,0-.155.828l2.588,4.477c.155.336.492.336.8.336l3.209-1.294a10.646,10.646,0,0,0,2.2,1.216l.492,3.416a.652.652,0,0,0,.673.543h5.176a.659.659,0,0,0,.621-.543l.492-3.416a13.741,13.741,0,0,0,2.174-1.216L52.464,46.7c.336,0,.673,0,.854-.336l2.588-4.477a.672.672,0,0,0-.155-.828l-2.769-2.122a10.9,10.9,0,0,0,.1-1.294,7.272,7.272,0,0,0-.1-1.294l2.743-2.122a.672.672,0,0,0,.155-.828l-2.588-4.477c-.155-.336-.492-.336-.828-.336L49.28,29.879a11.359,11.359,0,0,0-2.2-1.216l-.492-3.416a.612.612,0,0,0-.6-.543H40.818m2.588,9.058a3.882,3.882,0,1,1-3.882,3.882A3.877,3.877,0,0,1,43.406,33.761Z" transform="translate(-2718.992 5697.709)" fill="#a6bbb4"/>
    </g>
  </g>
</svg>
