<svg id="Group_57863" data-name="Group 57863" xmlns="http://www.w3.org/2000/svg" width="25" height="23.585" viewBox="0 0 25 23.585">
  <g id="Group_57860" data-name="Group 57860" transform="translate(0 0)">
    <rect id="Rectangle_2265" data-name="Rectangle 2265" width="25" height="23.585" fill="#152026" opacity="0"/>
    <path id="Path_reload" data-name="Path / reload" d="M2,10.962a8,8,0,0,0,8.036,7.962,8.274,8.274,0,0,0,5.714-2.3L14.411,15.3a6.015,6.015,0,0,1-4.375,1.858A6.185,6.185,0,0,1,5.616,6.583a6.259,6.259,0,0,1,10.67,4.379H13.607L17.179,14.5h.089l3.482-3.539H18.071A8.036,8.036,0,0,0,2,10.962Z" transform="translate(1.123 0.761)" fill="#152026"/>
  </g>
</svg>
