<svg xmlns="http://www.w3.org/2000/svg" width="27.64" height="24.185" viewBox="0 0 27.64 24.185">
  <path id="Icon_awesome-briefcase" data-name="Icon awesome-briefcase" d="M17.275,18.661a.863.863,0,0,1-.864.864H11.229a.863.863,0,0,1-.864-.864V16.07H0v7.774a2.657,2.657,0,0,0,2.591,2.591H25.048a2.657,2.657,0,0,0,2.591-2.591V16.07H17.275ZM25.048,7.432H20.73V4.841A2.657,2.657,0,0,0,18.138,2.25H9.5A2.657,2.657,0,0,0,6.91,4.841V7.432H2.591A2.657,2.657,0,0,0,0,10.024v4.319H27.64V10.024A2.657,2.657,0,0,0,25.048,7.432Zm-7.774,0h-6.91V5.7h6.91Z" transform="translate(0 -2.25)" fill="#0465c5" opacity="0.7"/>
</svg>
