<svg xmlns="http://www.w3.org/2000/svg" width="25.025" height="21.448" viewBox="0 0 25.025 21.448">
  <g id="Icon_ionic-md-contacts" data-name="Icon ionic-md-contacts" opacity="0.7">
    <g id="Group_1365" data-name="Group 1365" transform="translate(0 3.129)">
      <path id="Path_976" data-name="Path 976" d="M13.824,24.183a6.831,6.831,0,0,1-6.731,0C4.459,24.987,2.845,27.65,2.25,30H18.668C18.073,27.65,16.459,24.986,13.824,24.183Z" transform="translate(-2.25 -11.676)" fill="#0465c5"/>
      <path id="Path_977" data-name="Path 977" d="M11.052,8.44a5.913,5.913,0,1,0,5.915,5.913A5.914,5.914,0,0,0,11.052,8.44Zm0,10.417a4.57,4.57,0,0,1-4.133-2.822h8.267A4.57,4.57,0,0,1,11.052,18.857Z" transform="translate(-2.844 -8.44)" fill="#0465c5"/>
    </g>
    <g id="Group_1366" data-name="Group 1366" transform="translate(11.831)">
      <path id="Path_978" data-name="Path 978" d="M21.82,25.611h8.792a7.31,7.31,0,0,0-4.843-5.366,6.835,6.835,0,0,1-5.721.468,7.837,7.837,0,0,1-1.563,1.95A7.585,7.585,0,0,1,21.82,25.611Z" transform="translate(-17.418 -7.738)" fill="#0465c5"/>
      <path id="Path_979" data-name="Path 979" d="M20.647,12.1H26.26a4.559,4.559,0,0,1-4.133,2.809,4.247,4.247,0,0,1-1.417-.252,7.173,7.173,0,0,1-.364,1.4,5.917,5.917,0,1,0-3.2-8.814A7.308,7.308,0,0,1,20.647,12.1Z" transform="translate(-17.142 -4.502)" fill="#0465c5"/>
    </g>
  </g>
</svg>
