<svg xmlns="http://www.w3.org/2000/svg" width="57.835" height="49.239" viewBox="0 0 57.835 49.239">
  <path id="Path_1714" data-name="Path 1714" d="M41.17,64.782V61.388a3.162,3.162,0,0,1,.387-.046q7.29,0,14.579,0a4.83,4.83,0,0,1,.489.059V98.064H60V97.3q0-19.739-.008-39.475a.823.823,0,0,1,.557-.888c3.058-1.408,6.1-2.848,9.141-4.293a.871.871,0,0,1,.836,0c3.007,1.427,6.016,2.85,9.042,4.239a.979.979,0,0,1,.653,1.061q-.024,19.683-.013,39.362v.748h3.413V61.369H99v3.383H97.553V98.1h1.452v3.677H41.173v-3.62c.484-.03.968-.057,1.485-.086V64.785C42.133,64.782,41.651,64.782,41.17,64.782ZM75.441,90.805H64.788v7.249h3.359V94.188H72.1v3.876h3.343C75.441,95.637,75.441,93.246,75.441,90.805Zm-7.35-26.1V61.388H64.783V64.7Zm3.994-3.332c0,1.047-.013,2.024.016,3a.5.5,0,0,0,.352.342c.882.03,1.764.027,2.646,0,.126,0,.35-.186.352-.288.027-1.007.016-2.016.016-3.058ZM51.25,72.058V68.742H47.942v3.316Zm16.876-3.313H64.74c0,1.028-.013,2.005.016,2.982a.5.5,0,0,0,.352.342c.882.03,1.767.03,2.646,0a.5.5,0,0,0,.352-.345C68.139,70.75,68.126,69.773,68.126,68.744Zm3.988,3.34c1.062,0,2.055.008,3.047-.013a.425.425,0,0,0,.3-.288c.022-1.007.013-2.016.013-3.036H72.114Zm20.165,0V68.742H88.928c0,1.026-.013,2,.016,2.977a.5.5,0,0,0,.347.35C90.262,72.1,91.236,72.085,92.279,72.085ZM47.931,79.4h3.308V76.085H47.931Zm16.838-.013h3.313V76.085H64.769C64.769,77.2,64.769,78.284,64.769,79.39Zm7.366-3.308v3.354c1.043,0,2.039.008,3.031-.011.1,0,.285-.156.288-.24.019-1.026.013-2.054.013-3.1Zm20.149.016H88.925c0,1.028-.008,2.005.011,2.98,0,.121.156.336.245.339,1.025.024,2.049.016,3.1.016ZM47.95,83.435v3.308h3.294V83.435Zm16.819,3.305H68.08v-3.3H64.769Zm7.35.019h3.305V83.441H72.119Zm20.195-3.308H88.928c0,1.028-.013,2.005.016,2.98a.5.5,0,0,0,.352.345c.882.03,1.767.03,2.646,0a.506.506,0,0,0,.352-.342C92.325,85.457,92.314,84.48,92.314,83.452ZM47.958,90.775v3.338h3.278V90.775Zm44.326.027H88.925c0,1.028-.008,2.005.011,2.98,0,.121.156.339.242.339,1.025.024,2.049.016,3.1.016C92.284,92.993,92.284,91.925,92.284,90.8Z" transform="translate(-41.17 -52.537)" fill="#fff"/>
</svg>
