<svg xmlns="http://www.w3.org/2000/svg" width="55.024" height="55.065" viewBox="0 0 55.024 55.065">
  <g id="Group_3363" data-name="Group 3363" transform="translate(0)">
    <path id="Path_1749" data-name="Path 1749" d="M974.254,121.76a6.708,6.708,0,0,1,2.972,1.494,8.8,8.8,0,0,1,2.67,7.5,8.463,8.463,0,0,1-2.174,5.138,5.5,5.5,0,0,1-8.406.041,9.348,9.348,0,0,1,.418-12.651,6.941,6.941,0,0,1,3.013-1.527Z" transform="translate(-954.053 -121.76)" fill="#006cbb" opacity="0.74"/>
    <path id="Path_1750" data-name="Path 1750" d="M1013.624,121.76a6.714,6.714,0,0,1,2.972,1.494,8.806,8.806,0,0,1,2.669,7.5,8.463,8.463,0,0,1-2.174,5.138,5.5,5.5,0,0,1-8.405.041,9.348,9.348,0,0,1,.417-12.651,6.942,6.942,0,0,1,3.013-1.527Z" transform="translate(-977.304 -121.76)" fill="#006cbb" opacity="0.74"/>
    <path id="Path_1751" data-name="Path 1751" d="M935.3,160.619a27.637,27.637,0,0,1,.745-2.727,6.806,6.806,0,0,1,3.227-3.734,5.427,5.427,0,0,1,6.6,1.249,9.426,9.426,0,0,1,.25,12.078,5.552,5.552,0,0,1-9-.3,8.8,8.8,0,0,1-1.719-4.221,3.886,3.886,0,0,0-.1-.414Z" transform="translate(-935.3 -140.525)" fill="#006cbb" opacity="0.74"/>
    <path id="Path_1752" data-name="Path 1752" d="M972.3,177.189a16.42,16.42,0,0,1,8.946,2.391,11.107,11.107,0,0,1,4.864,6.461,7.042,7.042,0,0,0,2.739,4.025,23.312,23.312,0,0,1,2.44,2.1,6.2,6.2,0,0,1,1.9,5.372A12.533,12.533,0,0,1,985,208.548a12.033,12.033,0,0,1-9.22.025,8.264,8.264,0,0,0-5.6-.5c-.974.295-1.916.7-2.895.966a12.866,12.866,0,0,1-15.755-10.117c-.389-2.236-.319-4.377,1.22-6.2a23.1,23.1,0,0,1,2.174-2.068,13.856,13.856,0,0,1,1.1-.86,5.8,5.8,0,0,0,2.244-3.239c1.322-4.77,4.573-7.562,9.249-8.762,1.548-.4,3.169-.5,4.758-.741A.571.571,0,0,1,972.3,177.189Z" transform="translate(-944.769 -154.413)" fill="#006cbb" opacity="0.74"/>
    <path id="Path_1753" data-name="Path 1753" d="M1051.087,161.7a8.719,8.719,0,0,1-2.534,6.252,5.436,5.436,0,0,1-8.029-.176,9.42,9.42,0,0,1-.254-12.111,5.553,5.553,0,0,1,9,.323A9.36,9.36,0,0,1,1051.087,161.7Z" transform="translate(-996.063 -140.519)" fill="#006cbb" opacity="0.74"/>
  </g>
</svg>
