<svg id="Group_4293" data-name="Group 4293" xmlns="http://www.w3.org/2000/svg" width="50.163" height="88.113" viewBox="0 0 50.163 88.113">
  <path id="Icon_awesome-building" data-name="Icon awesome-building" d="M48.654,53.564H46.422V2.678A2.678,2.678,0,0,0,43.744,0H6.249A2.678,2.678,0,0,0,3.571,2.678V53.564H1.339A1.339,1.339,0,0,0,0,54.9v2.232H49.993V54.9A1.339,1.339,0,0,0,48.654,53.564ZM14.284,8.481a1.339,1.339,0,0,1,1.339-1.339h4.464a1.339,1.339,0,0,1,1.339,1.339v4.464a1.339,1.339,0,0,1-1.339,1.339H15.623a1.339,1.339,0,0,1-1.339-1.339Zm0,10.713a1.339,1.339,0,0,1,1.339-1.339h4.464a1.339,1.339,0,0,1,1.339,1.339v4.464A1.339,1.339,0,0,1,20.087,25H15.623a1.339,1.339,0,0,1-1.339-1.339Zm5.8,16.516H15.623a1.339,1.339,0,0,1-1.339-1.339V29.907a1.339,1.339,0,0,1,1.339-1.339h4.464a1.339,1.339,0,0,1,1.339,1.339V34.37A1.339,1.339,0,0,1,20.087,35.709Zm8.481,17.855H21.426V44.19a1.339,1.339,0,0,1,1.339-1.339h4.464a1.339,1.339,0,0,1,1.339,1.339ZM35.709,34.37a1.339,1.339,0,0,1-1.339,1.339H29.907a1.339,1.339,0,0,1-1.339-1.339V29.907a1.339,1.339,0,0,1,1.339-1.339H34.37a1.339,1.339,0,0,1,1.339,1.339Zm0-10.713A1.339,1.339,0,0,1,34.37,25H29.907a1.339,1.339,0,0,1-1.339-1.339V19.194a1.339,1.339,0,0,1,1.339-1.339H34.37a1.339,1.339,0,0,1,1.339,1.339Zm0-10.713a1.339,1.339,0,0,1-1.339,1.339H29.907a1.339,1.339,0,0,1-1.339-1.339V8.481a1.339,1.339,0,0,1,1.339-1.339H34.37a1.339,1.339,0,0,1,1.339,1.339Z" transform="translate(0.17 0)" fill="#fff"/>
  <g id="Group_3544" data-name="Group 3544" transform="translate(0 65.298)">
    <path id="Icon_open-arrow-thick-right" data-name="Icon open-arrow-thick-right" d="M17.679,0V4.473H0V8.947H17.679V13.42L28.287,6.643Z" transform="translate(19.364)" fill="#fff"/>
    <path id="Icon_open-arrow-thick-right-2" data-name="Icon open-arrow-thick-right" d="M10.607,0V4.474H28.286V8.947H10.607v4.474L0,6.643Z" transform="translate(0 9.394)" fill="#fff"/>
  </g>
</svg>
