<svg xmlns="http://www.w3.org/2000/svg" width="58" height="58" viewBox="0 0 58 58">
  <g id="Group_4845" data-name="Group 4845" transform="translate(-20.5 -718.5)">
    <circle id="Ellipse_171" data-name="Ellipse 171" cx="29" cy="29" r="29" transform="translate(20.5 718.5)" fill="#cfcfcf" opacity="0.33"/>
    <path id="Icon_awesome-graduation-cap" data-name="Icon awesome-graduation-cap" d="M33.986,8.674,18.753,4.664a5.061,5.061,0,0,0-2.555,0L.964,8.674a1.072,1.072,0,0,0,0,2.133l2.656.7A3.4,3.4,0,0,0,2.644,13.7a1.465,1.465,0,0,0-.9,1.281,1.43,1.43,0,0,0,.757,1.2L1.11,21.559a.787.787,0,0,0,.852.911H5.027a.787.787,0,0,0,.853-.911L4.486,16.183a1.43,1.43,0,0,0,.757-1.2,1.455,1.455,0,0,0-.855-1.257,2.16,2.16,0,0,1,1.13-1.718L16.2,14.819a5.066,5.066,0,0,0,2.555,0l15.233-4.01A1.072,1.072,0,0,0,33.986,8.674ZM19.266,16.25a7.091,7.091,0,0,1-3.582,0L7.764,14.165l-.774,5.31c0,1.654,4.694,2.995,10.485,2.995S27.96,21.129,27.96,19.475l-.774-5.31-7.92,2.085Z" transform="translate(32.203 732.953)" fill="none" stroke="#000" stroke-width="0.7"/>
  </g>
</svg>
