<svg xmlns="http://www.w3.org/2000/svg" width="29.091" height="23.293" viewBox="0 0 29.091 23.293">
  <g id="Icon_awesome-address-card" data-name="Icon awesome-address-card" transform="translate(1.5 -0.75)" fill="none">
    <path d="M23.917,2.25H2.174A2.175,2.175,0,0,0,0,4.424V20.369a2.175,2.175,0,0,0,2.174,2.174H23.917a2.175,2.175,0,0,0,2.174-2.174V4.424A2.175,2.175,0,0,0,23.917,2.25ZM7.972,6.6a2.9,2.9,0,1,1-2.9,2.9A2.9,2.9,0,0,1,7.972,6.6Zm5.073,10.726a.95.95,0,0,1-1.015.87H3.914a.95.95,0,0,1-1.015-.87v-.87a2.853,2.853,0,0,1,3.044-2.609h.226a4.666,4.666,0,0,0,3.606,0H10a2.853,2.853,0,0,1,3.044,2.609Zm10.146-2.392a.363.363,0,0,1-.362.362H16.307a.363.363,0,0,1-.362-.362v-.725a.363.363,0,0,1,.362-.362H22.83a.363.363,0,0,1,.362.362Zm0-2.9a.363.363,0,0,1-.362.362H16.307a.363.363,0,0,1-.362-.362v-.725a.363.363,0,0,1,.362-.362H22.83a.363.363,0,0,1,.362.362Zm0-2.9a.363.363,0,0,1-.362.362H16.307a.363.363,0,0,1-.362-.362V8.41a.363.363,0,0,1,.362-.362H22.83a.363.363,0,0,1,.362.362Z" stroke="none"/>
    <path d="M 2.174249649047852 2.250003814697266 C 0.9738788604736328 2.250003814697266 0 3.223882675170898 0 4.424243927001953 L 0 20.36872291564941 C 0 21.56908416748047 0.9738788604736328 22.5429630279541 2.174249649047852 22.5429630279541 L 23.91670989990234 22.5429630279541 C 25.11708068847656 22.5429630279541 26.0909595489502 21.56908416748047 26.0909595489502 20.36872291564941 L 26.0909595489502 4.424243927001953 C 26.0909595489502 3.223882675170898 25.11708068847656 2.250003814697266 23.91670989990234 2.250003814697266 L 2.174249649047852 2.250003814697266 M 7.972240447998047 12.39648342132568 C 6.373260498046875 12.39648342132568 5.073240280151367 11.09646320343018 5.073240280151367 9.497483253479004 C 5.073240280151367 7.898513793945312 6.373260498046875 6.598493576049805 7.972240447998047 6.598493576049805 C 9.571208953857422 6.598493576049805 10.87123012542725 7.898513793945312 10.87123012542725 9.497483253479004 C 10.87123012542725 11.09646320343018 9.571208953857422 12.39648342132568 7.972240447998047 12.39648342132568 M 22.82958984375 9.497483253479004 L 16.30685043334961 9.497483253479004 C 16.10754013061523 9.497483253479004 15.94447994232178 9.334423065185547 15.94447994232178 9.135113716125488 L 15.94447994232178 8.410364151000977 C 15.94447994232178 8.211053848266602 16.10754013061523 8.047992706298828 16.30685043334961 8.047992706298828 L 22.82958984375 8.047992706298828 C 23.02890014648438 8.047992706298828 23.19195938110352 8.211053848266602 23.19195938110352 8.410364151000977 L 23.19195938110352 9.135113716125488 C 23.19195938110352 9.334423065185547 23.02890014648438 9.497483253479004 22.82958984375 9.497483253479004 M 22.82958984375 12.39648342132568 L 16.30685043334961 12.39648342132568 C 16.10754013061523 12.39648342132568 15.94447994232178 12.23341369628906 15.94447994232178 12.03411388397217 L 15.94447994232178 11.30936336517334 C 15.94447994232178 11.11005306243896 16.10754013061523 10.94698333740234 16.30685043334961 10.94698333740234 L 22.82958984375 10.94698333740234 C 23.02890014648438 10.94698333740234 23.19195938110352 11.11005306243896 23.19195938110352 11.30936336517334 L 23.19195938110352 12.03411388397217 C 23.19195938110352 12.23341369628906 23.02890014648438 12.39648342132568 22.82958984375 12.39648342132568 M 7.972240447998047 14.20835304260254 C 8.610919952392578 14.20835304260254 9.222429275512695 14.07699298858643 9.775049209594727 13.84598350524902 L 10.00152969360352 13.84598350524902 C 11.68204975128174 13.84598350524902 13.0454797744751 15.01464366912842 13.0454797744751 16.45507431030273 L 13.0454797744751 17.32477378845215 C 13.0454797744751 17.80492401123047 12.59251022338867 18.19447326660156 12.03082942962646 18.19447326660156 L 3.913639068603516 18.19447326660156 C 3.351959228515625 18.19447326660156 2.89900016784668 17.80492401123047 2.89900016784668 17.32477378845215 L 2.89900016784668 16.45507431030273 C 2.89900016784668 15.01464366912842 4.262430191040039 13.84598350524902 5.942939758300781 13.84598350524902 L 6.16942024230957 13.84598350524902 C 6.726579666137695 14.07699298858643 7.333549499511719 14.20835304260254 7.972240447998047 14.20835304260254 M 22.82958984375 15.29548358917236 L 16.30685043334961 15.29548358917236 C 16.10754013061523 15.29548358917236 15.94447994232178 15.13241386413574 15.94447994232178 14.93310356140137 L 15.94447994232178 14.20835304260254 C 15.94447994232178 14.00905323028564 16.10754013061523 13.84598350524902 16.30685043334961 13.84598350524902 L 22.82958984375 13.84598350524902 C 23.02890014648438 13.84598350524902 23.19195938110352 14.00905323028564 23.19195938110352 14.20835304260254 L 23.19195938110352 14.93310356140137 C 23.19195938110352 15.13241386413574 23.02890014648438 15.29548358917236 22.82958984375 15.29548358917236 M 2.174249649047852 0.7500038146972656 L 23.91670989990234 0.7500038146972656 C 25.94269943237305 0.7500038146972656 27.5909595489502 2.398263931274414 27.5909595489502 4.424243927001953 L 27.5909595489502 20.36872291564941 C 27.5909595489502 22.39470291137695 25.94269943237305 24.0429630279541 23.91670989990234 24.0429630279541 L 2.174249649047852 24.0429630279541 C 0.1482601165771484 24.0429630279541 -1.5 22.39470291137695 -1.5 20.36872291564941 L -1.5 4.424243927001953 C -1.5 2.398263931274414 0.1482601165771484 0.7500038146972656 2.174249649047852 0.7500038146972656 Z M 7.972240447998047 10.89648342132568 C 8.743650436401367 10.89648342132568 9.37122917175293 10.26889324188232 9.37122917175293 9.497483253479004 C 9.37122917175293 8.72607421875 8.743650436401367 8.098493576049805 7.972240447998047 8.098493576049805 C 7.200830459594727 8.098493576049805 6.573240280151367 8.72607421875 6.573240280151367 9.497483253479004 C 6.573240280151367 10.26889324188232 7.200830459594727 10.89648342132568 7.972240447998047 10.89648342132568 Z M 7.972240447998047 15.70835304260254 C 7.263181686401367 15.70835304260254 6.565164566040039 15.58677005767822 5.892965316772461 15.34658813476562 C 5.078073501586914 15.36629486083984 4.39900016784668 15.86588191986084 4.39900016784668 16.45507431030273 L 4.39900016784668 16.69447326660156 L 11.5454797744751 16.69447326660156 L 11.5454797744751 16.45507431030273 C 11.5454797744751 15.86624908447266 10.86724758148193 15.36691761016846 10.05302429199219 15.34662532806396 C 9.383890151977539 15.58680534362793 8.685461044311523 15.70835304260254 7.972240447998047 15.70835304260254 Z" stroke="none" fill="#000"/>
  </g>
</svg>
