<svg id="Buy_Now_Icon" data-name="Buy Now Icon" xmlns="http://www.w3.org/2000/svg" width="24.798" height="24.798" viewBox="0 0 24.798 24.798">
  <g id="Core">
    <g id="shopping-cart">
      <path id="Shape" d="M7.439,19.838a2.48,2.48,0,1,0,2.48,2.48,2.487,2.487,0,0,0-2.48-2.48ZM0,0V2.48H2.48L6.943,11.9,5.207,14.879a4.405,4.405,0,0,0-.248,1.24,2.487,2.487,0,0,0,2.48,2.48H22.318v-2.48H7.935a.267.267,0,0,1-.248-.248v-.124L8.8,13.639h9.175a2.261,2.261,0,0,0,2.108-1.24L24.55,4.34a.683.683,0,0,0,.248-.62,1.171,1.171,0,0,0-1.24-1.24H5.207L4.092,0ZM19.838,19.838a2.48,2.48,0,1,0,2.48,2.48,2.487,2.487,0,0,0-2.48-2.48Z" fill="#201f1f"/>
    </g>
  </g>
</svg>
