<svg xmlns="http://www.w3.org/2000/svg" width="59.791" height="46.504" viewBox="0 0 59.791 46.504">
  <path id="Icon_awesome-credit-card" data-name="Icon awesome-credit-card" d="M0,43.772a4.984,4.984,0,0,0,4.983,4.983H54.808a4.984,4.984,0,0,0,4.983-4.983V25.5H0Zm19.93-7.059a1.249,1.249,0,0,1,1.246-1.246H35.293a1.249,1.249,0,0,1,1.246,1.246v4.152a1.249,1.249,0,0,1-1.246,1.246H21.176a1.249,1.249,0,0,1-1.246-1.246Zm-13.287,0a1.249,1.249,0,0,1,1.246-1.246h7.474a1.249,1.249,0,0,1,1.246,1.246v4.152a1.249,1.249,0,0,1-1.246,1.246H7.889a1.249,1.249,0,0,1-1.246-1.246ZM59.791,7.233v4.983H0V7.233A4.984,4.984,0,0,1,4.983,2.25H54.808A4.984,4.984,0,0,1,59.791,7.233Z" transform="translate(0 -2.25)" fill="#006cbb"/>
</svg>
