<svg xmlns="http://www.w3.org/2000/svg" width="31.141" height="58.348" viewBox="0 0 31.141 58.348">
  <path id="Path_2066" data-name="Path 2066" d="M33.721,5.926a12.451,12.451,0,0,1-1.6,6.1,13.2,13.2,0,0,1-4.7,4.835,15.64,15.64,0,0,1-7.435,2.2v5.4h-3.6v-5.4a16.626,16.626,0,0,1-9.869-3.9A11.147,11.147,0,0,1,2.647,6.593H9.115a8.342,8.342,0,0,0,2.1,4.868,8.417,8.417,0,0,0,5.168,2.6V-2.61a47.448,47.448,0,0,1-7.2-2.334A11.781,11.781,0,0,1,4.514-8.678a10.937,10.937,0,0,1-1.934-6.8,11.726,11.726,0,0,1,3.768-8.936,15.6,15.6,0,0,1,10.036-3.934v-5.535h3.6v5.535a14.922,14.922,0,0,1,9.136,3.634,12.508,12.508,0,0,1,4,8.235H26.653a7.841,7.841,0,0,0-2.067-4.234,8.344,8.344,0,0,0-4.6-2.5V-6.944a52.878,52.878,0,0,1,7.168,2.3,11.221,11.221,0,0,1,4.668,3.7A11.2,11.2,0,0,1,33.721,5.926ZM8.782-15.813a6.369,6.369,0,0,0,1.934,5,14.97,14.97,0,0,0,5.668,2.867v-15.4a9.225,9.225,0,0,0-5.535,2.234A6.841,6.841,0,0,0,8.782-15.813Zm11.2,29.941a8.667,8.667,0,0,0,5.635-2.6,7.492,7.492,0,0,0,2.034-5.268,6.363,6.363,0,0,0-2-5.035,14.685,14.685,0,0,0-5.668-2.834Z" transform="translate(-2.58 33.884)" fill="#fff"/>
</svg>
