<svg xmlns="http://www.w3.org/2000/svg" width="21.144" height="18.791" viewBox="0 0 21.144 18.791">
  <path id="Icon_awesome-edit" data-name="Icon awesome-edit" d="M14.779,3.057,18.09,6.368a.359.359,0,0,1,0,.507l-8.017,8.017-3.406.378a.714.714,0,0,1-.789-.789l.378-3.406,8.017-8.017A.359.359,0,0,1,14.779,3.057Zm5.947-.841L18.934.425a1.436,1.436,0,0,0-2.026,0l-1.3,1.3a.359.359,0,0,0,0,.507l3.311,3.311a.359.359,0,0,0,.507,0l1.3-1.3a1.436,1.436,0,0,0,0-2.026ZM14.1,12.712v3.737H2.349V4.7h8.435a.451.451,0,0,0,.312-.128l1.468-1.468a.44.44,0,0,0-.312-.753H1.762A1.762,1.762,0,0,0,0,4.115V17.036A1.762,1.762,0,0,0,1.762,18.8H14.683a1.762,1.762,0,0,0,1.762-1.762V11.243a.441.441,0,0,0-.753-.312L14.224,12.4A.451.451,0,0,0,14.1,12.712Z" transform="translate(0 -0.007)" fill="#1075bf" opacity="0.94"/>
</svg>
