<svg xmlns="http://www.w3.org/2000/svg" width="24.042" height="24.042" viewBox="0 0 24.042 24.042">
  <path id="Icon_metro-earth2" data-name="Icon metro-earth2" d="M14.592,25.97A12.021,12.021,0,1,1,26.613,13.949,12.022,12.022,0,0,1,14.592,25.97Zm9.743-13.029a.075.075,0,0,0,.038-.053.366.366,0,0,0,.116.211c0,.008,0,.006,0,.017s.011,0,.016,0a.363.363,0,0,0,.229.086.37.37,0,0,0,.314-.181.179.179,0,0,1,.016.018c0-.012,0-.024,0-.036a.365.365,0,0,0,.05-.177.376.376,0,0,0-.376-.376.371.371,0,0,0-.31.174s0-.011-.008-.008a.34.34,0,0,0-.058-.18v.389A.393.393,0,0,1,24.335,12.942ZM7.073,12.829c0-.113-.258-.307-.325-.307,0-.02-.105-.252-.145-.252,0-.078-.274-.429-.318-.276-.029.1.21.233.21.348.044,0,.231.353.267.415.407.688-.3.218-.3-.074a.958.958,0,0,1-.234-.486,1.553,1.553,0,0,1-.2-.377c0-.219-.121-.325-.361-.325-.011-.022-.213-.306-.217-.306a.8.8,0,0,0-.252-.414,2.913,2.913,0,0,1-.053-.612,2.072,2.072,0,0,0-.08-.643,10.485,10.485,0,0,0,5.922,14.3c0-.373.032-.819.117-.819,0-.056.047-.289.09-.289a4.553,4.553,0,0,0,0-.486c-.053-.107.071-.245.108-.414.208-.1.061-1.152.218-1.152a7.137,7.137,0,0,0,.035-1.314c.04,0-.237-.294-.234-.289-.265,0-.451-.425-.451-.612a1.134,1.134,0,0,1-.091-.306c.061,0-.379-.643-.379-.63-.233-.129.013-.31.036-.521-.2-.067,0-.612.09-.612a.17.17,0,0,1,.109-.144c.045.18.255-.089.09-.089,0-.119-.014-.373,0-.432,0-.183-.162-.542-.289-.162-.135-.067-.476-.055-.506-.27.021-.106-.195-.322-.27-.36.071-.185-.366-.432-.524-.432,0-.04-.083-.022-.108-.072-.161,0-.2-.216-.379-.216-.21,0-.421-.144-.614-.144-.065-.128-.364-.078-.434-.216-.157,0-.219-.3-.223-.407-.007-.135-.114-.6-.3-.6ZM22.292,6.8a.038.038,0,0,1-.006.017c.011,0,.025.013.038.018C22.312,6.823,22.3,6.812,22.292,6.8Zm.226.249a.243.243,0,0,1,.04.128c.026,0,.039-.014.06-.019C22.585,7.12,22.55,7.086,22.518,7.048Zm.653,3.423c.012-.325-.27-.27-.36-.451-.093,0-.127-.072-.253-.072a.155.155,0,0,0-.194.059c-.193.074-.077-.094-.222-.094.007-.186-.067-.237-.271-.216-.117.264-.3.423-.27.721.086.02.071.039.054.125.115.006.812-.036.812-.108.024,0,.145.249.145.036.1,0,.148.228.379.162,0,.047.386-.161.18-.161Zm.037,3.834c.014-.066-.033-.1-.072-.162.1,0-.325-.794-.325-.918-.065-.032-.149-.259-.164-.342a.863.863,0,0,1-.216-.36,1.305,1.305,0,0,1-.343-.45c.129.014.325.041.325-.126-.087,0-.1-.107-.017-.107-.027-.11.059-.19.077-.276a2.037,2.037,0,0,0,.067-.39.6.6,0,0,0-.252.054c0,.073-.22-.018-.252-.018-.047-.095-.391.123-.487-.072-.156-.14-.113-.249-.164-.447-.026-.1-.163-.107-.246-.123-.235-.046-.065.28-.078.355.144,0-.091.179-.091.27-.243-.053-.162-.324-.306-.4-.043-.072-.009-.126-.109-.126,0-.1.051-.27-.054-.306,0-.047-.2-.065-.234-.126-.129,0-.43-.488-.522-.324-.058.105.049.131.071.216.187-.037.169.308.4.27a.626.626,0,0,0,.017.144c.169-.04.15.125.234.125-.062.082-.257-.131-.2.048.031.1.014.192-.121.294,0-.112-.009-.414-.126-.414-.08-.159-.316-.121-.416-.27-.081,0-.113-.252-.252-.27a.282.282,0,0,1-.163.072c-.076.153-.5.016-.5.036-.007,0-.24.573-.254.648-.026.162-.156.165-.2.318-.02.077-.491.041-.491.1a.48.48,0,0,1-.379-.432,3.389,3.389,0,0,1,.073-.648c.041.011.05.026.073.072.125-.047.415.031.415-.108q.181,0,.108.144c.113.021.307.05.307-.108-.066,0-.073-.006-.073-.072.216-.225-.162-.428-.162-.539-.077-.026-.233-.192-.122-.129.094.052.437.159.3-.069a.025.025,0,0,0,.017-.017c.038.027.2.193.2.036.044,0,.216-.108.072-.108.014-.081.011-.149.017-.2.229.123.1-.084.217-.162,0,.15.123-.072.2-.072.089-.133.294-.03.343-.18-.11-.036-.09-.313-.09-.413.133.022.281-.18.3-.041.008.053.014.2.041.221.2.1.145-.059.145-.162-.066,0-.154-.231-.163-.343-.054.008-.141.03-.163.071-.2,0-.331-.071-.487-.071a2.792,2.792,0,0,1-.18-.234c-.11-.189.11-.134.144-.143,0-.179.745-.147.777-.433-.245,0,.252-.415.252-.413.166-.142.254-.264.461-.28.087-.006,1.056-.273,1.056-.153.039,0,.168,0,.3.008A10.472,10.472,0,0,0,7.622,6.087a.266.266,0,0,1,.029.1c.1-.007.24-.07.271.055a.617.617,0,0,1-.144-.019c.035.279-.122.108-.252.108a.363.363,0,0,0-.119-.047c-.04.038-.082.073-.122.11,0,.012,0,.013.005.026.042,0,.02.065.14.105a2.677,2.677,0,0,0,.438.1A1.394,1.394,0,0,0,8.156,6.6c0-.015.248-.125.073-.125.024-.1-.02-.124-.127-.125.009-.105.259-.036.361-.036.078-.131,0-.116.071-.235.083-.147.181-.02.235-.16a.252.252,0,0,1,.181.178c.065.054.4.544.4.2.119.04.178.262.18.379.216-.032.234-.193.234-.361.05,0-.018-.08-.018-.108.08-.029.181.077.181-.035.035,0,.036.035.036.072.112.022.184-.013.252.011.047.017.023.262,0,.349-.027.11-.237.111-.237.162-.237.177.28.27.361.378a1,1,0,0,1-.234-.035c-.117,0-.4.124-.506.035.146,0,.195-.175.217-.342a.258.258,0,0,0-.331.166c-.063.221-.21-.009-.283.14-.029.009-.289.13-.289.089-.293.041-.216.29-.216.558.116.07.353.269.343.378.263.047.359.074.6.108a.287.287,0,0,0,.145.089c0,.155.14.127.27.127,0-.2.23.165.252.234-.032,0,.054.2.072.27-.036-.013-.047,0-.036.036.114.042.3.03.325-.09-.11,0-.073-.125-.073-.2a.135.135,0,0,1,.018-.252c0,.1.372-.064.162-.144a.4.4,0,0,0,0-.391c-.053-.063-.12,0-.147-.095.142-.035.038-.306.036-.432.045-.017.162.029.162,0,.139,0,.37.176.452-.037.232.106.047.207.289.126a1.043,1.043,0,0,0,.307.324c0,.013-.007.09.053.09,0,.058-.036-.033-.036.071.034,0,.217.037.217-.035.116,0,.2-.143.2-.252.073-.047.2.4.289.4.065.1.271.247.271.342.044.044.089.032.089.162.055,0,.163-.216.163-.018a.342.342,0,0,1,.217.2c-.13,0-.007.126-.074.126,0,.125-.279.026-.342.018-.086.387-.608.109-.923.209a1.076,1.076,0,0,0-.5.6c.2,0,.29-.174.47-.234.147,0,.175-.089.307-.125,0,.037.036.017.036.054-.257,0-.1.166-.026.287a.31.31,0,0,0,.159.134.715.715,0,0,0-.061.136h0c-.049.017-.144.052-.163.09-.291.032-.147.013-.128-.057.011.025.115,0,.11,0-.017-.087-.044-.075-.018-.125-.158,0-.234.072-.361.072-.021.043-.131.144-.18.144a.855.855,0,0,1-.217.378c0-.029-.257.162-.234.162-.057.092-.119.089-.145.234a1.212,1.212,0,0,0-.09.288c-.112.074-.153.378-.343.378-.116.231-.325.2-.325.5a1.586,1.586,0,0,1,.119.494c.027.127.069.259-.1.262-.012-.019-.131-.2-.109-.2a1.145,1.145,0,0,0-.144-.387c-.071-.1-.2.016-.307-.028-.044-.089-.344-.108-.451-.108.017.067.066.088.072.162a.41.41,0,0,1-.231.064c-.157-.022-.138-.144-.311-.127a.522.522,0,0,0-.47.531,1.59,1.59,0,0,0,0,.54c0,.153.126.263.126.378.122,0,.26.27.379.27.014.1-.06.11.144.109,0-.011.111-.07.126-.144-.141-.035,0-.216.09-.252,0,.128.18-.043.18-.054l.2-.072c0-.146.136.014.036.072-.1,0-.09.162-.144.162-.023.116-.069.216-.1.329-.035.139.078.153.042.283a2.259,2.259,0,0,0,.434,0,.128.128,0,0,0-.018-.072c.21,0,.018.4.145.4,0,.15.072.266.072.36a.239.239,0,0,1,.126.27c.12.016.379.047.379-.108.183,0,.2.124.182.252.364,0,.136-.36.288-.36.014-.059.039-.07.074-.031.074.04.131-.074.19-.11a.489.489,0,0,1,.1-.051c.051.031.056.022.078.056a.541.541,0,0,0,.284-.115c.13.016.088.3.331.313a.865.865,0,0,0,.408-.024c.021-.014.1.049.107.076.081,0,.075.071.11.069a.029.029,0,0,0,.037.017c.011.031.075.04.109.125,0,.078.162.092.162.144.116.059-.04.074.139.128a1.3,1.3,0,0,0,.3.088c.034-.128.144.017.2.017.029.059.044.014.071.072.168.14.057.086.126.234.08.053.106.236.128.342-.065,0-.019.247-.019.27-.078,0,.2.148.2-.037.114.019.189.144.27.144-.047.109.126.191.126.019.171.017.125.273.109.36.127,0,.164-.071.272-.084a.735.735,0,0,1,.4-.128.751.751,0,0,1,.751.751.742.742,0,0,1-.637.728,1.316,1.316,0,0,1-.095.1c0,.036-.008.4-.019.4,0,.072-.055.468-.108.468,0,.2-.133.24-.18.432-.11.081-.406.216-.452.306-.085,0-.148.072-.234.072-.012.025-.2.2-.163.2-.014.128.01.428-.059.512-.047.056-.113.05-.084.137-.1,0,.006.072-.154.072a.357.357,0,0,0-.286.265.4.4,0,0,1-.174.347c0,.051-.234.066-.234.2.022,0,0,.245,0,.27a.427.427,0,0,0-.27.125c-.236,0-.207.024-.361.126,0,.032-.022.144-.054.144,0,.183-.13.017-.235.109.041,0,.094.18.072.18,0,.159-.1.172-.2.289-.047.032-.092.162-.126.162,0,.107-.053.2-.053.306.023,0,0,.046.017.089.05-.014.052-.071.072-.071,0-.09.144.053.054.053-.074.113-.155.115-.2.27-.045,0-.084.044-.117.095a10.457,10.457,0,0,0,11.6-4.421,2.883,2.883,0,0,1,.082-.608c.074.054.128.156.18,0-.13-.026-.1-.071-.054-.18a.456.456,0,0,0,.231.062c.025-.047.044-.1.069-.143-.074-.057.028-.205.063-.133.019-.036.035-.074.053-.11-.008,0-.006,0-.018,0,0-.065.012-.057.055-.09a.066.066,0,0,0,0,.013,10.463,10.463,0,0,0,1.035-4.526c0-.053-.008-.1-.008-.158-.02.074-.056.153-.108.171,0,.047-.537.281-.5.378-.095,0-.427.095-.488.216a.838.838,0,0,0-.361.144c-.335,0-.271-.4-.433-.4Zm1.527-4.113h-.4s-.006,0-.009-.01c-.02,0-.105-.191-.072-.234a.534.534,0,0,1,.065,0c-.034-.083-.071-.164-.107-.246a.519.519,0,0,1-.264.133c0,.031-.16.342,0,.342a.055.055,0,0,0,0,.016.374.374,0,0,0,.032.746h.148c.009.068.046.128.177.157.041.174.351.235.4.053-.131,0-.088-.125-.077-.21h.105a.376.376,0,1,0,0-.751ZM23.64,15.078c.026,0,.2,0,.2-.034a1.836,1.836,0,0,0,.524-.073c0,.233-.2.363-.163.594-.13,0-.073.134-.073.18-.084.052-.1.147-.2.2,0,.1-.234.277-.3.367s-.313.273-.344.4c.008-.03-.43.456-.328.456,0,.091-.123.81.036.81,0,.063.136.666.053.666,0,.194-.126.313-.126.467-.062.042-.15.065-.18.127-.11,0-.164.234-.216.234,0,.25-.073.436-.073.72.02,0-.144.4-.144.431-.133.089-.47.41-.47.577,0,0-.234.329-.27.378a2.326,2.326,0,0,0-.615.144c-.116,0-.415.091-.487-.018,0-.114-.062-.259-.072-.415-.056,0-.065-.234-.126-.234a6.207,6.207,0,0,1-.289-.739,1.21,1.21,0,0,0-.072-.306c0-.248-.181-.455-.181-.684-.053,0-.164-.5-.108-.5a5.645,5.645,0,0,1,.131-.731,1.739,1.739,0,0,0-.077-.746c-.031,0-.134-.172-.145-.216a.547.547,0,0,1-.2-.467,1.218,1.218,0,0,0,.109-.648.807.807,0,0,0-.452-.054c-.116-.234-.9-.089-1.12-.089,0,.128-.545-.025-.6-.126-.133,0-.4-.282-.4-.414a1.482,1.482,0,0,1-.379-.738c-.126-.063-.088-.307-.019-.307A1.284,1.284,0,0,0,16.4,13.9c-.022-.076.074-.158.074-.248a1.086,1.086,0,0,1,.147-.635,2.454,2.454,0,0,0,.142-.268c.075-.189.1-.009.2-.177.1-.048.153-.209.253-.288.044-.058.045-.082,0-.126a1.084,1.084,0,0,0,.126-.341c.141-.2.041-.107.18-.09.051-.056.136-.2.216-.2a.228.228,0,0,1,.2-.108c0,.108.295-.035.325-.035a.831.831,0,0,1,.452-.216c0-.123.64.035.741.018v-.054c.137.032.386.581.361.7a1.408,1.408,0,0,1,.271,0c0,.116.219.145.319.15.139.007.547-.014.547-.2a.169.169,0,0,1,.182.2c.122.014.845.028.794.18.106,0,.133.181.234.181-.02.125.126.45.234.45a.567.567,0,0,0,.163.377,1.318,1.318,0,0,0,.379.576c-.068.128.1.233.145.36-.01,0,.037.189.089.216,0,.128.269.648.416.648.01.063-.138.092.054.106Zm-3.9-4.031c.028-.107.091-.024.15,0,.139.045.091,0,.194-.049C20.083,11.287,19.915,11.064,19.74,11.047Zm-.38-.54c.074,0,.094.331-.108.27,0-.082-.052-.234.055-.234C19.337,10.67,19.36,10.619,19.36,10.507Zm-.089-.216c.083.036.12.024.108-.036.11.036-.014.114-.036.2C19.286,10.4,19.3,10.378,19.27,10.291Zm-1.933-1.6c-.177-.046.183-.1.2-.144a.084.084,0,0,1-.078-.115c.027-.062.071.074.133.044.073-.008.216-.116.143.094s-.144.37-.414.373c-.1-.1,0-.149.018-.252Zm.669-.738c.146,0,.018.108-.014.108.025.01,0,.1,0,.125.135,0,.137-.084.234-.108-.02.121-.156.144-.023.248.07.055.141.119.113.2.172,0,.2.165.162.36.1,0,.091,0,.091-.091.092.026.086.109,0,.109-.086.169-.31.162-.47.162,0-.131-.026-.139-.147-.1-.165.05-.036-.131-.033-.222.018,0,.375.017.162-.054-.011-.194-.055-.252-.234-.252,0-.132-.047-.122-.068-.267-.031-.214.168.015.231-.219Zm-.055,1.17c0,.044-.09.08-.108.017.017.006.024,0,.017-.017ZM16.47,7.187h-.751a.376.376,0,0,1,0-.751h.751a.376.376,0,1,1,0,.751Zm-4.377,6.649c.042,0,.091.017.091.054C12.129,13.891,12.058,13.942,12.093,13.837Zm-.685.037c-.03.057-.273.047-.307-.019.09,0,.16.037.252,0,0-.05-.041-.089-.072-.144.1,0,.209.075.343.072,0-.083-.037.018,0-.09a.422.422,0,0,1,.2.2,2.68,2.68,0,0,0-.415-.017Zm-.795-.432a.506.506,0,0,1-.325-.162c.089,0,.178.041.234-.054.229.023.249.181.434.181.035.061.231.2.041.219a.417.417,0,0,1-.384-.183Zm.144.5c-.067,0-.177.029-.126-.109C10.72,13.849,10.762,13.885,10.757,13.945Zm.126-.018-.108.018C10.786,13.862,10.865,13.769,10.883,13.927Zm.668.791c-.014.05-.012.053-.071.053.006-.023.011-.047.017-.071ZM9.926,13.225l.054.018c.023.089.072.045.126.018C10.107,13.365,9.865,13.4,9.926,13.225Z" transform="translate(-2.571 -1.928)" opacity="0.4"/>
</svg>
