<svg xmlns="http://www.w3.org/2000/svg" width="40" height="40" viewBox="0 0 40 40">
  <g id="Group_3553" data-name="Group 3553" transform="translate(0 0.155)">
    <circle id="Ellipse_165" data-name="Ellipse 165" cx="20" cy="20" r="20" transform="translate(0 -0.155)" fill="#d2d2d2"/>
    <path id="Icon_awesome-image" data-name="Icon awesome-image" d="M15.645,17.448H1.618A1.618,1.618,0,0,1,0,15.829V6.118A1.618,1.618,0,0,1,1.618,4.5H15.645a1.618,1.618,0,0,1,1.618,1.618v9.711A1.618,1.618,0,0,1,15.645,17.448ZM3.776,6.388A1.888,1.888,0,1,0,5.665,8.276,1.888,1.888,0,0,0,3.776,6.388Zm-1.618,8.9H15.106V11.513L12.155,8.563a.4.4,0,0,0-.572,0L7.013,13.132,5.142,11.26a.4.4,0,0,0-.572,0L2.158,13.671Z" transform="translate(11.868 9.526)"/>
  </g>
</svg>
