<?xml version="1.0" encoding="utf-8"?>
<!-- Generator: Adobe Illustrator 25.1.0, SVG Export Plug-In . SVG Version: 6.00 Build 0)  -->
<svg version="1.1" id="Layer_1" xmlns="http://www.w3.org/2000/svg" xmlns:xlink="http://www.w3.org/1999/xlink" x="0px" y="0px"
	 viewBox="0 0 21 30" style="enable-background:new 0 0 21 30;" xml:space="preserve">
<style type="text/css">
	.st0{fill:#006CBB;}
</style>
<g id="Group_3219" transform="translate(-410 -386)">
	<path id="Icon_material-location-on" class="st0" d="M420.5,386c-5.8,0-10.5,4.7-10.5,10.5c0,0,0,0,0,0c0,7.9,10.5,19.5,10.5,19.5
		s10.5-11.6,10.5-19.5C431,390.7,426.3,386,420.5,386C420.5,386,420.5,386,420.5,386z M420.5,400.2c-2.1,0-3.8-1.7-3.8-3.8
		s1.7-3.8,3.8-3.8s3.8,1.7,3.8,3.8C424.2,398.6,422.6,400.2,420.5,400.2z"/>
</g>
</svg>
