<svg id="Group_3571" data-name="Group 3571" xmlns="http://www.w3.org/2000/svg" width="45.1" height="33.336" viewBox="0 0 45.1 33.336">
  <path id="Icon_awesome-image" data-name="Icon awesome-image" d="M35.19,33.622H3.64A3.64,3.64,0,0,1,0,29.982V8.14A3.64,3.64,0,0,1,3.64,4.5H35.19a3.64,3.64,0,0,1,3.64,3.64V29.982A3.64,3.64,0,0,1,35.19,33.622Z" transform="translate(0 -4.5)" fill="#45bd63"/>
  <g id="Group_3570" data-name="Group 3570" transform="translate(6.17 4.113)">
    <rect id="Rectangle_1723" data-name="Rectangle 1723" width="34.68" height="24.565" transform="translate(1.88 3.113)" fill="#fff"/>
    <path id="Icon_awesome-image-2" data-name="Icon awesome-image" d="M35.19,33.622H3.64A3.64,3.64,0,0,1,0,29.982V8.14A3.64,3.64,0,0,1,3.64,4.5H35.19a3.64,3.64,0,0,1,3.64,3.64V29.982A3.64,3.64,0,0,1,35.19,33.622ZM8.494,8.747a4.247,4.247,0,1,0,4.247,4.247A4.247,4.247,0,0,0,8.494,8.747ZM4.854,28.769H33.976V20.275l-6.637-6.637a.91.91,0,0,0-1.287,0L15.775,23.915l-4.21-4.21a.91.91,0,0,0-1.287,0L4.854,25.128Z" transform="translate(0 -4.5)" fill="#45bd63" stroke="#18642b" stroke-width="0.2"/>
  </g>
</svg>
