<svg xmlns="http://www.w3.org/2000/svg" width="16.039" height="13.746" viewBox="0 0 16.039 13.746">
  <g id="Icon_ionic-md-contacts" data-name="Icon ionic-md-contacts" transform="translate(-2.25 -4.502)" opacity="0.84">
    <g id="Group_1365" data-name="Group 1365" transform="translate(2.25 6.507)">
      <path id="Path_976" data-name="Path 976" d="M9.668,24.183a4.378,4.378,0,0,1-4.314,0,5.094,5.094,0,0,0-3.1,3.725H12.772A5.093,5.093,0,0,0,9.668,24.183Z" transform="translate(-2.25 -16.167)" fill="#006cbb"/>
      <path id="Path_977" data-name="Path 977" d="M8.928,8.44a3.79,3.79,0,1,0,3.791,3.79A3.79,3.79,0,0,0,8.928,8.44Zm0,6.676a2.929,2.929,0,0,1-2.649-1.809h5.3A2.929,2.929,0,0,1,8.928,15.116Z" transform="translate(-3.667 -8.44)" fill="#006cbb"/>
    </g>
    <g id="Group_1366" data-name="Group 1366" transform="translate(9.832 4.502)">
      <path id="Path_978" data-name="Path 978" d="M20.622,23.684h5.635a4.685,4.685,0,0,0-3.1-3.439,4.381,4.381,0,0,1-3.667.3,5.023,5.023,0,0,1-1,1.25A4.861,4.861,0,0,1,20.622,23.684Z" transform="translate(-17.801 -12.229)" fill="#006cbb"/>
      <path id="Path_979" data-name="Path 979" d="M19.388,9.37h3.6a2.922,2.922,0,0,1-2.649,1.8,2.722,2.722,0,0,1-.908-.161,4.6,4.6,0,0,1-.233.9,3.792,3.792,0,1,0-2.053-5.649A4.684,4.684,0,0,1,19.388,9.37Z" transform="translate(-17.142 -4.502)" fill="#006cbb"/>
    </g>
  </g>
</svg>
