<svg xmlns="http://www.w3.org/2000/svg" width="18.395" height="18.396" viewBox="0 0 18.395 18.396">
  <path id="Icon_awesome-phone-alt" data-name="Icon awesome-phone-alt" d="M16.4,11.928l-3.692-1.582a.791.791,0,0,0-.923.227l-1.635,2A12.22,12.22,0,0,1,4.306,6.729l2-1.635a.789.789,0,0,0,.227-.923L4.948.479A.8.8,0,0,0,4.042.02L.613.812A.791.791,0,0,0,0,1.583a15.3,15.3,0,0,0,15.3,15.3.791.791,0,0,0,.771-.613l.791-3.429a.8.8,0,0,0-.462-.91Z" transform="translate(0.75 0.766)" fill="none" stroke="#000" stroke-width="1.5"/>
</svg>
