<svg xmlns="http://www.w3.org/2000/svg" width="40" height="40" viewBox="0 0 40 40">
  <g id="Group_5027" data-name="Group 5027" transform="translate(2720 -5695)">
    <rect id="Rectangle_2095" data-name="Rectangle 2095" width="40" height="40" transform="translate(-2720 5695)" fill="#fff" opacity="0"/>
    <g id="Group_57769" data-name="Group 57769" transform="translate(-2717.99 5699.483)">
      <path id="Path_account-cog" data-name="Path / account-cog" d="M15.836,4a6.893,6.893,0,1,0,6.918,6.893A6.906,6.906,0,0,0,15.836,4m0,17.234C8.191,21.234,2,24.318,2,28.127v3.447H18.741a11.934,11.934,0,0,1-.069-10.185,25.371,25.371,0,0,0-2.836-.155" transform="translate(-2 -4)" fill="#4472c7"/>
      <path id="Path_account-cog-2" data-name="Path / account-cog" d="M37.484,24.7a.449.449,0,0,0-.45.363l-.329,2.283a8.637,8.637,0,0,0-1.47.813L33.091,27.3c-.19,0-.415,0-.536.225l-1.729,2.992a.428.428,0,0,0,.1.553l1.833,1.418a7.232,7.232,0,0,0,0,1.729L30.93,35.633a.449.449,0,0,0-.1.553l1.729,2.992c.1.225.329.225.536.225l2.145-.865a7.114,7.114,0,0,0,1.47.813l.329,2.283a.436.436,0,0,0,.45.363h3.459a.44.44,0,0,0,.415-.363l.329-2.283a9.183,9.183,0,0,0,1.453-.813l2.127.865c.225,0,.45,0,.571-.225l1.729-2.992a.449.449,0,0,0-.1-.553l-1.851-1.418a7.283,7.283,0,0,0,.069-.865,4.86,4.86,0,0,0-.069-.865l1.833-1.418a.449.449,0,0,0,.1-.553L45.82,27.522c-.1-.225-.329-.225-.553-.225l-2.127.865a7.591,7.591,0,0,0-1.47-.813l-.329-2.283a.409.409,0,0,0-.4-.363H37.484m1.729,6.053A2.594,2.594,0,1,1,36.62,33.35,2.591,2.591,0,0,1,39.214,30.756Z" transform="translate(-11.64 -10.965)" fill="#152026"/>
    </g>
  </g>
</svg>
