<svg xmlns="http://www.w3.org/2000/svg" width="38.547" height="38.817" viewBox="0 0 38.547 38.817">
  <path id="Icon_material-access-alarm" data-name="Icon material-access-alarm" d="M41.547,10.23,32.681,2.79,30.195,5.739l8.866,7.44ZM14.333,5.739,11.866,2.79,3,10.21l2.486,2.949,8.847-7.42Zm8.9,8.885H20.346V26.188L29.5,31.681l1.446-2.371-7.709-4.568Zm-.964-7.709A17.346,17.346,0,1,0,39.62,24.261,17.348,17.348,0,0,0,22.274,6.915Zm0,30.838A13.491,13.491,0,1,1,35.765,24.261,13.482,13.482,0,0,1,22.274,37.752Z" transform="translate(-3 -2.79)" opacity="0.84"/>
</svg>
