<svg xmlns="http://www.w3.org/2000/svg" width="22.59" height="26.882" viewBox="0 0 22.59 26.882">
  <path id="Icon_awesome-apple" data-name="Icon awesome-apple" d="M19.168,16.456a5.6,5.6,0,0,1,3-5.089A6.448,6.448,0,0,0,17.086,8.69c-2.131-.168-4.459,1.242-5.311,1.242-.9,0-2.965-1.182-4.585-1.182C3.84,8.8.281,11.42.281,16.744a14.958,14.958,0,0,0,.864,4.873c.768,2.2,3.541,7.6,6.434,7.514,1.512-.036,2.581-1.074,4.549-1.074,1.909,0,2.9,1.074,4.585,1.074,2.917-.042,5.425-4.951,6.158-7.16A5.949,5.949,0,0,1,19.168,16.456ZM15.771,6.6a5.653,5.653,0,0,0,1.44-4.351,6.364,6.364,0,0,0-4.075,2.095A5.741,5.741,0,0,0,11.6,8.66,5.04,5.04,0,0,0,15.771,6.6Z" transform="translate(-0.281 -2.25)" fill="#414141"/>
</svg>
