<svg id="Group_3230" data-name="Group 3230" xmlns="http://www.w3.org/2000/svg" width="88.382" height="39.233" viewBox="0 0 88.382 39.233">
  <path id="Icon_awesome-apple" data-name="Icon awesome-apple" d="M27.747,22.909a8.148,8.148,0,0,1,4.364-7.4,9.377,9.377,0,0,0-7.392-3.893c-3.1-.244-6.485,1.807-7.724,1.807-1.309,0-4.311-1.719-6.668-1.719C5.457,11.781.281,15.586.281,23.327a21.753,21.753,0,0,0,1.257,7.087c1.117,3.2,5.149,11.058,9.356,10.927,2.2-.052,3.753-1.562,6.616-1.562,2.775,0,4.215,1.562,6.668,1.562,4.242-.061,7.89-7.2,8.955-10.412a8.652,8.652,0,0,1-5.385-8.021ZM22.807,8.578A8.22,8.22,0,0,0,24.9,2.25,9.255,9.255,0,0,0,18.976,5.3a8.349,8.349,0,0,0-2.234,6.275c2.278.175,4.355-.995,6.066-2.994Z" transform="translate(-0.281 -2.11)" fill="#006cbb"/>
  <text id="Pay" transform="translate(40.382 30)" fill="#006cbb" font-size="28" font-family="MalgunGothicBold, Malgun Gothic"><tspan x="0" y="0">Pay</tspan></text>
</svg>
