<svg xmlns="http://www.w3.org/2000/svg" width="15.295" height="13.383" viewBox="0 0 15.295 13.383">
  <path id="Bathroom_Icon" data-name="Bathroom Icon" d="M14.578,8.942H2.39V4.64a.956.956,0,0,1,1.763-.511,2.03,2.03,0,0,0,.2,2.48.358.358,0,0,0,.015.491l.338.338a.359.359,0,0,0,.507,0L8.055,4.6a.359.359,0,0,0,0-.507l-.338-.338a.358.358,0,0,0-.491-.015A2.027,2.027,0,0,0,5.31,3.28,2.389,2.389,0,0,0,.956,4.64v4.3H.717A.717.717,0,0,0,0,9.658v.478a.717.717,0,0,0,.717.717H.956v.956a2.86,2.86,0,0,0,.956,2.137v.969a.717.717,0,0,0,.717.717h.478a.717.717,0,0,0,.717-.717v-.239h7.647v.239a.717.717,0,0,0,.717.717h.478a.717.717,0,0,0,.717-.717v-.969a2.86,2.86,0,0,0,.956-2.137v-.956h.239a.717.717,0,0,0,.717-.717V9.658A.717.717,0,0,0,14.578,8.942Z" transform="translate(0 -2.25)" fill="#006cbb" opacity="0.74"/>
</svg>
