<svg xmlns="http://www.w3.org/2000/svg" width="17.357" height="10.414" viewBox="0 0 17.357 10.414">
  <path id="Bedroom_Icon" data-name="Bedroom Icon" d="M4.773,9.707A2.17,2.17,0,1,0,2.6,7.538,2.172,2.172,0,0,0,4.773,9.707ZM14.32,6.236H8.245a.434.434,0,0,0-.434.434v3.905H1.736V4.934A.434.434,0,0,0,1.3,4.5H.434A.434.434,0,0,0,0,4.934V14.48a.434.434,0,0,0,.434.434H1.3a.434.434,0,0,0,.434-.434v-1.3H15.621v1.3a.434.434,0,0,0,.434.434h.868a.434.434,0,0,0,.434-.434V9.273A3.037,3.037,0,0,0,14.32,6.236Z" transform="translate(0 -4.5)" fill="#006cbb" opacity="0.74"/>
</svg>
