<svg id="Group_3675" data-name="Group 3675" xmlns="http://www.w3.org/2000/svg" width="25.934" height="22.079" viewBox="0 0 25.934 22.079">
  <path id="Path_1714" data-name="Path 1714" d="M41.17,58.028V56.506a1.419,1.419,0,0,1,.174-.021q3.269,0,6.538,0a2.166,2.166,0,0,1,.219.027v16.44h1.513v-.342q0-8.851,0-17.7a.369.369,0,0,1,.25-.4c1.371-.631,2.736-1.277,4.1-1.925a.39.39,0,0,1,.375,0c1.348.64,2.7,1.278,4.054,1.9a.439.439,0,0,1,.293.476q-.011,8.826-.006,17.651v.336h1.53V56.5h6.9v1.517h-.649V72.968H67.1v1.649H41.171V72.993l.666-.039V58.029ZM56.538,69.7H51.761v3.25h1.506V71.214h1.77v1.738h1.5C56.538,71.864,56.538,70.792,56.538,69.7Zm-3.3-11.7V56.506H51.758v1.487ZM55.033,56.5c0,.47-.006.908.007,1.346A.223.223,0,0,0,55.2,58c.4.013.791.012,1.187,0,.057,0,.157-.083.158-.129.012-.451.007-.9.007-1.371ZM45.69,61.291V59.8H44.207v1.487ZM53.257,59.8H51.739c0,.461-.006.9.007,1.337a.223.223,0,0,0,.158.153c.4.013.792.013,1.187,0a.226.226,0,0,0,.158-.154C53.263,60.7,53.257,60.266,53.257,59.8Zm1.788,1.5c.476,0,.921,0,1.366-.006a.191.191,0,0,0,.133-.129c.01-.451.006-.9.006-1.361H55.046Zm9.042,0V59.8h-1.5c0,.46-.006.9.007,1.335a.222.222,0,0,0,.156.157C63.184,61.309,63.62,61.3,64.088,61.3ZM44.2,64.585h1.483V63.1H44.2Zm7.551-.006h1.486V63.1H51.752C51.752,63.6,51.752,64.082,51.752,64.578Zm3.3-1.483v1.5c.468,0,.914,0,1.359,0,.046,0,.128-.07.129-.107.008-.46.006-.921.006-1.392Zm9.035.007H62.584c0,.461,0,.9,0,1.336,0,.054.07.151.11.152.459.011.919.007,1.392.007Zm-19.88,3.29v1.483h1.477V66.393Zm7.542,1.482h1.485V66.394H51.752Zm3.3.008H56.53V66.395H55.048ZM64.1,66.4H62.585c0,.461-.006.9.007,1.336a.226.226,0,0,0,.158.155c.4.013.792.013,1.187,0a.227.227,0,0,0,.158-.153C64.109,67.3,64.1,66.861,64.1,66.4Zm-19.89,3.284v1.5h1.47v-1.5Zm19.877.012H62.584c0,.461,0,.9,0,1.336,0,.054.07.152.109.152.459.011.919.007,1.392.007C64.091,70.679,64.091,70.2,64.091,69.7Z" transform="translate(-41.17 -52.537)" fill="#3e3e3e"/>
</svg>
