<svg xmlns="http://www.w3.org/2000/svg" width="45.072" height="50.08" viewBox="0 0 45.072 50.08">
  <path id="Icon_material-event-available" data-name="Icon material-event-available" d="M38.379,26.69l-2.654-2.654L23.505,36.255,18.2,30.947,15.543,33.6l7.963,7.963ZM44.564,6.508h-2.5V1.5H37.052V6.508H17.02V1.5H12.012V6.508h-2.5a4.985,4.985,0,0,0-4.983,5.008L4.5,46.572A5.007,5.007,0,0,0,9.508,51.58H44.564a5.023,5.023,0,0,0,5.008-5.008V11.516A5.023,5.023,0,0,0,44.564,6.508Zm0,40.064H9.508V19.028H44.564Z" transform="translate(-4.5 -1.5)" fill="#fff"/>
</svg>
