<svg xmlns="http://www.w3.org/2000/svg" width="37.994" height="37.994" viewBox="0 0 37.994 37.994">
  <path id="Icon_material-my-location" data-name="Icon material-my-location" d="M20.5,13.589A6.908,6.908,0,1,0,27.405,20.5,6.906,6.906,0,0,0,20.5,13.589Zm15.44,5.181A15.533,15.533,0,0,0,22.224,5.058V1.5H18.77V5.058A15.533,15.533,0,0,0,5.058,18.77H1.5v3.454H5.058A15.533,15.533,0,0,0,18.77,35.937v3.558h3.454V35.937A15.533,15.533,0,0,0,35.937,22.224h3.558V18.77ZM20.5,32.586A12.089,12.089,0,1,1,32.586,20.5,12.08,12.08,0,0,1,20.5,32.586Z" transform="translate(-1.5 -1.5)" fill="#006cbb"/>
</svg>
