<svg id="Icon_ionic-ios-notifications" data-name="Icon ionic-ios-notifications" xmlns="http://www.w3.org/2000/svg" width="13.352" height="15.472" viewBox="0 0 13.352 15.472">
  <path id="Path_27" data-name="Path 27" d="M16.616,30.548a1.968,1.968,0,0,0,2.008-2.212H14.6A1.969,1.969,0,0,0,16.616,30.548Z" transform="translate(-9.948 -15.076)" fill="#2581c5"/>
  <path id="Path_28" data-name="Path 28" d="M19.944,15.189c-.643-.771-1.907-1.223-1.907-4.677,0-3.545-1.72-4.97-3.322-5.312-.15-.034-.259-.08-.259-.224v-.11a1.022,1.022,0,0,0-2.037,0v.11c0,.141-.109.19-.259.224-1.607.346-3.322,1.767-3.322,5.312,0,3.454-1.265,3.9-1.907,4.677A.752.752,0,0,0,7.593,16.4H19.285A.752.752,0,0,0,19.944,15.189Z" transform="translate(-6.761 -3.93)" fill="#2581c5"/>
</svg>
