<svg xmlns="http://www.w3.org/2000/svg" width="19.026" height="19.026" viewBox="0 0 19.026 19.026">
  <path id="Offer_Icon" data-name="Offer Icon" d="M133.626,132.019a1.608,1.608,0,1,0-.471,1.137A1.549,1.549,0,0,0,133.626,132.019Zm13.4,7.234a1.539,1.539,0,0,1-.465,1.13l-6.166,6.179a1.608,1.608,0,0,1-1.143.465,1.538,1.538,0,0,1-1.13-.465l-8.979-8.992a3.743,3.743,0,0,1-.81-1.268,3.877,3.877,0,0,1-.333-1.469v-5.224A1.63,1.63,0,0,1,129.607,128h5.224a4.451,4.451,0,0,1,2.75,1.143l8.979,8.967A1.608,1.608,0,0,1,147.026,139.252Z" transform="translate(-128 -128)" fill="#201f1f"/>
</svg>
