<svg xmlns="http://www.w3.org/2000/svg" width="58" height="58" viewBox="0 0 58 58">
  <g id="Group_4841" data-name="Group 4841" transform="translate(-20 -403)">
    <circle id="Ellipse_170" data-name="Ellipse 170" cx="29" cy="29" r="29" transform="translate(20 403)" fill="#cfcfcf" opacity="0.33"/>
    <path id="Icon_awesome-briefcase" data-name="Icon awesome-briefcase" d="M18.519,19.843a.926.926,0,0,1-.926.926H12.037a.926.926,0,0,1-.926-.926V17.065H0V25.4a2.848,2.848,0,0,0,2.778,2.778H26.853A2.848,2.848,0,0,0,29.63,25.4V17.065H18.519ZM26.853,7.806h-4.63V5.028A2.848,2.848,0,0,0,19.445,2.25h-9.26A2.848,2.848,0,0,0,7.408,5.028V7.806H2.778A2.848,2.848,0,0,0,0,10.584v4.63H29.63v-4.63A2.848,2.848,0,0,0,26.853,7.806Zm-8.334,0H11.111V5.954h7.408Z" transform="translate(33.902 416.314)" fill="none" stroke="#000" stroke-width="1"/>
  </g>
</svg>
