<svg xmlns="http://www.w3.org/2000/svg" width="38" height="39" viewBox="0 0 38 39">
  <g id="Group_3490" data-name="Group 3490" transform="translate(-0.392 0.392)">
    <ellipse id="Ellipse_83" data-name="Ellipse 83" cx="19" cy="19.5" rx="19" ry="19.5" transform="translate(0.392 -0.392)" fill="#e2e2e2" opacity="0.54"/>
    <g id="Icon_feather-bell-off" data-name="Icon feather-bell-off" transform="translate(10.306 8.696)">
      <path id="Path_1690" data-name="Path 1690" d="M18.489,31.5a1.783,1.783,0,0,1-3.084,0" transform="translate(-7.143 -13.675)" fill="none" stroke="#006cbb" stroke-linecap="round" stroke-linejoin="round" stroke-width="1.2"/>
      <path id="Path_1691" data-name="Path 1691" d="M27.56,16.456A15.945,15.945,0,0,1,27,12" transform="translate(-11.847 -5.761)" fill="none" stroke="#006cbb" stroke-linecap="round" stroke-linejoin="round" stroke-width="1.2"/>
      <path id="Path_1692" data-name="Path 1692" d="M7.406,9.39a5.223,5.223,0,0,0-.232,1.551c0,6.239-2.674,8.021-2.674,8.021H16.978" transform="translate(-2.717 -4.702)" fill="none" stroke="#006cbb" stroke-linecap="round" stroke-linejoin="round" stroke-width="1.2"/>
      <path id="Path_1693" data-name="Path 1693" d="M21.321,8.342A5.348,5.348,0,0,0,13,3.886" transform="translate(-6.169 -2.103)" fill="none" stroke="#006cbb" stroke-linecap="round" stroke-linejoin="round" stroke-width="1.2"/>
      <path id="Path_1694" data-name="Path 1694" d="M1.5,1.5,21.108,21.108" transform="translate(-1.5 -1.5)" fill="none" stroke="#006cbb" stroke-linecap="round" stroke-linejoin="round" stroke-width="1.2"/>
    </g>
  </g>
</svg>
