<svg xmlns="http://www.w3.org/2000/svg" width="55.565" height="33.818" viewBox="0 0 55.565 33.818">
  <g id="Group_3673" data-name="Group 3673" transform="translate(0 0)">
    <path id="Path_1789" data-name="Path 1789" d="M59.986,95.515A2.551,2.551,0,0,1,62.731,93.9q18.466.039,36.936.018a4.207,4.207,0,0,1,1.123.115,2.032,2.032,0,0,1,1.493,2.044c.014,1.541,0,3.085,0,4.626v.661c.31-.218.523-.362.73-.511q4.447-3.2,8.893-6.4a2.2,2.2,0,0,1,3.545.946.64.64,0,0,0,.091.121v30.552a2.5,2.5,0,0,1-1.737,1.646h-.868a9.052,9.052,0,0,1-1.078-.571q-4.546-3.252-9.07-6.524c-.138-.1-.282-.191-.484-.325-.011.239-.025.4-.025.566,0,1.423-.041,2.847.011,4.267a2.352,2.352,0,0,1-1.726,2.59H61.717a2.476,2.476,0,0,1-1.737-1.646Q59.988,110.785,59.986,95.515Zm37.934,2.55H64.366v25.5H97.92Zm13.254,23.412v-21.3c-.122.076-.2.118-.263.168-2.776,2-5.558,3.989-8.321,6a.889.889,0,0,0-.288.645c-.019,2.553-.006,5.1-.022,7.656a.785.785,0,0,0,.39.718q2.816,2.005,5.614,4.034C109.227,120.074,110.17,120.756,111.173,121.477Z" transform="translate(-59.98 -93.9)" fill="#006cbb"/>
    <g id="Group_3672" data-name="Group 3672" transform="translate(11.467 7.647)">
      <path id="Path_1792" data-name="Path 1792" d="M125.884,131.425c0-2.365.008-4.732,0-7.1-.008-1.934-1.324-2.707-3-1.755q-6.222,3.54-12.434,7.1c-1.732.992-1.732,2.5.005,3.5q6.207,3.57,12.431,7.107c1.681.957,2.99.181,3-1.76C125.892,136.157,125.884,133.79,125.884,131.425Zm-2.135,6.923c-4.077-2.332-8.054-4.6-12.113-6.923l12.113-6.918Z" transform="translate(-109.149 -122.167)" fill="#006cbb"/>
      <path id="Path_1793" data-name="Path 1793" d="M130.54,146.278V131.34l-13.01,7.466C121.894,141.311,126.163,143.763,130.54,146.278Z" transform="translate(-115.392 -129.461)" fill="#006cbb"/>
    </g>
  </g>
</svg>
