<svg id="Real_Rolty_Logo" data-name="Real Rolty Logo" xmlns="http://www.w3.org/2000/svg" width="121.242" height="114.581" viewBox="0 0 121.242 114.581">
  <g id="RR_Logo" data-name="RR Logo" transform="translate(23.526)">
    <path id="Path_1" data-name="Path 1" d="M203.566-1043.194,179.4-1063.978l-2.742-2.362-2.742-2.362-2.742,2.362-2.742,2.362h0l-31.909,27.455v48.7h7.157V-1003.6h12.846l9.838,15.776h8.112l-9.9-16.01h19.306l10.012,16.01h8.112l-10.666-17.248a11.43,11.43,0,0,0,3.636-1.948,12.494,12.494,0,0,0,2.813-3.1,15.573,15.573,0,0,0,1.789-3.895,15.24,15.24,0,0,0,.639-4.407,14.524,14.524,0,0,0-1.056-5.4,15.824,15.824,0,0,0-2.908-4.723,14.534,14.534,0,0,0-4.439-3.357,12.585,12.585,0,0,0-5.652-1.277H169.456a17.2,17.2,0,0,1,3.066,2.7,18.571,18.571,0,0,1,2.523,3.626h10.677a5.878,5.878,0,0,1,2.713.676,7.6,7.6,0,0,1,2.3,1.816,9.429,9.429,0,0,1,1.594,2.686,8.711,8.711,0,0,1,.607,3.257,10.162,10.162,0,0,1-.512,3.256,9.238,9.238,0,0,1-1.4,2.713,6.5,6.5,0,0,1-2.138,1.853,5.768,5.768,0,0,1-2.781.676h-1.835v0H149.791v0h-6.106v-16.932h14.509a5.861,5.861,0,0,1,2.713.676,7.471,7.471,0,0,1,2.3,1.816,9.443,9.443,0,0,1,1.6,2.686,8.816,8.816,0,0,1,.607,3.257,10.313,10.313,0,0,1-.512,3.256,9.281,9.281,0,0,1-1.05,2.2h7.843c.132-.343.253-.692.359-1.045a15.057,15.057,0,0,0,.639-4.407,14.417,14.417,0,0,0-1.056-5.4,15.8,15.8,0,0,0-2.9-4.723,14.6,14.6,0,0,0-4.439-3.357,12.618,12.618,0,0,0-5.652-1.277H143.607l30.314-26.082h0l29.645,25.5v45.933h7.151v-49.216Z" transform="translate(-136.528 1068.702)" fill="#006cbb"/>
    <g id="RR_squares" data-name="RR squares" transform="translate(32.986 19.335)">
      <g id="Group_1" data-name="Group 1">
        <rect id="Rectangle_2" data-name="Rectangle 2" width="3.551" height="3.55" fill="#ec4119"/>
      </g>
      <g id="Group_2" data-name="Group 2" transform="translate(5.261)">
        <rect id="Rectangle_3" data-name="Rectangle 3" width="3.551" height="3.55" fill="#ec4119"/>
      </g>
      <g id="Group_3" data-name="Group 3" transform="translate(5.261 5.261)">
        <rect id="Rectangle_4" data-name="Rectangle 4" width="3.551" height="3.55" fill="#ec4119"/>
      </g>
      <g id="Group_4" data-name="Group 4" transform="translate(0 5.261)">
        <rect id="Rectangle_5" data-name="Rectangle 5" width="3.551" height="3.55" fill="#ec4119"/>
      </g>
    </g>
  </g>
  <g id="Real_Rolty_Orange" data-name="Real Rolty Orange" transform="translate(0 88.176)">
    <g id="Group_5" data-name="Group 5" transform="translate(0 0)">
      <path id="Path_2" data-name="Path 2" d="M-42.554-349.851l-2.389-4.087a4.414,4.414,0,0,1-.494.02h-3.119v4.067H-51.2v-13.82h5.765a6.215,6.215,0,0,1,4.146,1.244,4.364,4.364,0,0,1,1.461,3.514,5.2,5.2,0,0,1-.7,2.764,4.288,4.288,0,0,1-2.043,1.718l3.04,4.581Zm-6-6.4h3.119a3.519,3.519,0,0,0,2.29-.651,2.363,2.363,0,0,0,.79-1.935,2.283,2.283,0,0,0-.79-1.9,3.6,3.6,0,0,0-2.29-.632h-3.119Z" transform="translate(51.202 363.849)" fill="#ec4119"/>
      <path id="Path_3" data-name="Path 3" d="M62.7-363.671H72.829v2.31H65.347v3.415h6.713v2.31H65.347v3.475h7.72v2.31H62.7Z" transform="translate(-48.427 363.849)" fill="#ec4119"/>
      <path id="Path_4" data-name="Path 4" d="M165.075-349.851l-1.224-2.922H157.1l-1.224,2.922H153.13l6.061-13.82h2.744l5.982,13.82Zm-7.029-5.193H162.9l-2.409-5.8Z" transform="translate(-127.523 363.849)" fill="#ec4119"/>
      <path id="Path_5" data-name="Path 5" d="M284.521-363.671h2.646v11.431h5.963v2.389h-8.608Z" transform="translate(-242.449 363.849)" fill="#ec4119"/>
      <path id="Path_6" data-name="Path 6" d="M416.995-349.851l-2.389-4.087a4.41,4.41,0,0,1-.493.02h-3.12v4.067h-2.646v-13.82h5.765a6.215,6.215,0,0,1,4.146,1.244,4.363,4.363,0,0,1,1.461,3.514,5.2,5.2,0,0,1-.7,2.764,4.289,4.289,0,0,1-2.044,1.718l3.04,4.581Zm-6-6.4h3.12a3.518,3.518,0,0,0,2.29-.651,2.362,2.362,0,0,0,.79-1.935,2.282,2.282,0,0,0-.79-1.9,3.6,3.6,0,0,0-2.29-.632h-3.12Z" transform="translate(-350.757 363.849)" fill="#ec4119"/>
      <path id="Path_7" data-name="Path 7" d="M524.691-364.16a6.911,6.911,0,0,1,2.656,2.547,6.877,6.877,0,0,1,.967,3.593,6.929,6.929,0,0,1-.967,3.6,7.032,7.032,0,0,1-2.656,2.576,7.511,7.511,0,0,1-3.741.947,7.513,7.513,0,0,1-3.742-.947,7.033,7.033,0,0,1-2.655-2.576,6.923,6.923,0,0,1-.967-3.6,6.871,6.871,0,0,1,.967-3.593,6.912,6.912,0,0,1,2.655-2.547,7.638,7.638,0,0,1,3.742-.928A7.635,7.635,0,0,1,524.691-364.16ZM518.64-362.1a4.622,4.622,0,0,0-1.718,1.7,4.61,4.61,0,0,0-.632,2.379,4.609,4.609,0,0,0,.641,2.389,4.77,4.77,0,0,0,1.718,1.718,4.536,4.536,0,0,0,2.34.632,4.447,4.447,0,0,0,2.31-.632,4.639,4.639,0,0,0,1.688-1.718,4.722,4.722,0,0,0,.622-2.389,4.668,4.668,0,0,0-.622-2.379,4.59,4.59,0,0,0-1.688-1.7,4.505,4.505,0,0,0-2.31-.622A4.649,4.649,0,0,0,518.64-362.1Z" transform="translate(-442.807 365.088)" fill="#ec4119"/>
      <path id="Path_8" data-name="Path 8" d="M649.7-363.671h2.645v11.431h5.963v2.389H649.7Z" transform="translate(-561.866 363.849)" fill="#ec4119"/>
      <path id="Path_9" data-name="Path 9" d="M722.643-363.671h11.273v2.349h-4.3v11.471h-2.665v-11.471h-4.3Z" transform="translate(-625.666 363.849)" fill="#ec4119"/>
      <path id="Path_10" data-name="Path 10" d="M826.694-363.671l-5.035,9.3v4.521h-2.646v-4.423l-5.153-9.4h2.685l3.771,6.5,3.712-6.5Z" transform="translate(-705.452 363.849)" fill="#ec4119"/>
    </g>
  </g>
  <g id="Buy_Sell_Connect" data-name="Buy Sell Connect" transform="translate(0 107.506)">
    <g id="Group_6" data-name="Group 6" transform="translate(0 0)">
      <path id="Path_11" data-name="Path 11" d="M-46.588-209.758a1.5,1.5,0,0,1,.607,1.268,1.529,1.529,0,0,1-.336,1,1.633,1.633,0,0,1-.918.548,1.8,1.8,0,0,1,1.13.577,1.713,1.713,0,0,1,.41,1.169,1.634,1.634,0,0,1-.666,1.387,3.014,3.014,0,0,1-1.84.5h-3v-6.908h2.951A2.7,2.7,0,0,1-46.588-209.758Zm-.72,2.2a.922.922,0,0,0,.35-.775.9.9,0,0,0-.35-.76,1.569,1.569,0,0,0-.992-.257h-1.954v2.063H-48.3A1.588,1.588,0,0,0-47.309-207.557Zm.212,3.089a.968.968,0,0,0,.434-.844.938.938,0,0,0-.434-.819,2.116,2.116,0,0,0-1.2-.3h-1.954v2.25H-48.3A2.038,2.038,0,0,0-47.1-204.469Z" transform="translate(51.202 210.296)" fill="#006cbb"/>
      <path id="Path_12" data-name="Path 12" d="M14.608-204.636a1.946,1.946,0,0,0,1.456.538,1.917,1.917,0,0,0,1.441-.538,2.055,2.055,0,0,0,.523-1.5v-4.086h.947v4.086a2.856,2.856,0,0,1-.775,2.122,2.9,2.9,0,0,1-2.137.77,2.928,2.928,0,0,1-2.151-.77,2.846,2.846,0,0,1-.78-2.122v-4.086h.947v4.086A2.042,2.042,0,0,0,14.608-204.636Z" transform="translate(-5.071 210.296)" fill="#006cbb"/>
      <path id="Path_13" data-name="Path 13" d="M82.288-210.217l-2.585,4.54v2.368h-.947v-2.329l-2.625-4.579H77.1l2.132,3.523,2.092-3.523Z" transform="translate(-60.173 210.296)" fill="#006cbb"/>
      <path id="Path_14" data-name="Path 14" d="M139.341-163.284a.558.558,0,0,1,.153.4.574.574,0,0,1-.153.409.5.5,0,0,1-.38.163.516.516,0,0,1-.385-.163.564.564,0,0,1-.158-.409.548.548,0,0,1,.158-.4.524.524,0,0,1,.385-.158A.508.508,0,0,1,139.341-163.284Z" transform="translate(-114.655 169.383)" fill="#006cbb"/>
      <path id="Path_15" data-name="Path 15" d="M196.407-209.786a3.382,3.382,0,0,0-.952-.153,1.756,1.756,0,0,0-.962.232.72.72,0,0,0-.36.636.838.838,0,0,0,.217.6,1.534,1.534,0,0,0,.533.365q.316.133.878.311a9.964,9.964,0,0,1,1.135.414,1.969,1.969,0,0,1,.74.587,1.625,1.625,0,0,1,.306,1.031,1.723,1.723,0,0,1-.321,1.036,2.052,2.052,0,0,1-.9.686,3.41,3.41,0,0,1-1.327.242,3.859,3.859,0,0,1-1.48-.3,4.007,4.007,0,0,1-1.243-.79l.424-.819a3.562,3.562,0,0,0,1.11.745,3.062,3.062,0,0,0,1.2.262,1.917,1.917,0,0,0,1.09-.272.845.845,0,0,0,.4-.735.857.857,0,0,0-.217-.6,1.533,1.533,0,0,0-.548-.375,9.432,9.432,0,0,0-.893-.306,9.078,9.078,0,0,1-1.125-.4,1.94,1.94,0,0,1-.735-.582,1.6,1.6,0,0,1-.3-1.016,1.628,1.628,0,0,1,.306-.977,1.933,1.933,0,0,1,.859-.651,3.359,3.359,0,0,1,1.283-.227,4.142,4.142,0,0,1,1.219.183,4.1,4.1,0,0,1,1.061.488l-.395.849A3.971,3.971,0,0,0,196.407-209.786Z" transform="translate(-162.11 210.847)" fill="#006cbb"/>
      <path id="Path_16" data-name="Path 16" d="M256.22-210.217h4.8v.859h-3.849v2.132h3.444v.859h-3.444v2.2h3.967v.859H256.22Z" transform="translate(-217.694 210.296)" fill="#006cbb"/>
      <path id="Path_17" data-name="Path 17" d="M317.091-210.217h.947v6.049h3.02v.859h-3.967Z" transform="translate(-270.937 210.296)" fill="#006cbb"/>
      <path id="Path_18" data-name="Path 18" d="M367.8-210.217h.947v6.049h3.02v.859H367.8Z" transform="translate(-315.294 210.296)" fill="#006cbb"/>
      <path id="Path_19" data-name="Path 19" d="M415.421-163.284a.558.558,0,0,1,.153.4.575.575,0,0,1-.153.409.5.5,0,0,1-.38.163.515.515,0,0,1-.385-.163.563.563,0,0,1-.158-.409.548.548,0,0,1,.158-.4.524.524,0,0,1,.385-.158A.509.509,0,0,1,415.421-163.284Z" transform="translate(-356.137 169.383)" fill="#006cbb"/>
      <path id="Path_20" data-name="Path 20" d="M474.158-209.619a2.626,2.626,0,0,0-1.076-.232,2.626,2.626,0,0,0-1.342.355,2.633,2.633,0,0,0-.967.962,2.6,2.6,0,0,0-.355,1.337,2.607,2.607,0,0,0,.355,1.332,2.62,2.62,0,0,0,.967.967,2.623,2.623,0,0,0,1.342.355,2.705,2.705,0,0,0,1.066-.222,3.084,3.084,0,0,0,.928-.607l.572.622a3.845,3.845,0,0,1-1.214.8,3.577,3.577,0,0,1-1.4.291,3.573,3.573,0,0,1-1.806-.469,3.465,3.465,0,0,1-1.293-1.278,3.468,3.468,0,0,1-.474-1.786,3.4,3.4,0,0,1,.479-1.771,3.459,3.459,0,0,1,1.308-1.268,3.671,3.671,0,0,1,1.826-.464,3.716,3.716,0,0,1,1.4.271,3.455,3.455,0,0,1,1.169.765l-.562.681A2.852,2.852,0,0,0,474.158-209.619Z" transform="translate(-404.212 210.71)" fill="#006cbb"/>
      <path id="Path_21" data-name="Path 21" d="M538.157-210.226a3.488,3.488,0,0,1,1.318,1.268,3.375,3.375,0,0,1,.484,1.771,3.426,3.426,0,0,1-.484,1.781,3.5,3.5,0,0,1-1.318,1.283,3.673,3.673,0,0,1-1.831.469,3.672,3.672,0,0,1-1.83-.469,3.5,3.5,0,0,1-1.318-1.283,3.425,3.425,0,0,1-.483-1.781,3.374,3.374,0,0,1,.483-1.771,3.5,3.5,0,0,1,1.313-1.268,3.693,3.693,0,0,1,1.835-.464A3.7,3.7,0,0,1,538.157-210.226Zm-3.158.74a2.7,2.7,0,0,0-.982.962,2.548,2.548,0,0,0-.365,1.337,2.574,2.574,0,0,0,.365,1.342,2.729,2.729,0,0,0,.982.972,2.605,2.605,0,0,0,1.338.36,2.554,2.554,0,0,0,1.327-.36,2.713,2.713,0,0,0,.967-.972,2.6,2.6,0,0,0,.36-1.342,2.571,2.571,0,0,0-.36-1.337,2.687,2.687,0,0,0-.967-.962,2.58,2.58,0,0,0-1.327-.355A2.632,2.632,0,0,0,535-209.486Z" transform="translate(-459.521 210.71)" fill="#006cbb"/>
      <path id="Path_22" data-name="Path 22" d="M615.882-210.217h.938v6.908h-.957l-3.947-5.349v5.349h-.947v-6.908h.957l3.957,5.359Z" transform="translate(-527.985 210.296)" fill="#006cbb"/>
      <path id="Path_23" data-name="Path 23" d="M687.857-210.217h.937v6.908h-.958l-3.947-5.349v5.349h-.947v-6.908h.957l3.958,5.359Z" transform="translate(-590.94 210.296)" fill="#006cbb"/>
      <path id="Path_24" data-name="Path 24" d="M754.914-210.217h4.8v.859h-3.849v2.132h3.444v.859h-3.444v2.2h3.967v.859h-4.915Z" transform="translate(-653.892 210.296)" fill="#006cbb"/>
      <path id="Path_25" data-name="Path 25" d="M815.6-209.619a2.625,2.625,0,0,0-1.075-.232,2.626,2.626,0,0,0-1.342.355,2.63,2.63,0,0,0-.967.962,2.6,2.6,0,0,0-.356,1.337,2.6,2.6,0,0,0,.356,1.332,2.616,2.616,0,0,0,.967.967,2.624,2.624,0,0,0,1.342.355,2.708,2.708,0,0,0,1.066-.222,3.086,3.086,0,0,0,.927-.607l.573.622a3.848,3.848,0,0,1-1.214.8,3.577,3.577,0,0,1-1.4.291,3.573,3.573,0,0,1-1.806-.469,3.466,3.466,0,0,1-1.293-1.278,3.469,3.469,0,0,1-.474-1.786,3.4,3.4,0,0,1,.478-1.771,3.461,3.461,0,0,1,1.308-1.268,3.673,3.673,0,0,1,1.826-.464,3.715,3.715,0,0,1,1.4.271,3.458,3.458,0,0,1,1.169.765l-.562.681A2.851,2.851,0,0,0,815.6-209.619Z" transform="translate(-702.866 210.71)" fill="#006cbb"/>
      <path id="Path_26" data-name="Path 26" d="M873.19-210.217h5.4v.869h-2.231v6.04h-.947v-6.04h-2.22Z" transform="translate(-757.346 210.296)" fill="#006cbb"/>
    </g>
  </g>
</svg>
