<svg id="Group_323" data-name="Group 323" xmlns="http://www.w3.org/2000/svg" xmlns:xlink="http://www.w3.org/1999/xlink" width="41.699" height="42" viewBox="0 0 41.699 42">
  <defs>
    <clipPath id="clip-path">
      <rect id="NoPath_-_Copy_21_" data-name="NoPath - Copy (21)" width="24" height="24" transform="translate(0)" fill="#152026"/>
    </clipPath>
  </defs>
  <g id="Rectangle_240" data-name="Rectangle 240" transform="translate(0 0)" fill="#fff" stroke="#000" stroke-width="1" opacity="0.1">
    <rect width="41.699" height="42" stroke="none"/>
    <rect x="0.5" y="0.5" width="40.699" height="41" fill="none"/>
  </g>
  <g id="Mask_Group_9" data-name="Mask Group 9" transform="translate(9 9)" clip-path="url(#clip-path)">
    <g id="twitter" transform="translate(-0.365 1.99)">
      <g id="Group_326" data-name="Group 326" transform="translate(0 0)">
        <path id="Path_343" data-name="Path 343" d="M24.689,3.687a10.553,10.553,0,0,1-2.916.8A5.033,5.033,0,0,0,24,1.689a10.115,10.115,0,0,1-3.21,1.225,5.061,5.061,0,0,0-8.755,3.461,5.212,5.212,0,0,0,.117,1.154A14.327,14.327,0,0,1,1.719,2.235,5.063,5.063,0,0,0,3.274,9,5,5,0,0,1,.988,8.377v.056a5.085,5.085,0,0,0,4.055,4.973,5.052,5.052,0,0,1-1.327.167,4.475,4.475,0,0,1-.958-.086,5.11,5.11,0,0,0,4.73,3.526,10.17,10.17,0,0,1-6.276,2.159A9.48,9.48,0,0,1,0,19.1a14.249,14.249,0,0,0,7.765,2.271,14.307,14.307,0,0,0,14.406-14.4c0-.224-.008-.44-.019-.654A10.1,10.1,0,0,0,24.689,3.687Z" transform="translate(0 -1.313)" fill="#152026"/>
      </g>
    </g>
  </g>
</svg>
