<svg xmlns="http://www.w3.org/2000/svg" width="29.601" height="17.761" viewBox="0 0 29.601 17.761">
  <path id="Icon_awesome-graduation-cap" data-name="Icon awesome-graduation-cap" d="M28.784,8.626l-12.9-3.964a3.7,3.7,0,0,0-2.164,0L.817,8.626a1.089,1.089,0,0,0,0,2.109l2.249.691a3.645,3.645,0,0,0-.827,2.169,1.427,1.427,0,0,0-.118,2.452L.94,21.36a.74.74,0,0,0,.722.9h2.6a.74.74,0,0,0,.722-.9L3.8,16.047a1.424,1.424,0,0,0-.083-2.429,2.182,2.182,0,0,1,.957-1.7L13.718,14.7a3.7,3.7,0,0,0,2.164,0l12.9-3.964a1.089,1.089,0,0,0,0-2.109ZM16.317,16.113a5.178,5.178,0,0,1-3.034,0l-6.707-2.06L5.92,19.3c0,1.635,3.976,2.96,8.88,2.96s8.88-1.325,8.88-2.96l-.656-5.248Z" transform="translate(0 -4.5)" fill="#0465c5" opacity="0.7"/>
</svg>
