<svg id="Group_57863" data-name="Group 57863" xmlns="http://www.w3.org/2000/svg" width="25" height="23.585" viewBox="0 0 25 23.585">
  <g id="Group_57860" data-name="Group 57860" transform="translate(0 0)">
    <rect id="Rectangle_2265" data-name="Rectangle 2265" width="25" height="23.585" fill="#152026" opacity="0"/>
    <path id="Path_share-variant" data-name="Path / share-variant" d="M16.393,14.456a2.613,2.613,0,0,0-1.75.681L8.277,11.466a2.871,2.871,0,0,0,.08-.619,2.871,2.871,0,0,0-.08-.619l6.295-3.636a2.643,2.643,0,1,0-.857-1.937,2.871,2.871,0,0,0,.08.619L7.5,8.909a2.654,2.654,0,1,0,0,3.875l6.357,3.671a2.491,2.491,0,0,0-.071.584,2.607,2.607,0,1,0,2.607-2.583Z" transform="translate(1.463 0.916)" fill="#152026"/>
  </g>
</svg>
